G04 #@! TF.GenerationSoftware,KiCad,Pcbnew,(6.0.2)*
G04 #@! TF.CreationDate,2022-02-21T10:35:24-06:00*
G04 #@! TF.ProjectId,20-ELC-2-01-R2(Appetizer),32302d45-4c43-42d3-922d-30312d523228,v1*
G04 #@! TF.SameCoordinates,Original*
G04 #@! TF.FileFunction,Soldermask,Top*
G04 #@! TF.FilePolarity,Negative*
%FSLAX46Y46*%
G04 Gerber Fmt 4.6, Leading zero omitted, Abs format (unit mm)*
G04 Created by KiCad (PCBNEW (6.0.2)) date 2022-02-21 10:35:24*
%MOMM*%
%LPD*%
G01*
G04 APERTURE LIST*
G04 Aperture macros list*
%AMRoundRect*
0 Rectangle with rounded corners*
0 $1 Rounding radius*
0 $2 $3 $4 $5 $6 $7 $8 $9 X,Y pos of 4 corners*
0 Add a 4 corners polygon primitive as box body*
4,1,4,$2,$3,$4,$5,$6,$7,$8,$9,$2,$3,0*
0 Add four circle primitives for the rounded corners*
1,1,$1+$1,$2,$3*
1,1,$1+$1,$4,$5*
1,1,$1+$1,$6,$7*
1,1,$1+$1,$8,$9*
0 Add four rect primitives between the rounded corners*
20,1,$1+$1,$2,$3,$4,$5,0*
20,1,$1+$1,$4,$5,$6,$7,0*
20,1,$1+$1,$6,$7,$8,$9,0*
20,1,$1+$1,$8,$9,$2,$3,0*%
G04 Aperture macros list end*
%ADD10C,1.102000*%
%ADD11RoundRect,0.288500X-0.237500X0.250000X-0.237500X-0.250000X0.237500X-0.250000X0.237500X0.250000X0*%
%ADD12RoundRect,0.051000X-0.800000X0.650000X-0.800000X-0.650000X0.800000X-0.650000X0.800000X0.650000X0*%
%ADD13RoundRect,0.051000X-0.800000X1.000000X-0.800000X-1.000000X0.800000X-1.000000X0.800000X1.000000X0*%
%ADD14RoundRect,0.288500X-0.250000X-0.237500X0.250000X-0.237500X0.250000X0.237500X-0.250000X0.237500X0*%
%ADD15RoundRect,0.051000X0.800000X-0.650000X0.800000X0.650000X-0.800000X0.650000X-0.800000X-0.650000X0*%
%ADD16RoundRect,0.051000X0.800000X-1.000000X0.800000X1.000000X-0.800000X1.000000X-0.800000X-1.000000X0*%
%ADD17RoundRect,0.288500X0.250000X0.237500X-0.250000X0.237500X-0.250000X-0.237500X0.250000X-0.237500X0*%
%ADD18RoundRect,0.301000X0.462500X0.625000X-0.462500X0.625000X-0.462500X-0.625000X0.462500X-0.625000X0*%
%ADD19RoundRect,0.288500X0.300000X0.237500X-0.300000X0.237500X-0.300000X-0.237500X0.300000X-0.237500X0*%
%ADD20RoundRect,0.051000X0.450000X0.400000X-0.450000X0.400000X-0.450000X-0.400000X0.450000X-0.400000X0*%
%ADD21RoundRect,0.288500X0.237500X-0.300000X0.237500X0.300000X-0.237500X0.300000X-0.237500X-0.300000X0*%
%ADD22C,4.202000*%
%ADD23C,7.502000*%
%ADD24RoundRect,0.051000X-0.400000X0.450000X-0.400000X-0.450000X0.400000X-0.450000X0.400000X0.450000X0*%
%ADD25RoundRect,0.288500X-0.300000X-0.237500X0.300000X-0.237500X0.300000X0.237500X-0.300000X0.237500X0*%
%ADD26RoundRect,0.051000X0.950000X0.400000X-0.950000X0.400000X-0.950000X-0.400000X0.950000X-0.400000X0*%
%ADD27RoundRect,0.201000X0.825000X0.150000X-0.825000X0.150000X-0.825000X-0.150000X0.825000X-0.150000X0*%
%ADD28RoundRect,0.201000X-0.825000X-0.150000X0.825000X-0.150000X0.825000X0.150000X-0.825000X0.150000X0*%
%ADD29RoundRect,0.201000X-0.150000X0.825000X-0.150000X-0.825000X0.150000X-0.825000X0.150000X0.825000X0*%
%ADD30RoundRect,0.051000X-0.850000X-0.850000X0.850000X-0.850000X0.850000X0.850000X-0.850000X0.850000X0*%
%ADD31O,1.802000X1.802000*%
%ADD32RoundRect,0.051000X0.850000X0.500000X-0.850000X0.500000X-0.850000X-0.500000X0.850000X-0.500000X0*%
%ADD33RoundRect,0.051000X-0.350000X0.250000X-0.350000X-0.250000X0.350000X-0.250000X0.350000X0.250000X0*%
%ADD34RoundRect,0.051000X0.350000X-0.250000X0.350000X0.250000X-0.350000X0.250000X-0.350000X-0.250000X0*%
%ADD35RoundRect,0.151000X-0.637500X-0.100000X0.637500X-0.100000X0.637500X0.100000X-0.637500X0.100000X0*%
G04 APERTURE END LIST*
D10*
X156225000Y-85475000D03*
X144435800Y-60900000D03*
X121000000Y-96750000D03*
X119600000Y-86050000D03*
X131325000Y-120700000D03*
X125158500Y-74549000D03*
X140350000Y-118900000D03*
X148525000Y-60900000D03*
X149453600Y-74472800D03*
X149375000Y-97200000D03*
X131250000Y-86500000D03*
X120078500Y-74549000D03*
X152175000Y-88250000D03*
X129000000Y-81000000D03*
X125125000Y-61275000D03*
X137175000Y-96475000D03*
X126873000Y-116078000D03*
D11*
X129300000Y-99512500D03*
X129300000Y-101337500D03*
D12*
X131561500Y-73830500D03*
D13*
X128661500Y-72580500D03*
D12*
X131561500Y-71330500D03*
D14*
X152605100Y-63855600D03*
X154430100Y-63855600D03*
D15*
X125296000Y-109367000D03*
D16*
X128196000Y-110617000D03*
D15*
X125296000Y-111867000D03*
D10*
X154700000Y-95800000D03*
D12*
X125475000Y-102125000D03*
D13*
X122575000Y-100875000D03*
D12*
X125475000Y-99625000D03*
X124132000Y-82403000D03*
D13*
X121232000Y-81153000D03*
D12*
X124132000Y-79903000D03*
D11*
X141795500Y-78526000D03*
X141795500Y-80351000D03*
D12*
X155729600Y-73741600D03*
D13*
X152829600Y-72491600D03*
D12*
X155729600Y-71241600D03*
D15*
X138504000Y-58389200D03*
D16*
X141404000Y-59639200D03*
D15*
X138504000Y-60889200D03*
D12*
X154561200Y-60889200D03*
D13*
X151661200Y-59639200D03*
D12*
X154561200Y-58389200D03*
D15*
X114120000Y-71203500D03*
D16*
X117020000Y-72453500D03*
D15*
X114120000Y-73703500D03*
D17*
X154430100Y-66040000D03*
X152605100Y-66040000D03*
X119530500Y-95186500D03*
X117705500Y-95186500D03*
X119530500Y-87884000D03*
X117705500Y-87884000D03*
X130198500Y-66192400D03*
X128373500Y-66192400D03*
X117041300Y-65087500D03*
X115216300Y-65087500D03*
D18*
X116987500Y-98000000D03*
X114012500Y-98000000D03*
D19*
X119480500Y-90360500D03*
X117755500Y-90360500D03*
D20*
X156295600Y-93964800D03*
X156295600Y-92064800D03*
X154295600Y-93014800D03*
D12*
X131650400Y-60838400D03*
D13*
X128750400Y-59588400D03*
D12*
X131650400Y-58338400D03*
D21*
X141351000Y-95350500D03*
X141351000Y-93625500D03*
D22*
X160000000Y-119000000D03*
D23*
X160000000Y-119000000D03*
D22*
X160000000Y-59000000D03*
D23*
X160000000Y-59000000D03*
X115000000Y-119000000D03*
D22*
X115000000Y-119000000D03*
D19*
X141832500Y-66294000D03*
X140107500Y-66294000D03*
X116940500Y-67157600D03*
X115215500Y-67157600D03*
D21*
X143002000Y-105002500D03*
X143002000Y-103277500D03*
D24*
X156245600Y-87442800D03*
X154345600Y-87442800D03*
X155295600Y-89442800D03*
D23*
X115000000Y-59000000D03*
D22*
X115000000Y-59000000D03*
D19*
X119480500Y-92837000D03*
X117755500Y-92837000D03*
D21*
X141795500Y-84238000D03*
X141795500Y-82513000D03*
D19*
X132587500Y-111650000D03*
X130862500Y-111650000D03*
D25*
X152604300Y-68326000D03*
X154329300Y-68326000D03*
D17*
X146137000Y-97853500D03*
X144312000Y-97853500D03*
D26*
X149074000Y-102296000D03*
X149074000Y-100396000D03*
X146074000Y-101346000D03*
D27*
X149096500Y-95123000D03*
X149096500Y-93853000D03*
X149096500Y-92583000D03*
X149096500Y-91313000D03*
X149096500Y-90043000D03*
X149096500Y-88773000D03*
X149096500Y-87503000D03*
X144146500Y-87503000D03*
X144146500Y-88773000D03*
X144146500Y-90043000D03*
X144146500Y-91313000D03*
X144146500Y-92583000D03*
X144146500Y-93853000D03*
X144146500Y-95123000D03*
D28*
X144540200Y-63804800D03*
X144540200Y-65074800D03*
X144540200Y-66344800D03*
X144540200Y-67614800D03*
X144540200Y-68884800D03*
X144540200Y-70154800D03*
X144540200Y-71424800D03*
X149490200Y-71424800D03*
X149490200Y-70154800D03*
X149490200Y-68884800D03*
X149490200Y-67614800D03*
X149490200Y-66344800D03*
X149490200Y-65074800D03*
X149490200Y-63804800D03*
D29*
X140779500Y-100014000D03*
X139509500Y-100014000D03*
X138239500Y-100014000D03*
X136969500Y-100014000D03*
X135699500Y-100014000D03*
X134429500Y-100014000D03*
X133159500Y-100014000D03*
X131889500Y-100014000D03*
X131889500Y-104964000D03*
X133159500Y-104964000D03*
X134429500Y-104964000D03*
X135699500Y-104964000D03*
X136969500Y-104964000D03*
X138239500Y-104964000D03*
X139509500Y-104964000D03*
X140779500Y-104964000D03*
D10*
X144830800Y-74472800D03*
D29*
X139573000Y-79313000D03*
X138303000Y-79313000D03*
X137033000Y-79313000D03*
X135763000Y-79313000D03*
X134493000Y-79313000D03*
X133223000Y-79313000D03*
X131953000Y-79313000D03*
X131953000Y-84263000D03*
X133223000Y-84263000D03*
X134493000Y-84263000D03*
X135763000Y-84263000D03*
X137033000Y-84263000D03*
X138303000Y-84263000D03*
X139573000Y-84263000D03*
D30*
X161086800Y-88036400D03*
D31*
X161086800Y-90576400D03*
X161086800Y-93116400D03*
D21*
X138239500Y-89254500D03*
X138239500Y-87529500D03*
D32*
X154076000Y-104135000D03*
X160376000Y-104135000D03*
X160376000Y-100335000D03*
X154076000Y-100335000D03*
D15*
X138250000Y-71292400D03*
D16*
X141150000Y-72542400D03*
D15*
X138250000Y-73792400D03*
D19*
X132625000Y-115760500D03*
X130900000Y-115760500D03*
D14*
X130837500Y-109900000D03*
X132662500Y-109900000D03*
D17*
X145057500Y-109982000D03*
X143232500Y-109982000D03*
D15*
X125359500Y-119336500D03*
D16*
X128259500Y-120586500D03*
D15*
X125359500Y-121836500D03*
D10*
X127900000Y-93550000D03*
X127850000Y-89150000D03*
D33*
X123571000Y-90678000D03*
X123571000Y-91567000D03*
D34*
X123571000Y-92583000D03*
D33*
X125887000Y-92583000D03*
X125884000Y-91567000D03*
X125884000Y-90678000D03*
D25*
X128360000Y-68516500D03*
X130085000Y-68516500D03*
D30*
X110947200Y-86360000D03*
D31*
X110947200Y-88900000D03*
X110947200Y-91440000D03*
X110947200Y-93980000D03*
X110947200Y-96520000D03*
D12*
X146357000Y-121836500D03*
D13*
X143457000Y-120586500D03*
D12*
X146357000Y-119336500D03*
D25*
X146711500Y-104521000D03*
X148436500Y-104521000D03*
D35*
X130106500Y-89363000D03*
X130106500Y-90013000D03*
X130106500Y-90663000D03*
X130106500Y-91313000D03*
X130106500Y-91963000D03*
X130106500Y-92613000D03*
X130106500Y-93263000D03*
X135831500Y-93263000D03*
X135831500Y-92613000D03*
X135831500Y-91963000D03*
X135831500Y-91313000D03*
X135831500Y-90663000D03*
X135831500Y-90013000D03*
X135831500Y-89363000D03*
D28*
X135383500Y-108712000D03*
X135383500Y-109982000D03*
X135383500Y-111252000D03*
X135383500Y-112522000D03*
X135383500Y-113792000D03*
X135383500Y-115062000D03*
X135383500Y-116332000D03*
X140333500Y-116332000D03*
X140333500Y-115062000D03*
X140333500Y-113792000D03*
X140333500Y-112522000D03*
X140333500Y-111252000D03*
X140333500Y-109982000D03*
X140333500Y-108712000D03*
D14*
X140108300Y-64414400D03*
X141933300Y-64414400D03*
D28*
X120207000Y-63817500D03*
X120207000Y-65087500D03*
X120207000Y-66357500D03*
X120207000Y-67627500D03*
X120207000Y-68897500D03*
X120207000Y-70167500D03*
X120207000Y-71437500D03*
X125157000Y-71437500D03*
X125157000Y-70167500D03*
X125157000Y-68897500D03*
X125157000Y-67627500D03*
X125157000Y-66357500D03*
X125157000Y-65087500D03*
X125157000Y-63817500D03*
D17*
X130198500Y-63944500D03*
X128373500Y-63944500D03*
D14*
X130850000Y-117729000D03*
X132675000Y-117729000D03*
X154662500Y-81280000D03*
X156487500Y-81280000D03*
D10*
X132400000Y-95175000D03*
D14*
X154662500Y-78740000D03*
X156487500Y-78740000D03*
G36*
X136546587Y-92840477D02*
G01*
X136546126Y-92841891D01*
X136506803Y-92888944D01*
X136498170Y-92957660D01*
X136528133Y-93020289D01*
X136536803Y-93027800D01*
X136537457Y-93029690D01*
X136536147Y-93031202D01*
X136534382Y-93030975D01*
X136526006Y-93025379D01*
X136468801Y-93014000D01*
X135194199Y-93014000D01*
X135136994Y-93025379D01*
X135119520Y-93037055D01*
X135117524Y-93037186D01*
X135116413Y-93035523D01*
X135116874Y-93034109D01*
X135156197Y-92987056D01*
X135164830Y-92918340D01*
X135134867Y-92855711D01*
X135126197Y-92848200D01*
X135125543Y-92846310D01*
X135126853Y-92844798D01*
X135128618Y-92845025D01*
X135136994Y-92850621D01*
X135194199Y-92862000D01*
X136468801Y-92862000D01*
X136526006Y-92850621D01*
X136543480Y-92838945D01*
X136545476Y-92838814D01*
X136546587Y-92840477D01*
G37*
G36*
X130821587Y-92840477D02*
G01*
X130821126Y-92841891D01*
X130781803Y-92888944D01*
X130773170Y-92957660D01*
X130803133Y-93020289D01*
X130811803Y-93027800D01*
X130812457Y-93029690D01*
X130811147Y-93031202D01*
X130809382Y-93030975D01*
X130801006Y-93025379D01*
X130743801Y-93014000D01*
X129469199Y-93014000D01*
X129411994Y-93025379D01*
X129394520Y-93037055D01*
X129392524Y-93037186D01*
X129391413Y-93035523D01*
X129391874Y-93034109D01*
X129431197Y-92987056D01*
X129439830Y-92918340D01*
X129409867Y-92855711D01*
X129401197Y-92848200D01*
X129400543Y-92846310D01*
X129401853Y-92844798D01*
X129403618Y-92845025D01*
X129411994Y-92850621D01*
X129469199Y-92862000D01*
X130743801Y-92862000D01*
X130801006Y-92850621D01*
X130818480Y-92838945D01*
X130820476Y-92838814D01*
X130821587Y-92840477D01*
G37*
G36*
X136546587Y-92190477D02*
G01*
X136546126Y-92191891D01*
X136506803Y-92238944D01*
X136498170Y-92307660D01*
X136528133Y-92370289D01*
X136536803Y-92377800D01*
X136537457Y-92379690D01*
X136536147Y-92381202D01*
X136534382Y-92380975D01*
X136526006Y-92375379D01*
X136468801Y-92364000D01*
X135194199Y-92364000D01*
X135136994Y-92375379D01*
X135119520Y-92387055D01*
X135117524Y-92387186D01*
X135116413Y-92385523D01*
X135116874Y-92384109D01*
X135156197Y-92337056D01*
X135164830Y-92268340D01*
X135134867Y-92205711D01*
X135126197Y-92198200D01*
X135125543Y-92196310D01*
X135126853Y-92194798D01*
X135128618Y-92195025D01*
X135136994Y-92200621D01*
X135194199Y-92212000D01*
X136468801Y-92212000D01*
X136526006Y-92200621D01*
X136543480Y-92188945D01*
X136545476Y-92188814D01*
X136546587Y-92190477D01*
G37*
G36*
X130821587Y-92190477D02*
G01*
X130821126Y-92191891D01*
X130781803Y-92238944D01*
X130773170Y-92307660D01*
X130803133Y-92370289D01*
X130811803Y-92377800D01*
X130812457Y-92379690D01*
X130811147Y-92381202D01*
X130809382Y-92380975D01*
X130801006Y-92375379D01*
X130743801Y-92364000D01*
X129469199Y-92364000D01*
X129411994Y-92375379D01*
X129394520Y-92387055D01*
X129392524Y-92387186D01*
X129391413Y-92385523D01*
X129391874Y-92384109D01*
X129431197Y-92337056D01*
X129439830Y-92268340D01*
X129409867Y-92205711D01*
X129401197Y-92198200D01*
X129400543Y-92196310D01*
X129401853Y-92194798D01*
X129403618Y-92195025D01*
X129411994Y-92200621D01*
X129469199Y-92212000D01*
X130743801Y-92212000D01*
X130801006Y-92200621D01*
X130818480Y-92188945D01*
X130820476Y-92188814D01*
X130821587Y-92190477D01*
G37*
G36*
X136546587Y-91540477D02*
G01*
X136546126Y-91541891D01*
X136506803Y-91588944D01*
X136498170Y-91657660D01*
X136528133Y-91720289D01*
X136536803Y-91727800D01*
X136537457Y-91729690D01*
X136536147Y-91731202D01*
X136534382Y-91730975D01*
X136526006Y-91725379D01*
X136468801Y-91714000D01*
X135194199Y-91714000D01*
X135136994Y-91725379D01*
X135119520Y-91737055D01*
X135117524Y-91737186D01*
X135116413Y-91735523D01*
X135116874Y-91734109D01*
X135156197Y-91687056D01*
X135164830Y-91618340D01*
X135134867Y-91555711D01*
X135126197Y-91548200D01*
X135125543Y-91546310D01*
X135126853Y-91544798D01*
X135128618Y-91545025D01*
X135136994Y-91550621D01*
X135194199Y-91562000D01*
X136468801Y-91562000D01*
X136526006Y-91550621D01*
X136543480Y-91538945D01*
X136545476Y-91538814D01*
X136546587Y-91540477D01*
G37*
G36*
X130821587Y-91540477D02*
G01*
X130821126Y-91541891D01*
X130781803Y-91588944D01*
X130773170Y-91657660D01*
X130803133Y-91720289D01*
X130811803Y-91727800D01*
X130812457Y-91729690D01*
X130811147Y-91731202D01*
X130809382Y-91730975D01*
X130801006Y-91725379D01*
X130743801Y-91714000D01*
X129469199Y-91714000D01*
X129411994Y-91725379D01*
X129394520Y-91737055D01*
X129392524Y-91737186D01*
X129391413Y-91735523D01*
X129391874Y-91734109D01*
X129431197Y-91687056D01*
X129439830Y-91618340D01*
X129409867Y-91555711D01*
X129401197Y-91548200D01*
X129400543Y-91546310D01*
X129401853Y-91544798D01*
X129403618Y-91545025D01*
X129411994Y-91550621D01*
X129469199Y-91562000D01*
X130743801Y-91562000D01*
X130801006Y-91550621D01*
X130818480Y-91538945D01*
X130820476Y-91538814D01*
X130821587Y-91540477D01*
G37*
G36*
X136546587Y-90890477D02*
G01*
X136546126Y-90891891D01*
X136506803Y-90938944D01*
X136498170Y-91007660D01*
X136528133Y-91070289D01*
X136536803Y-91077800D01*
X136537457Y-91079690D01*
X136536147Y-91081202D01*
X136534382Y-91080975D01*
X136526006Y-91075379D01*
X136468801Y-91064000D01*
X135194199Y-91064000D01*
X135136994Y-91075379D01*
X135119520Y-91087055D01*
X135117524Y-91087186D01*
X135116413Y-91085523D01*
X135116874Y-91084109D01*
X135156197Y-91037056D01*
X135164830Y-90968340D01*
X135134867Y-90905711D01*
X135126197Y-90898200D01*
X135125543Y-90896310D01*
X135126853Y-90894798D01*
X135128618Y-90895025D01*
X135136994Y-90900621D01*
X135194199Y-90912000D01*
X136468801Y-90912000D01*
X136526006Y-90900621D01*
X136543480Y-90888945D01*
X136545476Y-90888814D01*
X136546587Y-90890477D01*
G37*
G36*
X130821587Y-90890477D02*
G01*
X130821126Y-90891891D01*
X130781803Y-90938944D01*
X130773170Y-91007660D01*
X130803133Y-91070289D01*
X130811803Y-91077800D01*
X130812457Y-91079690D01*
X130811147Y-91081202D01*
X130809382Y-91080975D01*
X130801006Y-91075379D01*
X130743801Y-91064000D01*
X129469199Y-91064000D01*
X129411994Y-91075379D01*
X129394520Y-91087055D01*
X129392524Y-91087186D01*
X129391413Y-91085523D01*
X129391874Y-91084109D01*
X129431197Y-91037056D01*
X129439830Y-90968340D01*
X129409867Y-90905711D01*
X129401197Y-90898200D01*
X129400543Y-90896310D01*
X129401853Y-90894798D01*
X129403618Y-90895025D01*
X129411994Y-90900621D01*
X129469199Y-90912000D01*
X130743801Y-90912000D01*
X130801006Y-90900621D01*
X130818480Y-90888945D01*
X130820476Y-90888814D01*
X130821587Y-90890477D01*
G37*
G36*
X136546587Y-90240477D02*
G01*
X136546126Y-90241891D01*
X136506803Y-90288944D01*
X136498170Y-90357660D01*
X136528133Y-90420289D01*
X136536803Y-90427800D01*
X136537457Y-90429690D01*
X136536147Y-90431202D01*
X136534382Y-90430975D01*
X136526006Y-90425379D01*
X136468801Y-90414000D01*
X135194199Y-90414000D01*
X135136994Y-90425379D01*
X135119520Y-90437055D01*
X135117524Y-90437186D01*
X135116413Y-90435523D01*
X135116874Y-90434109D01*
X135156197Y-90387056D01*
X135164830Y-90318340D01*
X135134867Y-90255711D01*
X135126197Y-90248200D01*
X135125543Y-90246310D01*
X135126853Y-90244798D01*
X135128618Y-90245025D01*
X135136994Y-90250621D01*
X135194199Y-90262000D01*
X136468801Y-90262000D01*
X136526006Y-90250621D01*
X136543480Y-90238945D01*
X136545476Y-90238814D01*
X136546587Y-90240477D01*
G37*
G36*
X130821587Y-90240477D02*
G01*
X130821126Y-90241891D01*
X130781803Y-90288944D01*
X130773170Y-90357660D01*
X130803133Y-90420289D01*
X130811803Y-90427800D01*
X130812457Y-90429690D01*
X130811147Y-90431202D01*
X130809382Y-90430975D01*
X130801006Y-90425379D01*
X130743801Y-90414000D01*
X129469199Y-90414000D01*
X129411994Y-90425379D01*
X129394520Y-90437055D01*
X129392524Y-90437186D01*
X129391413Y-90435523D01*
X129391874Y-90434109D01*
X129431197Y-90387056D01*
X129439830Y-90318340D01*
X129409867Y-90255711D01*
X129401197Y-90248200D01*
X129400543Y-90246310D01*
X129401853Y-90244798D01*
X129403618Y-90245025D01*
X129411994Y-90250621D01*
X129469199Y-90262000D01*
X130743801Y-90262000D01*
X130801006Y-90250621D01*
X130818480Y-90238945D01*
X130820476Y-90238814D01*
X130821587Y-90240477D01*
G37*
G36*
X136546587Y-89590477D02*
G01*
X136546126Y-89591891D01*
X136506803Y-89638944D01*
X136498170Y-89707660D01*
X136528133Y-89770289D01*
X136536803Y-89777800D01*
X136537457Y-89779690D01*
X136536147Y-89781202D01*
X136534382Y-89780975D01*
X136526006Y-89775379D01*
X136468801Y-89764000D01*
X135194199Y-89764000D01*
X135136994Y-89775379D01*
X135119520Y-89787055D01*
X135117524Y-89787186D01*
X135116413Y-89785523D01*
X135116874Y-89784109D01*
X135156197Y-89737056D01*
X135164830Y-89668340D01*
X135134867Y-89605711D01*
X135126197Y-89598200D01*
X135125543Y-89596310D01*
X135126853Y-89594798D01*
X135128618Y-89595025D01*
X135136994Y-89600621D01*
X135194199Y-89612000D01*
X136468801Y-89612000D01*
X136526006Y-89600621D01*
X136543480Y-89588945D01*
X136545476Y-89588814D01*
X136546587Y-89590477D01*
G37*
G36*
X130821587Y-89590477D02*
G01*
X130821126Y-89591891D01*
X130781803Y-89638944D01*
X130773170Y-89707660D01*
X130803133Y-89770289D01*
X130811803Y-89777800D01*
X130812457Y-89779690D01*
X130811147Y-89781202D01*
X130809382Y-89780975D01*
X130801006Y-89775379D01*
X130743801Y-89764000D01*
X129469199Y-89764000D01*
X129411994Y-89775379D01*
X129394520Y-89787055D01*
X129392524Y-89787186D01*
X129391413Y-89785523D01*
X129391874Y-89784109D01*
X129431197Y-89737056D01*
X129439830Y-89668340D01*
X129409867Y-89605711D01*
X129401197Y-89598200D01*
X129400543Y-89596310D01*
X129401853Y-89594798D01*
X129403618Y-89595025D01*
X129411994Y-89600621D01*
X129469199Y-89612000D01*
X130743801Y-89612000D01*
X130801006Y-89600621D01*
X130818480Y-89588945D01*
X130820476Y-89588814D01*
X130821587Y-89590477D01*
G37*
M02*
