G04 #@! TF.GenerationSoftware,KiCad,Pcbnew,(6.0.2)*
G04 #@! TF.CreationDate,2022-02-21T10:35:24-06:00*
G04 #@! TF.ProjectId,20-ELC-2-01-R2(Appetizer),32302d45-4c43-42d3-922d-30312d523228,v1*
G04 #@! TF.SameCoordinates,Original*
G04 #@! TF.FileFunction,Paste,Top*
G04 #@! TF.FilePolarity,Positive*
%FSLAX46Y46*%
G04 Gerber Fmt 4.6, Leading zero omitted, Abs format (unit mm)*
G04 Created by KiCad (PCBNEW (6.0.2)) date 2022-02-21 10:35:24*
%MOMM*%
%LPD*%
G01*
G04 APERTURE LIST*
G04 Aperture macros list*
%AMRoundRect*
0 Rectangle with rounded corners*
0 $1 Rounding radius*
0 $2 $3 $4 $5 $6 $7 $8 $9 X,Y pos of 4 corners*
0 Add a 4 corners polygon primitive as box body*
4,1,4,$2,$3,$4,$5,$6,$7,$8,$9,$2,$3,0*
0 Add four circle primitives for the rounded corners*
1,1,$1+$1,$2,$3*
1,1,$1+$1,$4,$5*
1,1,$1+$1,$6,$7*
1,1,$1+$1,$8,$9*
0 Add four rect primitives between the rounded corners*
20,1,$1+$1,$2,$3,$4,$5,0*
20,1,$1+$1,$4,$5,$6,$7,0*
20,1,$1+$1,$6,$7,$8,$9,0*
20,1,$1+$1,$8,$9,$2,$3,0*%
G04 Aperture macros list end*
%ADD10RoundRect,0.237500X-0.237500X0.250000X-0.237500X-0.250000X0.237500X-0.250000X0.237500X0.250000X0*%
%ADD11R,1.600000X1.300000*%
%ADD12R,1.600000X2.000000*%
%ADD13RoundRect,0.237500X-0.250000X-0.237500X0.250000X-0.237500X0.250000X0.237500X-0.250000X0.237500X0*%
%ADD14RoundRect,0.237500X0.250000X0.237500X-0.250000X0.237500X-0.250000X-0.237500X0.250000X-0.237500X0*%
%ADD15RoundRect,0.250000X0.462500X0.625000X-0.462500X0.625000X-0.462500X-0.625000X0.462500X-0.625000X0*%
%ADD16RoundRect,0.237500X0.300000X0.237500X-0.300000X0.237500X-0.300000X-0.237500X0.300000X-0.237500X0*%
%ADD17R,0.900000X0.800000*%
%ADD18RoundRect,0.237500X0.237500X-0.300000X0.237500X0.300000X-0.237500X0.300000X-0.237500X-0.300000X0*%
%ADD19R,0.800000X0.900000*%
%ADD20RoundRect,0.237500X-0.300000X-0.237500X0.300000X-0.237500X0.300000X0.237500X-0.300000X0.237500X0*%
%ADD21R,1.900000X0.800000*%
%ADD22RoundRect,0.150000X0.825000X0.150000X-0.825000X0.150000X-0.825000X-0.150000X0.825000X-0.150000X0*%
%ADD23RoundRect,0.150000X-0.825000X-0.150000X0.825000X-0.150000X0.825000X0.150000X-0.825000X0.150000X0*%
%ADD24RoundRect,0.150000X-0.150000X0.825000X-0.150000X-0.825000X0.150000X-0.825000X0.150000X0.825000X0*%
%ADD25R,1.700000X1.000000*%
%ADD26R,0.700000X0.500000*%
%ADD27RoundRect,0.100000X-0.637500X-0.100000X0.637500X-0.100000X0.637500X0.100000X-0.637500X0.100000X0*%
G04 APERTURE END LIST*
D10*
X129300000Y-99512500D03*
X129300000Y-101337500D03*
D11*
X131561500Y-73830500D03*
D12*
X128661500Y-72580500D03*
D11*
X131561500Y-71330500D03*
D13*
X152605100Y-63855600D03*
X154430100Y-63855600D03*
D11*
X125296000Y-109367000D03*
D12*
X128196000Y-110617000D03*
D11*
X125296000Y-111867000D03*
X125475000Y-102125000D03*
D12*
X122575000Y-100875000D03*
D11*
X125475000Y-99625000D03*
X124132000Y-82403000D03*
D12*
X121232000Y-81153000D03*
D11*
X124132000Y-79903000D03*
D10*
X141795500Y-78526000D03*
X141795500Y-80351000D03*
D11*
X155729600Y-73741600D03*
D12*
X152829600Y-72491600D03*
D11*
X155729600Y-71241600D03*
X138504000Y-58389200D03*
D12*
X141404000Y-59639200D03*
D11*
X138504000Y-60889200D03*
X154561200Y-60889200D03*
D12*
X151661200Y-59639200D03*
D11*
X154561200Y-58389200D03*
X114120000Y-71203500D03*
D12*
X117020000Y-72453500D03*
D11*
X114120000Y-73703500D03*
D14*
X154430100Y-66040000D03*
X152605100Y-66040000D03*
X119530500Y-95186500D03*
X117705500Y-95186500D03*
X119530500Y-87884000D03*
X117705500Y-87884000D03*
X130198500Y-66192400D03*
X128373500Y-66192400D03*
X117041300Y-65087500D03*
X115216300Y-65087500D03*
D15*
X116987500Y-98000000D03*
X114012500Y-98000000D03*
D16*
X119480500Y-90360500D03*
X117755500Y-90360500D03*
D17*
X156295600Y-93964800D03*
X156295600Y-92064800D03*
X154295600Y-93014800D03*
D11*
X131650400Y-60838400D03*
D12*
X128750400Y-59588400D03*
D11*
X131650400Y-58338400D03*
D18*
X141351000Y-95350500D03*
X141351000Y-93625500D03*
D16*
X141832500Y-66294000D03*
X140107500Y-66294000D03*
X116940500Y-67157600D03*
X115215500Y-67157600D03*
D18*
X143002000Y-105002500D03*
X143002000Y-103277500D03*
D19*
X156245600Y-87442800D03*
X154345600Y-87442800D03*
X155295600Y-89442800D03*
D16*
X119480500Y-92837000D03*
X117755500Y-92837000D03*
D18*
X141795500Y-84238000D03*
X141795500Y-82513000D03*
D16*
X132587500Y-111650000D03*
X130862500Y-111650000D03*
D20*
X152604300Y-68326000D03*
X154329300Y-68326000D03*
D14*
X146137000Y-97853500D03*
X144312000Y-97853500D03*
D21*
X149074000Y-102296000D03*
X149074000Y-100396000D03*
X146074000Y-101346000D03*
D22*
X149096500Y-95123000D03*
X149096500Y-93853000D03*
X149096500Y-92583000D03*
X149096500Y-91313000D03*
X149096500Y-90043000D03*
X149096500Y-88773000D03*
X149096500Y-87503000D03*
X144146500Y-87503000D03*
X144146500Y-88773000D03*
X144146500Y-90043000D03*
X144146500Y-91313000D03*
X144146500Y-92583000D03*
X144146500Y-93853000D03*
X144146500Y-95123000D03*
D23*
X144540200Y-63804800D03*
X144540200Y-65074800D03*
X144540200Y-66344800D03*
X144540200Y-67614800D03*
X144540200Y-68884800D03*
X144540200Y-70154800D03*
X144540200Y-71424800D03*
X149490200Y-71424800D03*
X149490200Y-70154800D03*
X149490200Y-68884800D03*
X149490200Y-67614800D03*
X149490200Y-66344800D03*
X149490200Y-65074800D03*
X149490200Y-63804800D03*
D24*
X140779500Y-100014000D03*
X139509500Y-100014000D03*
X138239500Y-100014000D03*
X136969500Y-100014000D03*
X135699500Y-100014000D03*
X134429500Y-100014000D03*
X133159500Y-100014000D03*
X131889500Y-100014000D03*
X131889500Y-104964000D03*
X133159500Y-104964000D03*
X134429500Y-104964000D03*
X135699500Y-104964000D03*
X136969500Y-104964000D03*
X138239500Y-104964000D03*
X139509500Y-104964000D03*
X140779500Y-104964000D03*
X139573000Y-79313000D03*
X138303000Y-79313000D03*
X137033000Y-79313000D03*
X135763000Y-79313000D03*
X134493000Y-79313000D03*
X133223000Y-79313000D03*
X131953000Y-79313000D03*
X131953000Y-84263000D03*
X133223000Y-84263000D03*
X134493000Y-84263000D03*
X135763000Y-84263000D03*
X137033000Y-84263000D03*
X138303000Y-84263000D03*
X139573000Y-84263000D03*
D18*
X138239500Y-89254500D03*
X138239500Y-87529500D03*
D25*
X154076000Y-104135000D03*
X160376000Y-104135000D03*
X160376000Y-100335000D03*
X154076000Y-100335000D03*
D11*
X138250000Y-71292400D03*
D12*
X141150000Y-72542400D03*
D11*
X138250000Y-73792400D03*
D16*
X132625000Y-115760500D03*
X130900000Y-115760500D03*
D13*
X130837500Y-109900000D03*
X132662500Y-109900000D03*
D14*
X145057500Y-109982000D03*
X143232500Y-109982000D03*
D11*
X125359500Y-119336500D03*
D12*
X128259500Y-120586500D03*
D11*
X125359500Y-121836500D03*
D26*
X123571000Y-90678000D03*
X123571000Y-91567000D03*
X123571000Y-92583000D03*
X125887000Y-92583000D03*
X125884000Y-91567000D03*
X125884000Y-90678000D03*
D20*
X128360000Y-68516500D03*
X130085000Y-68516500D03*
D11*
X146357000Y-121836500D03*
D12*
X143457000Y-120586500D03*
D11*
X146357000Y-119336500D03*
D20*
X146711500Y-104521000D03*
X148436500Y-104521000D03*
D27*
X130106500Y-89363000D03*
X130106500Y-90013000D03*
X130106500Y-90663000D03*
X130106500Y-91313000D03*
X130106500Y-91963000D03*
X130106500Y-92613000D03*
X130106500Y-93263000D03*
X135831500Y-93263000D03*
X135831500Y-92613000D03*
X135831500Y-91963000D03*
X135831500Y-91313000D03*
X135831500Y-90663000D03*
X135831500Y-90013000D03*
X135831500Y-89363000D03*
D23*
X135383500Y-108712000D03*
X135383500Y-109982000D03*
X135383500Y-111252000D03*
X135383500Y-112522000D03*
X135383500Y-113792000D03*
X135383500Y-115062000D03*
X135383500Y-116332000D03*
X140333500Y-116332000D03*
X140333500Y-115062000D03*
X140333500Y-113792000D03*
X140333500Y-112522000D03*
X140333500Y-111252000D03*
X140333500Y-109982000D03*
X140333500Y-108712000D03*
D13*
X140108300Y-64414400D03*
X141933300Y-64414400D03*
D23*
X120207000Y-63817500D03*
X120207000Y-65087500D03*
X120207000Y-66357500D03*
X120207000Y-67627500D03*
X120207000Y-68897500D03*
X120207000Y-70167500D03*
X120207000Y-71437500D03*
X125157000Y-71437500D03*
X125157000Y-70167500D03*
X125157000Y-68897500D03*
X125157000Y-67627500D03*
X125157000Y-66357500D03*
X125157000Y-65087500D03*
X125157000Y-63817500D03*
D14*
X130198500Y-63944500D03*
X128373500Y-63944500D03*
D13*
X130850000Y-117729000D03*
X132675000Y-117729000D03*
X154662500Y-81280000D03*
X156487500Y-81280000D03*
X154662500Y-78740000D03*
X156487500Y-78740000D03*
M02*
