G04 #@! TF.GenerationSoftware,KiCad,Pcbnew,(6.0.2)*
G04 #@! TF.CreationDate,2022-02-21T10:35:24-06:00*
G04 #@! TF.ProjectId,20-ELC-2-01-R2(Appetizer),32302d45-4c43-42d3-922d-30312d523228,v1*
G04 #@! TF.SameCoordinates,Original*
G04 #@! TF.FileFunction,Legend,Top*
G04 #@! TF.FilePolarity,Positive*
%FSLAX46Y46*%
G04 Gerber Fmt 4.6, Leading zero omitted, Abs format (unit mm)*
G04 Created by KiCad (PCBNEW (6.0.2)) date 2022-02-21 10:35:24*
%MOMM*%
%LPD*%
G01*
G04 APERTURE LIST*
G04 Aperture macros list*
%AMRoundRect*
0 Rectangle with rounded corners*
0 $1 Rounding radius*
0 $2 $3 $4 $5 $6 $7 $8 $9 X,Y pos of 4 corners*
0 Add a 4 corners polygon primitive as box body*
4,1,4,$2,$3,$4,$5,$6,$7,$8,$9,$2,$3,0*
0 Add four circle primitives for the rounded corners*
1,1,$1+$1,$2,$3*
1,1,$1+$1,$4,$5*
1,1,$1+$1,$6,$7*
1,1,$1+$1,$8,$9*
0 Add four rect primitives between the rounded corners*
20,1,$1+$1,$2,$3,$4,$5,0*
20,1,$1+$1,$4,$5,$6,$7,0*
20,1,$1+$1,$6,$7,$8,$9,0*
20,1,$1+$1,$8,$9,$2,$3,0*%
G04 Aperture macros list end*
%ADD10C,0.050000*%
%ADD11C,0.150000*%
%ADD12C,0.120000*%
%ADD13C,1.102000*%
%ADD14RoundRect,0.288500X-0.237500X0.250000X-0.237500X-0.250000X0.237500X-0.250000X0.237500X0.250000X0*%
%ADD15RoundRect,0.051000X-0.800000X0.650000X-0.800000X-0.650000X0.800000X-0.650000X0.800000X0.650000X0*%
%ADD16RoundRect,0.051000X-0.800000X1.000000X-0.800000X-1.000000X0.800000X-1.000000X0.800000X1.000000X0*%
%ADD17RoundRect,0.288500X-0.250000X-0.237500X0.250000X-0.237500X0.250000X0.237500X-0.250000X0.237500X0*%
%ADD18RoundRect,0.051000X0.800000X-0.650000X0.800000X0.650000X-0.800000X0.650000X-0.800000X-0.650000X0*%
%ADD19RoundRect,0.051000X0.800000X-1.000000X0.800000X1.000000X-0.800000X1.000000X-0.800000X-1.000000X0*%
%ADD20RoundRect,0.288500X0.250000X0.237500X-0.250000X0.237500X-0.250000X-0.237500X0.250000X-0.237500X0*%
%ADD21RoundRect,0.301000X0.462500X0.625000X-0.462500X0.625000X-0.462500X-0.625000X0.462500X-0.625000X0*%
%ADD22RoundRect,0.288500X0.300000X0.237500X-0.300000X0.237500X-0.300000X-0.237500X0.300000X-0.237500X0*%
%ADD23RoundRect,0.051000X0.450000X0.400000X-0.450000X0.400000X-0.450000X-0.400000X0.450000X-0.400000X0*%
%ADD24RoundRect,0.288500X0.237500X-0.300000X0.237500X0.300000X-0.237500X0.300000X-0.237500X-0.300000X0*%
%ADD25C,4.202000*%
%ADD26C,7.502000*%
%ADD27RoundRect,0.051000X-0.400000X0.450000X-0.400000X-0.450000X0.400000X-0.450000X0.400000X0.450000X0*%
%ADD28RoundRect,0.288500X-0.300000X-0.237500X0.300000X-0.237500X0.300000X0.237500X-0.300000X0.237500X0*%
%ADD29RoundRect,0.051000X0.950000X0.400000X-0.950000X0.400000X-0.950000X-0.400000X0.950000X-0.400000X0*%
%ADD30RoundRect,0.201000X0.825000X0.150000X-0.825000X0.150000X-0.825000X-0.150000X0.825000X-0.150000X0*%
%ADD31RoundRect,0.201000X-0.825000X-0.150000X0.825000X-0.150000X0.825000X0.150000X-0.825000X0.150000X0*%
%ADD32RoundRect,0.201000X-0.150000X0.825000X-0.150000X-0.825000X0.150000X-0.825000X0.150000X0.825000X0*%
%ADD33RoundRect,0.051000X-0.850000X-0.850000X0.850000X-0.850000X0.850000X0.850000X-0.850000X0.850000X0*%
%ADD34O,1.802000X1.802000*%
%ADD35RoundRect,0.051000X0.850000X0.500000X-0.850000X0.500000X-0.850000X-0.500000X0.850000X-0.500000X0*%
%ADD36RoundRect,0.051000X-0.350000X0.250000X-0.350000X-0.250000X0.350000X-0.250000X0.350000X0.250000X0*%
%ADD37RoundRect,0.051000X0.350000X-0.250000X0.350000X0.250000X-0.350000X0.250000X-0.350000X-0.250000X0*%
%ADD38RoundRect,0.151000X-0.637500X-0.100000X0.637500X-0.100000X0.637500X0.100000X-0.637500X0.100000X0*%
G04 APERTURE END LIST*
D10*
X164693600Y-53238400D02*
X135649000Y-53238400D01*
X108712000Y-75590400D02*
X134506000Y-75565000D01*
X164693600Y-75568000D02*
X164693600Y-53238400D01*
X120497600Y-124396500D02*
X149961600Y-124396500D01*
X135649000Y-53238400D02*
X135649000Y-75568000D01*
X113030000Y-77470000D02*
X113030000Y-106680000D01*
X134506000Y-75565000D02*
X134518400Y-53289200D01*
X135649000Y-75568000D02*
X164693600Y-75568000D01*
X149961600Y-124396500D02*
X149961600Y-107569000D01*
X134506000Y-53289200D02*
X108712000Y-53289200D01*
X108712000Y-53289200D02*
X108712000Y-75590400D01*
X120497600Y-107569000D02*
X120497600Y-124396500D01*
X159194500Y-106680000D02*
X159194500Y-77470000D01*
X159194500Y-77470000D02*
X113030000Y-77470000D01*
X149961600Y-107569000D02*
X120497600Y-107569000D01*
X113030000Y-106680000D02*
X159194500Y-106680000D01*
D11*
X119844419Y-54081371D02*
X119987276Y-54128990D01*
X120034895Y-54176609D01*
X120082514Y-54271847D01*
X120082514Y-54414704D01*
X120034895Y-54509942D01*
X119987276Y-54557561D01*
X119892038Y-54605180D01*
X119511085Y-54605180D01*
X119511085Y-53605180D01*
X119844419Y-53605180D01*
X119939657Y-53652800D01*
X119987276Y-53700419D01*
X120034895Y-53795657D01*
X120034895Y-53890895D01*
X119987276Y-53986133D01*
X119939657Y-54033752D01*
X119844419Y-54081371D01*
X119511085Y-54081371D01*
X120511085Y-54605180D02*
X120511085Y-53938514D01*
X120511085Y-54128990D02*
X120558704Y-54033752D01*
X120606323Y-53986133D01*
X120701561Y-53938514D01*
X120796800Y-53938514D01*
X121558704Y-54605180D02*
X121558704Y-54081371D01*
X121511085Y-53986133D01*
X121415847Y-53938514D01*
X121225371Y-53938514D01*
X121130133Y-53986133D01*
X121558704Y-54557561D02*
X121463466Y-54605180D01*
X121225371Y-54605180D01*
X121130133Y-54557561D01*
X121082514Y-54462323D01*
X121082514Y-54367085D01*
X121130133Y-54271847D01*
X121225371Y-54224228D01*
X121463466Y-54224228D01*
X121558704Y-54176609D01*
X122034895Y-54605180D02*
X122034895Y-53605180D01*
X122130133Y-54224228D02*
X122415847Y-54605180D01*
X122415847Y-53938514D02*
X122034895Y-54319466D01*
X123225371Y-54557561D02*
X123130133Y-54605180D01*
X122939657Y-54605180D01*
X122844419Y-54557561D01*
X122796800Y-54462323D01*
X122796800Y-54081371D01*
X122844419Y-53986133D01*
X122939657Y-53938514D01*
X123130133Y-53938514D01*
X123225371Y-53986133D01*
X123272990Y-54081371D01*
X123272990Y-54176609D01*
X122796800Y-54271847D01*
X124987276Y-54605180D02*
X124415847Y-54605180D01*
X124701561Y-54605180D02*
X124701561Y-53605180D01*
X124606323Y-53748038D01*
X124511085Y-53843276D01*
X124415847Y-53890895D01*
X126749180Y-54605180D02*
X126415847Y-54128990D01*
X126177752Y-54605180D02*
X126177752Y-53605180D01*
X126558704Y-53605180D01*
X126653942Y-53652800D01*
X126701561Y-53700419D01*
X126749180Y-53795657D01*
X126749180Y-53938514D01*
X126701561Y-54033752D01*
X126653942Y-54081371D01*
X126558704Y-54128990D01*
X126177752Y-54128990D01*
X127606323Y-54605180D02*
X127606323Y-54081371D01*
X127558704Y-53986133D01*
X127463466Y-53938514D01*
X127272990Y-53938514D01*
X127177752Y-53986133D01*
X127606323Y-54557561D02*
X127511085Y-54605180D01*
X127272990Y-54605180D01*
X127177752Y-54557561D01*
X127130133Y-54462323D01*
X127130133Y-54367085D01*
X127177752Y-54271847D01*
X127272990Y-54224228D01*
X127511085Y-54224228D01*
X127606323Y-54176609D01*
X127987276Y-53938514D02*
X128177752Y-54605180D01*
X128368228Y-54128990D01*
X128558704Y-54605180D01*
X128749180Y-53938514D01*
X129844419Y-54557561D02*
X129987276Y-54605180D01*
X130225371Y-54605180D01*
X130320609Y-54557561D01*
X130368228Y-54509942D01*
X130415847Y-54414704D01*
X130415847Y-54319466D01*
X130368228Y-54224228D01*
X130320609Y-54176609D01*
X130225371Y-54128990D01*
X130034895Y-54081371D01*
X129939657Y-54033752D01*
X129892038Y-53986133D01*
X129844419Y-53890895D01*
X129844419Y-53795657D01*
X129892038Y-53700419D01*
X129939657Y-53652800D01*
X130034895Y-53605180D01*
X130272990Y-53605180D01*
X130415847Y-53652800D01*
X130844419Y-54605180D02*
X130844419Y-53938514D01*
X130844419Y-53605180D02*
X130796800Y-53652800D01*
X130844419Y-53700419D01*
X130892038Y-53652800D01*
X130844419Y-53605180D01*
X130844419Y-53700419D01*
X131749180Y-53938514D02*
X131749180Y-54748038D01*
X131701561Y-54843276D01*
X131653942Y-54890895D01*
X131558704Y-54938514D01*
X131415847Y-54938514D01*
X131320609Y-54890895D01*
X131749180Y-54557561D02*
X131653942Y-54605180D01*
X131463466Y-54605180D01*
X131368228Y-54557561D01*
X131320609Y-54509942D01*
X131272990Y-54414704D01*
X131272990Y-54128990D01*
X131320609Y-54033752D01*
X131368228Y-53986133D01*
X131463466Y-53938514D01*
X131653942Y-53938514D01*
X131749180Y-53986133D01*
X132225371Y-53938514D02*
X132225371Y-54605180D01*
X132225371Y-54033752D02*
X132272990Y-53986133D01*
X132368228Y-53938514D01*
X132511085Y-53938514D01*
X132606323Y-53986133D01*
X132653942Y-54081371D01*
X132653942Y-54605180D01*
X133558704Y-54605180D02*
X133558704Y-54081371D01*
X133511085Y-53986133D01*
X133415847Y-53938514D01*
X133225371Y-53938514D01*
X133130133Y-53986133D01*
X133558704Y-54557561D02*
X133463466Y-54605180D01*
X133225371Y-54605180D01*
X133130133Y-54557561D01*
X133082514Y-54462323D01*
X133082514Y-54367085D01*
X133130133Y-54271847D01*
X133225371Y-54224228D01*
X133463466Y-54224228D01*
X133558704Y-54176609D01*
X134177752Y-54605180D02*
X134082514Y-54557561D01*
X134034895Y-54462323D01*
X134034895Y-53605180D01*
X121289771Y-122827180D02*
X121337390Y-122684323D01*
X121385009Y-122636704D01*
X121480247Y-122589085D01*
X121623104Y-122589085D01*
X121718342Y-122636704D01*
X121765961Y-122684323D01*
X121813580Y-122779561D01*
X121813580Y-123160514D01*
X120813580Y-123160514D01*
X120813580Y-122827180D01*
X120861200Y-122731942D01*
X120908819Y-122684323D01*
X121004057Y-122636704D01*
X121099295Y-122636704D01*
X121194533Y-122684323D01*
X121242152Y-122731942D01*
X121289771Y-122827180D01*
X121289771Y-123160514D01*
X121813580Y-122160514D02*
X121146914Y-122160514D01*
X121337390Y-122160514D02*
X121242152Y-122112895D01*
X121194533Y-122065276D01*
X121146914Y-121970038D01*
X121146914Y-121874800D01*
X121813580Y-121112895D02*
X121289771Y-121112895D01*
X121194533Y-121160514D01*
X121146914Y-121255752D01*
X121146914Y-121446228D01*
X121194533Y-121541466D01*
X121765961Y-121112895D02*
X121813580Y-121208133D01*
X121813580Y-121446228D01*
X121765961Y-121541466D01*
X121670723Y-121589085D01*
X121575485Y-121589085D01*
X121480247Y-121541466D01*
X121432628Y-121446228D01*
X121432628Y-121208133D01*
X121385009Y-121112895D01*
X121813580Y-120636704D02*
X120813580Y-120636704D01*
X121432628Y-120541466D02*
X121813580Y-120255752D01*
X121146914Y-120255752D02*
X121527866Y-120636704D01*
X121765961Y-119446228D02*
X121813580Y-119541466D01*
X121813580Y-119731942D01*
X121765961Y-119827180D01*
X121670723Y-119874800D01*
X121289771Y-119874800D01*
X121194533Y-119827180D01*
X121146914Y-119731942D01*
X121146914Y-119541466D01*
X121194533Y-119446228D01*
X121289771Y-119398609D01*
X121385009Y-119398609D01*
X121480247Y-119874800D01*
X120908819Y-118255752D02*
X120861200Y-118208133D01*
X120813580Y-118112895D01*
X120813580Y-117874800D01*
X120861200Y-117779561D01*
X120908819Y-117731942D01*
X121004057Y-117684323D01*
X121099295Y-117684323D01*
X121242152Y-117731942D01*
X121813580Y-118303371D01*
X121813580Y-117684323D01*
X121813580Y-115922419D02*
X121337390Y-116255752D01*
X121813580Y-116493847D02*
X120813580Y-116493847D01*
X120813580Y-116112895D01*
X120861200Y-116017657D01*
X120908819Y-115970038D01*
X121004057Y-115922419D01*
X121146914Y-115922419D01*
X121242152Y-115970038D01*
X121289771Y-116017657D01*
X121337390Y-116112895D01*
X121337390Y-116493847D01*
X121813580Y-115065276D02*
X121289771Y-115065276D01*
X121194533Y-115112895D01*
X121146914Y-115208133D01*
X121146914Y-115398609D01*
X121194533Y-115493847D01*
X121765961Y-115065276D02*
X121813580Y-115160514D01*
X121813580Y-115398609D01*
X121765961Y-115493847D01*
X121670723Y-115541466D01*
X121575485Y-115541466D01*
X121480247Y-115493847D01*
X121432628Y-115398609D01*
X121432628Y-115160514D01*
X121385009Y-115065276D01*
X121146914Y-114684323D02*
X121813580Y-114493847D01*
X121337390Y-114303371D01*
X121813580Y-114112895D01*
X121146914Y-113922419D01*
X121765961Y-112827180D02*
X121813580Y-112684323D01*
X121813580Y-112446228D01*
X121765961Y-112350990D01*
X121718342Y-112303371D01*
X121623104Y-112255752D01*
X121527866Y-112255752D01*
X121432628Y-112303371D01*
X121385009Y-112350990D01*
X121337390Y-112446228D01*
X121289771Y-112636704D01*
X121242152Y-112731942D01*
X121194533Y-112779561D01*
X121099295Y-112827180D01*
X121004057Y-112827180D01*
X120908819Y-112779561D01*
X120861200Y-112731942D01*
X120813580Y-112636704D01*
X120813580Y-112398609D01*
X120861200Y-112255752D01*
X121813580Y-111827180D02*
X121146914Y-111827180D01*
X120813580Y-111827180D02*
X120861200Y-111874800D01*
X120908819Y-111827180D01*
X120861200Y-111779561D01*
X120813580Y-111827180D01*
X120908819Y-111827180D01*
X121146914Y-110922419D02*
X121956438Y-110922419D01*
X122051676Y-110970038D01*
X122099295Y-111017657D01*
X122146914Y-111112895D01*
X122146914Y-111255752D01*
X122099295Y-111350990D01*
X121765961Y-110922419D02*
X121813580Y-111017657D01*
X121813580Y-111208133D01*
X121765961Y-111303371D01*
X121718342Y-111350990D01*
X121623104Y-111398609D01*
X121337390Y-111398609D01*
X121242152Y-111350990D01*
X121194533Y-111303371D01*
X121146914Y-111208133D01*
X121146914Y-111017657D01*
X121194533Y-110922419D01*
X121146914Y-110446228D02*
X121813580Y-110446228D01*
X121242152Y-110446228D02*
X121194533Y-110398609D01*
X121146914Y-110303371D01*
X121146914Y-110160514D01*
X121194533Y-110065276D01*
X121289771Y-110017657D01*
X121813580Y-110017657D01*
X121813580Y-109112895D02*
X121289771Y-109112895D01*
X121194533Y-109160514D01*
X121146914Y-109255752D01*
X121146914Y-109446228D01*
X121194533Y-109541466D01*
X121765961Y-109112895D02*
X121813580Y-109208133D01*
X121813580Y-109446228D01*
X121765961Y-109541466D01*
X121670723Y-109589085D01*
X121575485Y-109589085D01*
X121480247Y-109541466D01*
X121432628Y-109446228D01*
X121432628Y-109208133D01*
X121385009Y-109112895D01*
X121813580Y-108493847D02*
X121765961Y-108589085D01*
X121670723Y-108636704D01*
X120813580Y-108636704D01*
X136539980Y-54132171D02*
X136682838Y-54179790D01*
X136730457Y-54227409D01*
X136778076Y-54322647D01*
X136778076Y-54465504D01*
X136730457Y-54560742D01*
X136682838Y-54608361D01*
X136587600Y-54655980D01*
X136206647Y-54655980D01*
X136206647Y-53655980D01*
X136539980Y-53655980D01*
X136635219Y-53703600D01*
X136682838Y-53751219D01*
X136730457Y-53846457D01*
X136730457Y-53941695D01*
X136682838Y-54036933D01*
X136635219Y-54084552D01*
X136539980Y-54132171D01*
X136206647Y-54132171D01*
X137206647Y-54655980D02*
X137206647Y-53655980D01*
X137539980Y-54370266D01*
X137873314Y-53655980D01*
X137873314Y-54655980D01*
X138301885Y-54608361D02*
X138444742Y-54655980D01*
X138682838Y-54655980D01*
X138778076Y-54608361D01*
X138825695Y-54560742D01*
X138873314Y-54465504D01*
X138873314Y-54370266D01*
X138825695Y-54275028D01*
X138778076Y-54227409D01*
X138682838Y-54179790D01*
X138492361Y-54132171D01*
X138397123Y-54084552D01*
X138349504Y-54036933D01*
X138301885Y-53941695D01*
X138301885Y-53846457D01*
X138349504Y-53751219D01*
X138397123Y-53703600D01*
X138492361Y-53655980D01*
X138730457Y-53655980D01*
X138873314Y-53703600D01*
X140635219Y-54655980D02*
X140301885Y-54179790D01*
X140063790Y-54655980D02*
X140063790Y-53655980D01*
X140444742Y-53655980D01*
X140539980Y-53703600D01*
X140587600Y-53751219D01*
X140635219Y-53846457D01*
X140635219Y-53989314D01*
X140587600Y-54084552D01*
X140539980Y-54132171D01*
X140444742Y-54179790D01*
X140063790Y-54179790D01*
X141492361Y-54655980D02*
X141492361Y-54132171D01*
X141444742Y-54036933D01*
X141349504Y-53989314D01*
X141159028Y-53989314D01*
X141063790Y-54036933D01*
X141492361Y-54608361D02*
X141397123Y-54655980D01*
X141159028Y-54655980D01*
X141063790Y-54608361D01*
X141016171Y-54513123D01*
X141016171Y-54417885D01*
X141063790Y-54322647D01*
X141159028Y-54275028D01*
X141397123Y-54275028D01*
X141492361Y-54227409D01*
X141873314Y-53989314D02*
X142063790Y-54655980D01*
X142254266Y-54179790D01*
X142444742Y-54655980D01*
X142635219Y-53989314D01*
X143730457Y-54608361D02*
X143873314Y-54655980D01*
X144111409Y-54655980D01*
X144206647Y-54608361D01*
X144254266Y-54560742D01*
X144301885Y-54465504D01*
X144301885Y-54370266D01*
X144254266Y-54275028D01*
X144206647Y-54227409D01*
X144111409Y-54179790D01*
X143920933Y-54132171D01*
X143825695Y-54084552D01*
X143778076Y-54036933D01*
X143730457Y-53941695D01*
X143730457Y-53846457D01*
X143778076Y-53751219D01*
X143825695Y-53703600D01*
X143920933Y-53655980D01*
X144159028Y-53655980D01*
X144301885Y-53703600D01*
X144730457Y-54655980D02*
X144730457Y-53989314D01*
X144730457Y-53655980D02*
X144682838Y-53703600D01*
X144730457Y-53751219D01*
X144778076Y-53703600D01*
X144730457Y-53655980D01*
X144730457Y-53751219D01*
X145635219Y-53989314D02*
X145635219Y-54798838D01*
X145587600Y-54894076D01*
X145539980Y-54941695D01*
X145444742Y-54989314D01*
X145301885Y-54989314D01*
X145206647Y-54941695D01*
X145635219Y-54608361D02*
X145539980Y-54655980D01*
X145349504Y-54655980D01*
X145254266Y-54608361D01*
X145206647Y-54560742D01*
X145159028Y-54465504D01*
X145159028Y-54179790D01*
X145206647Y-54084552D01*
X145254266Y-54036933D01*
X145349504Y-53989314D01*
X145539980Y-53989314D01*
X145635219Y-54036933D01*
X146111409Y-53989314D02*
X146111409Y-54655980D01*
X146111409Y-54084552D02*
X146159028Y-54036933D01*
X146254266Y-53989314D01*
X146397123Y-53989314D01*
X146492361Y-54036933D01*
X146539980Y-54132171D01*
X146539980Y-54655980D01*
X147444742Y-54655980D02*
X147444742Y-54132171D01*
X147397123Y-54036933D01*
X147301885Y-53989314D01*
X147111409Y-53989314D01*
X147016171Y-54036933D01*
X147444742Y-54608361D02*
X147349504Y-54655980D01*
X147111409Y-54655980D01*
X147016171Y-54608361D01*
X146968552Y-54513123D01*
X146968552Y-54417885D01*
X147016171Y-54322647D01*
X147111409Y-54275028D01*
X147349504Y-54275028D01*
X147444742Y-54227409D01*
X148063790Y-54655980D02*
X147968552Y-54608361D01*
X147920933Y-54513123D01*
X147920933Y-53655980D01*
X113720738Y-105846571D02*
X113863595Y-105894190D01*
X113911214Y-105941809D01*
X113958833Y-106037047D01*
X113958833Y-106179904D01*
X113911214Y-106275142D01*
X113863595Y-106322761D01*
X113768357Y-106370380D01*
X113387404Y-106370380D01*
X113387404Y-105370380D01*
X113720738Y-105370380D01*
X113815976Y-105418000D01*
X113863595Y-105465619D01*
X113911214Y-105560857D01*
X113911214Y-105656095D01*
X113863595Y-105751333D01*
X113815976Y-105798952D01*
X113720738Y-105846571D01*
X113387404Y-105846571D01*
X114339785Y-106322761D02*
X114482642Y-106370380D01*
X114720738Y-106370380D01*
X114815976Y-106322761D01*
X114863595Y-106275142D01*
X114911214Y-106179904D01*
X114911214Y-106084666D01*
X114863595Y-105989428D01*
X114815976Y-105941809D01*
X114720738Y-105894190D01*
X114530261Y-105846571D01*
X114435023Y-105798952D01*
X114387404Y-105751333D01*
X114339785Y-105656095D01*
X114339785Y-105560857D01*
X114387404Y-105465619D01*
X114435023Y-105418000D01*
X114530261Y-105370380D01*
X114768357Y-105370380D01*
X114911214Y-105418000D01*
X115339785Y-106370380D02*
X115339785Y-105370380D01*
X115720738Y-105370380D01*
X115815976Y-105418000D01*
X115863595Y-105465619D01*
X115911214Y-105560857D01*
X115911214Y-105703714D01*
X115863595Y-105798952D01*
X115815976Y-105846571D01*
X115720738Y-105894190D01*
X115339785Y-105894190D01*
X116339785Y-106370380D02*
X116339785Y-105370380D01*
X116577880Y-105370380D01*
X116720738Y-105418000D01*
X116815976Y-105513238D01*
X116863595Y-105608476D01*
X116911214Y-105798952D01*
X116911214Y-105941809D01*
X116863595Y-106132285D01*
X116815976Y-106227523D01*
X116720738Y-106322761D01*
X116577880Y-106370380D01*
X116339785Y-106370380D01*
X157567380Y-87463095D02*
X157567380Y-86891666D01*
X158567380Y-87177380D02*
X157567380Y-87177380D01*
X158567380Y-86558333D02*
X157567380Y-86558333D01*
X157567380Y-86177380D01*
X157615000Y-86082142D01*
X157662619Y-86034523D01*
X157757857Y-85986904D01*
X157900714Y-85986904D01*
X157995952Y-86034523D01*
X158043571Y-86082142D01*
X158091190Y-86177380D01*
X158091190Y-86558333D01*
X158567380Y-85034523D02*
X158567380Y-85605952D01*
X158567380Y-85320238D02*
X157567380Y-85320238D01*
X157710238Y-85415476D01*
X157805476Y-85510714D01*
X157853095Y-85605952D01*
X157567380Y-84129761D02*
X157567380Y-84605952D01*
X158043571Y-84653571D01*
X157995952Y-84605952D01*
X157948333Y-84510714D01*
X157948333Y-84272619D01*
X157995952Y-84177380D01*
X158043571Y-84129761D01*
X158138809Y-84082142D01*
X158376904Y-84082142D01*
X158472142Y-84129761D01*
X158519761Y-84177380D01*
X158567380Y-84272619D01*
X158567380Y-84510714D01*
X158519761Y-84605952D01*
X158472142Y-84653571D01*
X143248895Y-58598780D02*
X143820323Y-58598780D01*
X143534609Y-59598780D02*
X143534609Y-58598780D01*
X144153657Y-59598780D02*
X144153657Y-58598780D01*
X144534609Y-58598780D01*
X144629847Y-58646400D01*
X144677466Y-58694019D01*
X144725085Y-58789257D01*
X144725085Y-58932114D01*
X144677466Y-59027352D01*
X144629847Y-59074971D01*
X144534609Y-59122590D01*
X144153657Y-59122590D01*
X145058419Y-58598780D02*
X145725085Y-58598780D01*
X145296514Y-59598780D01*
X120511904Y-94702380D02*
X121083333Y-94702380D01*
X120797619Y-95702380D02*
X120797619Y-94702380D01*
X121416666Y-95702380D02*
X121416666Y-94702380D01*
X121797619Y-94702380D01*
X121892857Y-94750000D01*
X121940476Y-94797619D01*
X121988095Y-94892857D01*
X121988095Y-95035714D01*
X121940476Y-95130952D01*
X121892857Y-95178571D01*
X121797619Y-95226190D01*
X121416666Y-95226190D01*
X122940476Y-95702380D02*
X122369047Y-95702380D01*
X122654761Y-95702380D02*
X122654761Y-94702380D01*
X122559523Y-94845238D01*
X122464285Y-94940476D01*
X122369047Y-94988095D01*
X123416666Y-95702380D02*
X123607142Y-95702380D01*
X123702380Y-95654761D01*
X123750000Y-95607142D01*
X123845238Y-95464285D01*
X123892857Y-95273809D01*
X123892857Y-94892857D01*
X123845238Y-94797619D01*
X123797619Y-94750000D01*
X123702380Y-94702380D01*
X123511904Y-94702380D01*
X123416666Y-94750000D01*
X123369047Y-94797619D01*
X123321428Y-94892857D01*
X123321428Y-95130952D01*
X123369047Y-95226190D01*
X123416666Y-95273809D01*
X123511904Y-95321428D01*
X123702380Y-95321428D01*
X123797619Y-95273809D01*
X123845238Y-95226190D01*
X123892857Y-95130952D01*
X117861904Y-84054380D02*
X118433333Y-84054380D01*
X118147619Y-85054380D02*
X118147619Y-84054380D01*
X118766666Y-85054380D02*
X118766666Y-84054380D01*
X119147619Y-84054380D01*
X119242857Y-84102000D01*
X119290476Y-84149619D01*
X119338095Y-84244857D01*
X119338095Y-84387714D01*
X119290476Y-84482952D01*
X119242857Y-84530571D01*
X119147619Y-84578190D01*
X118766666Y-84578190D01*
X120290476Y-85054380D02*
X119719047Y-85054380D01*
X120004761Y-85054380D02*
X120004761Y-84054380D01*
X119909523Y-84197238D01*
X119814285Y-84292476D01*
X119719047Y-84340095D01*
X120861904Y-84482952D02*
X120766666Y-84435333D01*
X120719047Y-84387714D01*
X120671428Y-84292476D01*
X120671428Y-84244857D01*
X120719047Y-84149619D01*
X120766666Y-84102000D01*
X120861904Y-84054380D01*
X121052380Y-84054380D01*
X121147619Y-84102000D01*
X121195238Y-84149619D01*
X121242857Y-84244857D01*
X121242857Y-84292476D01*
X121195238Y-84387714D01*
X121147619Y-84435333D01*
X121052380Y-84482952D01*
X120861904Y-84482952D01*
X120766666Y-84530571D01*
X120719047Y-84578190D01*
X120671428Y-84673428D01*
X120671428Y-84863904D01*
X120719047Y-84959142D01*
X120766666Y-85006761D01*
X120861904Y-85054380D01*
X121052380Y-85054380D01*
X121147619Y-85006761D01*
X121195238Y-84959142D01*
X121242857Y-84863904D01*
X121242857Y-84673428D01*
X121195238Y-84578190D01*
X121147619Y-84530571D01*
X121052380Y-84482952D01*
X129650404Y-122247880D02*
X130221833Y-122247880D01*
X129936119Y-123247880D02*
X129936119Y-122247880D01*
X130555166Y-123247880D02*
X130555166Y-122247880D01*
X130936119Y-122247880D01*
X131031357Y-122295500D01*
X131078976Y-122343119D01*
X131126595Y-122438357D01*
X131126595Y-122581214D01*
X131078976Y-122676452D01*
X131031357Y-122724071D01*
X130936119Y-122771690D01*
X130555166Y-122771690D01*
X132078976Y-123247880D02*
X131507547Y-123247880D01*
X131793261Y-123247880D02*
X131793261Y-122247880D01*
X131698023Y-122390738D01*
X131602785Y-122485976D01*
X131507547Y-122533595D01*
X133031357Y-123247880D02*
X132459928Y-123247880D01*
X132745642Y-123247880D02*
X132745642Y-122247880D01*
X132650404Y-122390738D01*
X132555166Y-122485976D01*
X132459928Y-122533595D01*
X123960095Y-72540880D02*
X124531523Y-72540880D01*
X124245809Y-73540880D02*
X124245809Y-72540880D01*
X124864857Y-73540880D02*
X124864857Y-72540880D01*
X125245809Y-72540880D01*
X125341047Y-72588500D01*
X125388666Y-72636119D01*
X125436285Y-72731357D01*
X125436285Y-72874214D01*
X125388666Y-72969452D01*
X125341047Y-73017071D01*
X125245809Y-73064690D01*
X124864857Y-73064690D01*
X126341047Y-72540880D02*
X125864857Y-72540880D01*
X125817238Y-73017071D01*
X125864857Y-72969452D01*
X125960095Y-72921833D01*
X126198190Y-72921833D01*
X126293428Y-72969452D01*
X126341047Y-73017071D01*
X126388666Y-73112309D01*
X126388666Y-73350404D01*
X126341047Y-73445642D01*
X126293428Y-73493261D01*
X126198190Y-73540880D01*
X125960095Y-73540880D01*
X125864857Y-73493261D01*
X125817238Y-73445642D01*
X138738904Y-120193880D02*
X139310333Y-120193880D01*
X139024619Y-121193880D02*
X139024619Y-120193880D01*
X139643666Y-121193880D02*
X139643666Y-120193880D01*
X140024619Y-120193880D01*
X140119857Y-120241500D01*
X140167476Y-120289119D01*
X140215095Y-120384357D01*
X140215095Y-120527214D01*
X140167476Y-120622452D01*
X140119857Y-120670071D01*
X140024619Y-120717690D01*
X139643666Y-120717690D01*
X141167476Y-121193880D02*
X140596047Y-121193880D01*
X140881761Y-121193880D02*
X140881761Y-120193880D01*
X140786523Y-120336738D01*
X140691285Y-120431976D01*
X140596047Y-120479595D01*
X141548428Y-120289119D02*
X141596047Y-120241500D01*
X141691285Y-120193880D01*
X141929380Y-120193880D01*
X142024619Y-120241500D01*
X142072238Y-120289119D01*
X142119857Y-120384357D01*
X142119857Y-120479595D01*
X142072238Y-120622452D01*
X141500809Y-121193880D01*
X142119857Y-121193880D01*
X147009095Y-58625180D02*
X147580523Y-58625180D01*
X147294809Y-59625180D02*
X147294809Y-58625180D01*
X147913857Y-59625180D02*
X147913857Y-58625180D01*
X148294809Y-58625180D01*
X148390047Y-58672800D01*
X148437666Y-58720419D01*
X148485285Y-58815657D01*
X148485285Y-58958514D01*
X148437666Y-59053752D01*
X148390047Y-59101371D01*
X148294809Y-59148990D01*
X147913857Y-59148990D01*
X148961476Y-59625180D02*
X149151952Y-59625180D01*
X149247190Y-59577561D01*
X149294809Y-59529942D01*
X149390047Y-59387085D01*
X149437666Y-59196609D01*
X149437666Y-58815657D01*
X149390047Y-58720419D01*
X149342428Y-58672800D01*
X149247190Y-58625180D01*
X149056714Y-58625180D01*
X148961476Y-58672800D01*
X148913857Y-58720419D01*
X148866238Y-58815657D01*
X148866238Y-59053752D01*
X148913857Y-59148990D01*
X148961476Y-59196609D01*
X149056714Y-59244228D01*
X149247190Y-59244228D01*
X149342428Y-59196609D01*
X149390047Y-59148990D01*
X149437666Y-59053752D01*
X148191695Y-72477180D02*
X148763123Y-72477180D01*
X148477409Y-73477180D02*
X148477409Y-72477180D01*
X149096457Y-73477180D02*
X149096457Y-72477180D01*
X149477409Y-72477180D01*
X149572647Y-72524800D01*
X149620266Y-72572419D01*
X149667885Y-72667657D01*
X149667885Y-72810514D01*
X149620266Y-72905752D01*
X149572647Y-72953371D01*
X149477409Y-73000990D01*
X149096457Y-73000990D01*
X150239314Y-72905752D02*
X150144076Y-72858133D01*
X150096457Y-72810514D01*
X150048838Y-72715276D01*
X150048838Y-72667657D01*
X150096457Y-72572419D01*
X150144076Y-72524800D01*
X150239314Y-72477180D01*
X150429790Y-72477180D01*
X150525028Y-72524800D01*
X150572647Y-72572419D01*
X150620266Y-72667657D01*
X150620266Y-72715276D01*
X150572647Y-72810514D01*
X150525028Y-72858133D01*
X150429790Y-72905752D01*
X150239314Y-72905752D01*
X150144076Y-72953371D01*
X150096457Y-73000990D01*
X150048838Y-73096228D01*
X150048838Y-73286704D01*
X150096457Y-73381942D01*
X150144076Y-73429561D01*
X150239314Y-73477180D01*
X150429790Y-73477180D01*
X150525028Y-73429561D01*
X150572647Y-73381942D01*
X150620266Y-73286704D01*
X150620266Y-73096228D01*
X150572647Y-73000990D01*
X150525028Y-72953371D01*
X150429790Y-72905752D01*
X147786904Y-98402380D02*
X148358333Y-98402380D01*
X148072619Y-99402380D02*
X148072619Y-98402380D01*
X148691666Y-99402380D02*
X148691666Y-98402380D01*
X149072619Y-98402380D01*
X149167857Y-98450000D01*
X149215476Y-98497619D01*
X149263095Y-98592857D01*
X149263095Y-98735714D01*
X149215476Y-98830952D01*
X149167857Y-98878571D01*
X149072619Y-98926190D01*
X148691666Y-98926190D01*
X149644047Y-98497619D02*
X149691666Y-98450000D01*
X149786904Y-98402380D01*
X150025000Y-98402380D01*
X150120238Y-98450000D01*
X150167857Y-98497619D01*
X150215476Y-98592857D01*
X150215476Y-98688095D01*
X150167857Y-98830952D01*
X149596428Y-99402380D01*
X150215476Y-99402380D01*
X151072619Y-98735714D02*
X151072619Y-99402380D01*
X150834523Y-98354761D02*
X150596428Y-99069047D01*
X151215476Y-99069047D01*
X132086904Y-86002380D02*
X132658333Y-86002380D01*
X132372619Y-87002380D02*
X132372619Y-86002380D01*
X132991666Y-87002380D02*
X132991666Y-86002380D01*
X133372619Y-86002380D01*
X133467857Y-86050000D01*
X133515476Y-86097619D01*
X133563095Y-86192857D01*
X133563095Y-86335714D01*
X133515476Y-86430952D01*
X133467857Y-86478571D01*
X133372619Y-86526190D01*
X132991666Y-86526190D01*
X134515476Y-87002380D02*
X133944047Y-87002380D01*
X134229761Y-87002380D02*
X134229761Y-86002380D01*
X134134523Y-86145238D01*
X134039285Y-86240476D01*
X133944047Y-86288095D01*
X135372619Y-86002380D02*
X135182142Y-86002380D01*
X135086904Y-86050000D01*
X135039285Y-86097619D01*
X134944047Y-86240476D01*
X134896428Y-86430952D01*
X134896428Y-86811904D01*
X134944047Y-86907142D01*
X134991666Y-86954761D01*
X135086904Y-87002380D01*
X135277380Y-87002380D01*
X135372619Y-86954761D01*
X135420238Y-86907142D01*
X135467857Y-86811904D01*
X135467857Y-86573809D01*
X135420238Y-86478571D01*
X135372619Y-86430952D01*
X135277380Y-86383333D01*
X135086904Y-86383333D01*
X134991666Y-86430952D01*
X134944047Y-86478571D01*
X134896428Y-86573809D01*
X118880095Y-72477380D02*
X119451523Y-72477380D01*
X119165809Y-73477380D02*
X119165809Y-72477380D01*
X119784857Y-73477380D02*
X119784857Y-72477380D01*
X120165809Y-72477380D01*
X120261047Y-72525000D01*
X120308666Y-72572619D01*
X120356285Y-72667857D01*
X120356285Y-72810714D01*
X120308666Y-72905952D01*
X120261047Y-72953571D01*
X120165809Y-73001190D01*
X119784857Y-73001190D01*
X121213428Y-72810714D02*
X121213428Y-73477380D01*
X120975333Y-72429761D02*
X120737238Y-73144047D01*
X121356285Y-73144047D01*
X150487704Y-89480380D02*
X151059133Y-89480380D01*
X150773419Y-90480380D02*
X150773419Y-89480380D01*
X151392466Y-90480380D02*
X151392466Y-89480380D01*
X151773419Y-89480380D01*
X151868657Y-89528000D01*
X151916276Y-89575619D01*
X151963895Y-89670857D01*
X151963895Y-89813714D01*
X151916276Y-89908952D01*
X151868657Y-89956571D01*
X151773419Y-90004190D01*
X151392466Y-90004190D01*
X152916276Y-90480380D02*
X152344847Y-90480380D01*
X152630561Y-90480380D02*
X152630561Y-89480380D01*
X152535323Y-89623238D01*
X152440085Y-89718476D01*
X152344847Y-89766095D01*
X153773419Y-89813714D02*
X153773419Y-90480380D01*
X153535323Y-89432761D02*
X153297228Y-90147047D01*
X153916276Y-90147047D01*
X127261904Y-81927380D02*
X127833333Y-81927380D01*
X127547619Y-82927380D02*
X127547619Y-81927380D01*
X128166666Y-82927380D02*
X128166666Y-81927380D01*
X128547619Y-81927380D01*
X128642857Y-81975000D01*
X128690476Y-82022619D01*
X128738095Y-82117857D01*
X128738095Y-82260714D01*
X128690476Y-82355952D01*
X128642857Y-82403571D01*
X128547619Y-82451190D01*
X128166666Y-82451190D01*
X129690476Y-82927380D02*
X129119047Y-82927380D01*
X129404761Y-82927380D02*
X129404761Y-81927380D01*
X129309523Y-82070238D01*
X129214285Y-82165476D01*
X129119047Y-82213095D01*
X130023809Y-81927380D02*
X130690476Y-81927380D01*
X130261904Y-82927380D01*
X123926595Y-59076380D02*
X124498023Y-59076380D01*
X124212309Y-60076380D02*
X124212309Y-59076380D01*
X124831357Y-60076380D02*
X124831357Y-59076380D01*
X125212309Y-59076380D01*
X125307547Y-59124000D01*
X125355166Y-59171619D01*
X125402785Y-59266857D01*
X125402785Y-59409714D01*
X125355166Y-59504952D01*
X125307547Y-59552571D01*
X125212309Y-59600190D01*
X124831357Y-59600190D01*
X125736119Y-59076380D02*
X126355166Y-59076380D01*
X126021833Y-59457333D01*
X126164690Y-59457333D01*
X126259928Y-59504952D01*
X126307547Y-59552571D01*
X126355166Y-59647809D01*
X126355166Y-59885904D01*
X126307547Y-59981142D01*
X126259928Y-60028761D01*
X126164690Y-60076380D01*
X125878976Y-60076380D01*
X125783738Y-60028761D01*
X125736119Y-59981142D01*
X135690904Y-94339880D02*
X136262333Y-94339880D01*
X135976619Y-95339880D02*
X135976619Y-94339880D01*
X136595666Y-95339880D02*
X136595666Y-94339880D01*
X136976619Y-94339880D01*
X137071857Y-94387500D01*
X137119476Y-94435119D01*
X137167095Y-94530357D01*
X137167095Y-94673214D01*
X137119476Y-94768452D01*
X137071857Y-94816071D01*
X136976619Y-94863690D01*
X136595666Y-94863690D01*
X137548047Y-94435119D02*
X137595666Y-94387500D01*
X137690904Y-94339880D01*
X137929000Y-94339880D01*
X138024238Y-94387500D01*
X138071857Y-94435119D01*
X138119476Y-94530357D01*
X138119476Y-94625595D01*
X138071857Y-94768452D01*
X137500428Y-95339880D01*
X138119476Y-95339880D01*
X138452809Y-94339880D02*
X139071857Y-94339880D01*
X138738523Y-94720833D01*
X138881380Y-94720833D01*
X138976619Y-94768452D01*
X139024238Y-94816071D01*
X139071857Y-94911309D01*
X139071857Y-95149404D01*
X139024238Y-95244642D01*
X138976619Y-95292261D01*
X138881380Y-95339880D01*
X138595666Y-95339880D01*
X138500428Y-95292261D01*
X138452809Y-95244642D01*
X125134904Y-114082380D02*
X125706333Y-114082380D01*
X125420619Y-115082380D02*
X125420619Y-114082380D01*
X126039666Y-115082380D02*
X126039666Y-114082380D01*
X126420619Y-114082380D01*
X126515857Y-114130000D01*
X126563476Y-114177619D01*
X126611095Y-114272857D01*
X126611095Y-114415714D01*
X126563476Y-114510952D01*
X126515857Y-114558571D01*
X126420619Y-114606190D01*
X126039666Y-114606190D01*
X127563476Y-115082380D02*
X126992047Y-115082380D01*
X127277761Y-115082380D02*
X127277761Y-114082380D01*
X127182523Y-114225238D01*
X127087285Y-114320476D01*
X126992047Y-114368095D01*
X128182523Y-114082380D02*
X128277761Y-114082380D01*
X128373000Y-114130000D01*
X128420619Y-114177619D01*
X128468238Y-114272857D01*
X128515857Y-114463333D01*
X128515857Y-114701428D01*
X128468238Y-114891904D01*
X128420619Y-114987142D01*
X128373000Y-115034761D01*
X128277761Y-115082380D01*
X128182523Y-115082380D01*
X128087285Y-115034761D01*
X128039666Y-114987142D01*
X127992047Y-114891904D01*
X127944428Y-114701428D01*
X127944428Y-114463333D01*
X127992047Y-114272857D01*
X128039666Y-114177619D01*
X128087285Y-114130000D01*
X128182523Y-114082380D01*
X129815880Y-104242857D02*
X129339690Y-104576190D01*
X129815880Y-104814285D02*
X128815880Y-104814285D01*
X128815880Y-104433333D01*
X128863500Y-104338095D01*
X128911119Y-104290476D01*
X129006357Y-104242857D01*
X129149214Y-104242857D01*
X129244452Y-104290476D01*
X129292071Y-104338095D01*
X129339690Y-104433333D01*
X129339690Y-104814285D01*
X128911119Y-103861904D02*
X128863500Y-103814285D01*
X128815880Y-103719047D01*
X128815880Y-103480952D01*
X128863500Y-103385714D01*
X128911119Y-103338095D01*
X129006357Y-103290476D01*
X129101595Y-103290476D01*
X129244452Y-103338095D01*
X129815880Y-103909523D01*
X129815880Y-103290476D01*
X128815880Y-102671428D02*
X128815880Y-102576190D01*
X128863500Y-102480952D01*
X128911119Y-102433333D01*
X129006357Y-102385714D01*
X129196833Y-102338095D01*
X129434928Y-102338095D01*
X129625404Y-102385714D01*
X129720642Y-102433333D01*
X129768261Y-102480952D01*
X129815880Y-102576190D01*
X129815880Y-102671428D01*
X129768261Y-102766666D01*
X129720642Y-102814285D01*
X129625404Y-102861904D01*
X129434928Y-102909523D01*
X129196833Y-102909523D01*
X129006357Y-102861904D01*
X128911119Y-102814285D01*
X128863500Y-102766666D01*
X128815880Y-102671428D01*
X133865880Y-71715238D02*
X133389690Y-72048571D01*
X133865880Y-72286666D02*
X132865880Y-72286666D01*
X132865880Y-71905714D01*
X132913500Y-71810476D01*
X132961119Y-71762857D01*
X133056357Y-71715238D01*
X133199214Y-71715238D01*
X133294452Y-71762857D01*
X133342071Y-71810476D01*
X133389690Y-71905714D01*
X133389690Y-72286666D01*
X132865880Y-71429523D02*
X133865880Y-71096190D01*
X132865880Y-70762857D01*
X132865880Y-70524761D02*
X132865880Y-69905714D01*
X133246833Y-70239047D01*
X133246833Y-70096190D01*
X133294452Y-70000952D01*
X133342071Y-69953333D01*
X133437309Y-69905714D01*
X133675404Y-69905714D01*
X133770642Y-69953333D01*
X133818261Y-70000952D01*
X133865880Y-70096190D01*
X133865880Y-70381904D01*
X133818261Y-70477142D01*
X133770642Y-70524761D01*
X156075142Y-64358780D02*
X155741809Y-63882590D01*
X155503714Y-64358780D02*
X155503714Y-63358780D01*
X155884666Y-63358780D01*
X155979904Y-63406400D01*
X156027523Y-63454019D01*
X156075142Y-63549257D01*
X156075142Y-63692114D01*
X156027523Y-63787352D01*
X155979904Y-63834971D01*
X155884666Y-63882590D01*
X155503714Y-63882590D01*
X157027523Y-64358780D02*
X156456095Y-64358780D01*
X156741809Y-64358780D02*
X156741809Y-63358780D01*
X156646571Y-63501638D01*
X156551333Y-63596876D01*
X156456095Y-63644495D01*
X157408476Y-63454019D02*
X157456095Y-63406400D01*
X157551333Y-63358780D01*
X157789428Y-63358780D01*
X157884666Y-63406400D01*
X157932285Y-63454019D01*
X157979904Y-63549257D01*
X157979904Y-63644495D01*
X157932285Y-63787352D01*
X157360857Y-64358780D01*
X157979904Y-64358780D01*
X123698380Y-111212238D02*
X123222190Y-111545571D01*
X123698380Y-111783666D02*
X122698380Y-111783666D01*
X122698380Y-111402714D01*
X122746000Y-111307476D01*
X122793619Y-111259857D01*
X122888857Y-111212238D01*
X123031714Y-111212238D01*
X123126952Y-111259857D01*
X123174571Y-111307476D01*
X123222190Y-111402714D01*
X123222190Y-111783666D01*
X122698380Y-110926523D02*
X123698380Y-110593190D01*
X122698380Y-110259857D01*
X123698380Y-109878904D02*
X123698380Y-109688428D01*
X123650761Y-109593190D01*
X123603142Y-109545571D01*
X123460285Y-109450333D01*
X123269809Y-109402714D01*
X122888857Y-109402714D01*
X122793619Y-109450333D01*
X122746000Y-109497952D01*
X122698380Y-109593190D01*
X122698380Y-109783666D01*
X122746000Y-109878904D01*
X122793619Y-109926523D01*
X122888857Y-109974142D01*
X123126952Y-109974142D01*
X123222190Y-109926523D01*
X123269809Y-109878904D01*
X123317428Y-109783666D01*
X123317428Y-109593190D01*
X123269809Y-109497952D01*
X123222190Y-109450333D01*
X123126952Y-109402714D01*
X153011904Y-96702380D02*
X153583333Y-96702380D01*
X153297619Y-97702380D02*
X153297619Y-96702380D01*
X153916666Y-97702380D02*
X153916666Y-96702380D01*
X154297619Y-96702380D01*
X154392857Y-96750000D01*
X154440476Y-96797619D01*
X154488095Y-96892857D01*
X154488095Y-97035714D01*
X154440476Y-97130952D01*
X154392857Y-97178571D01*
X154297619Y-97226190D01*
X153916666Y-97226190D01*
X155440476Y-97702380D02*
X154869047Y-97702380D01*
X155154761Y-97702380D02*
X155154761Y-96702380D01*
X155059523Y-96845238D01*
X154964285Y-96940476D01*
X154869047Y-96988095D01*
X155773809Y-96702380D02*
X156392857Y-96702380D01*
X156059523Y-97083333D01*
X156202380Y-97083333D01*
X156297619Y-97130952D01*
X156345238Y-97178571D01*
X156392857Y-97273809D01*
X156392857Y-97511904D01*
X156345238Y-97607142D01*
X156297619Y-97654761D01*
X156202380Y-97702380D01*
X155916666Y-97702380D01*
X155821428Y-97654761D01*
X155773809Y-97607142D01*
X127977380Y-101946428D02*
X127501190Y-102279761D01*
X127977380Y-102517857D02*
X126977380Y-102517857D01*
X126977380Y-102136904D01*
X127025000Y-102041666D01*
X127072619Y-101994047D01*
X127167857Y-101946428D01*
X127310714Y-101946428D01*
X127405952Y-101994047D01*
X127453571Y-102041666D01*
X127501190Y-102136904D01*
X127501190Y-102517857D01*
X126977380Y-101660714D02*
X127977380Y-101327380D01*
X126977380Y-100994047D01*
X127977380Y-100136904D02*
X127977380Y-100708333D01*
X127977380Y-100422619D02*
X126977380Y-100422619D01*
X127120238Y-100517857D01*
X127215476Y-100613095D01*
X127263095Y-100708333D01*
X127072619Y-99755952D02*
X127025000Y-99708333D01*
X126977380Y-99613095D01*
X126977380Y-99375000D01*
X127025000Y-99279761D01*
X127072619Y-99232142D01*
X127167857Y-99184523D01*
X127263095Y-99184523D01*
X127405952Y-99232142D01*
X127977380Y-99803571D01*
X127977380Y-99184523D01*
X126634380Y-82224428D02*
X126158190Y-82557761D01*
X126634380Y-82795857D02*
X125634380Y-82795857D01*
X125634380Y-82414904D01*
X125682000Y-82319666D01*
X125729619Y-82272047D01*
X125824857Y-82224428D01*
X125967714Y-82224428D01*
X126062952Y-82272047D01*
X126110571Y-82319666D01*
X126158190Y-82414904D01*
X126158190Y-82795857D01*
X125634380Y-81938714D02*
X126634380Y-81605380D01*
X125634380Y-81272047D01*
X126634380Y-80414904D02*
X126634380Y-80986333D01*
X126634380Y-80700619D02*
X125634380Y-80700619D01*
X125777238Y-80795857D01*
X125872476Y-80891095D01*
X125920095Y-80986333D01*
X126634380Y-79462523D02*
X126634380Y-80033952D01*
X126634380Y-79748238D02*
X125634380Y-79748238D01*
X125777238Y-79843476D01*
X125872476Y-79938714D01*
X125920095Y-80033952D01*
X143771880Y-80081357D02*
X143295690Y-80414690D01*
X143771880Y-80652785D02*
X142771880Y-80652785D01*
X142771880Y-80271833D01*
X142819500Y-80176595D01*
X142867119Y-80128976D01*
X142962357Y-80081357D01*
X143105214Y-80081357D01*
X143200452Y-80128976D01*
X143248071Y-80176595D01*
X143295690Y-80271833D01*
X143295690Y-80652785D01*
X143771880Y-79128976D02*
X143771880Y-79700404D01*
X143771880Y-79414690D02*
X142771880Y-79414690D01*
X142914738Y-79509928D01*
X143009976Y-79605166D01*
X143057595Y-79700404D01*
X142771880Y-78795642D02*
X142771880Y-78128976D01*
X143771880Y-78557547D01*
X158231980Y-73086838D02*
X157755790Y-73420171D01*
X158231980Y-73658266D02*
X157231980Y-73658266D01*
X157231980Y-73277314D01*
X157279600Y-73182076D01*
X157327219Y-73134457D01*
X157422457Y-73086838D01*
X157565314Y-73086838D01*
X157660552Y-73134457D01*
X157708171Y-73182076D01*
X157755790Y-73277314D01*
X157755790Y-73658266D01*
X157231980Y-72801123D02*
X158231980Y-72467790D01*
X157231980Y-72134457D01*
X157231980Y-71372552D02*
X157231980Y-71563028D01*
X157279600Y-71658266D01*
X157327219Y-71705885D01*
X157470076Y-71801123D01*
X157660552Y-71848742D01*
X158041504Y-71848742D01*
X158136742Y-71801123D01*
X158184361Y-71753504D01*
X158231980Y-71658266D01*
X158231980Y-71467790D01*
X158184361Y-71372552D01*
X158136742Y-71324933D01*
X158041504Y-71277314D01*
X157803409Y-71277314D01*
X157708171Y-71324933D01*
X157660552Y-71372552D01*
X157612933Y-71467790D01*
X157612933Y-71658266D01*
X157660552Y-71753504D01*
X157708171Y-71801123D01*
X157803409Y-71848742D01*
X137002780Y-58862838D02*
X136526590Y-59196171D01*
X137002780Y-59434266D02*
X136002780Y-59434266D01*
X136002780Y-59053314D01*
X136050400Y-58958076D01*
X136098019Y-58910457D01*
X136193257Y-58862838D01*
X136336114Y-58862838D01*
X136431352Y-58910457D01*
X136478971Y-58958076D01*
X136526590Y-59053314D01*
X136526590Y-59434266D01*
X136002780Y-58577123D02*
X137002780Y-58243790D01*
X136002780Y-57910457D01*
X136002780Y-57100933D02*
X136002780Y-57577123D01*
X136478971Y-57624742D01*
X136431352Y-57577123D01*
X136383733Y-57481885D01*
X136383733Y-57243790D01*
X136431352Y-57148552D01*
X136478971Y-57100933D01*
X136574209Y-57053314D01*
X136812304Y-57053314D01*
X136907542Y-57100933D01*
X136955161Y-57148552D01*
X137002780Y-57243790D01*
X137002780Y-57481885D01*
X136955161Y-57577123D01*
X136907542Y-57624742D01*
X151296761Y-56789580D02*
X150963428Y-56313390D01*
X150725333Y-56789580D02*
X150725333Y-55789580D01*
X151106285Y-55789580D01*
X151201523Y-55837200D01*
X151249142Y-55884819D01*
X151296761Y-55980057D01*
X151296761Y-56122914D01*
X151249142Y-56218152D01*
X151201523Y-56265771D01*
X151106285Y-56313390D01*
X150725333Y-56313390D01*
X151582476Y-55789580D02*
X151915809Y-56789580D01*
X152249142Y-55789580D01*
X152487238Y-55789580D02*
X153153904Y-55789580D01*
X152725333Y-56789580D01*
X116092361Y-69591180D02*
X115759028Y-69114990D01*
X115520933Y-69591180D02*
X115520933Y-68591180D01*
X115901885Y-68591180D01*
X115997123Y-68638800D01*
X116044742Y-68686419D01*
X116092361Y-68781657D01*
X116092361Y-68924514D01*
X116044742Y-69019752D01*
X115997123Y-69067371D01*
X115901885Y-69114990D01*
X115520933Y-69114990D01*
X116378076Y-68591180D02*
X116711409Y-69591180D01*
X117044742Y-68591180D01*
X117901885Y-69591180D02*
X117330457Y-69591180D01*
X117616171Y-69591180D02*
X117616171Y-68591180D01*
X117520933Y-68734038D01*
X117425695Y-68829276D01*
X117330457Y-68876895D01*
X155973542Y-66543180D02*
X155640209Y-66066990D01*
X155402114Y-66543180D02*
X155402114Y-65543180D01*
X155783066Y-65543180D01*
X155878304Y-65590800D01*
X155925923Y-65638419D01*
X155973542Y-65733657D01*
X155973542Y-65876514D01*
X155925923Y-65971752D01*
X155878304Y-66019371D01*
X155783066Y-66066990D01*
X155402114Y-66066990D01*
X156925923Y-66543180D02*
X156354495Y-66543180D01*
X156640209Y-66543180D02*
X156640209Y-65543180D01*
X156544971Y-65686038D01*
X156449733Y-65781276D01*
X156354495Y-65828895D01*
X157544971Y-65543180D02*
X157640209Y-65543180D01*
X157735447Y-65590800D01*
X157783066Y-65638419D01*
X157830685Y-65733657D01*
X157878304Y-65924133D01*
X157878304Y-66162228D01*
X157830685Y-66352704D01*
X157783066Y-66447942D01*
X157735447Y-66495561D01*
X157640209Y-66543180D01*
X157544971Y-66543180D01*
X157449733Y-66495561D01*
X157402114Y-66447942D01*
X157354495Y-66352704D01*
X157306876Y-66162228D01*
X157306876Y-65924133D01*
X157354495Y-65733657D01*
X157402114Y-65638419D01*
X157449733Y-65590800D01*
X157544971Y-65543180D01*
X114800142Y-95638880D02*
X114466809Y-95162690D01*
X114228714Y-95638880D02*
X114228714Y-94638880D01*
X114609666Y-94638880D01*
X114704904Y-94686500D01*
X114752523Y-94734119D01*
X114800142Y-94829357D01*
X114800142Y-94972214D01*
X114752523Y-95067452D01*
X114704904Y-95115071D01*
X114609666Y-95162690D01*
X114228714Y-95162690D01*
X115752523Y-95638880D02*
X115181095Y-95638880D01*
X115466809Y-95638880D02*
X115466809Y-94638880D01*
X115371571Y-94781738D01*
X115276333Y-94876976D01*
X115181095Y-94924595D01*
X116228714Y-95638880D02*
X116419190Y-95638880D01*
X116514428Y-95591261D01*
X116562047Y-95543642D01*
X116657285Y-95400785D01*
X116704904Y-95210309D01*
X116704904Y-94829357D01*
X116657285Y-94734119D01*
X116609666Y-94686500D01*
X116514428Y-94638880D01*
X116323952Y-94638880D01*
X116228714Y-94686500D01*
X116181095Y-94734119D01*
X116133476Y-94829357D01*
X116133476Y-95067452D01*
X116181095Y-95162690D01*
X116228714Y-95210309D01*
X116323952Y-95257928D01*
X116514428Y-95257928D01*
X116609666Y-95210309D01*
X116657285Y-95162690D01*
X116704904Y-95067452D01*
X114800142Y-88336380D02*
X114466809Y-87860190D01*
X114228714Y-88336380D02*
X114228714Y-87336380D01*
X114609666Y-87336380D01*
X114704904Y-87384000D01*
X114752523Y-87431619D01*
X114800142Y-87526857D01*
X114800142Y-87669714D01*
X114752523Y-87764952D01*
X114704904Y-87812571D01*
X114609666Y-87860190D01*
X114228714Y-87860190D01*
X115752523Y-88336380D02*
X115181095Y-88336380D01*
X115466809Y-88336380D02*
X115466809Y-87336380D01*
X115371571Y-87479238D01*
X115276333Y-87574476D01*
X115181095Y-87622095D01*
X116323952Y-87764952D02*
X116228714Y-87717333D01*
X116181095Y-87669714D01*
X116133476Y-87574476D01*
X116133476Y-87526857D01*
X116181095Y-87431619D01*
X116228714Y-87384000D01*
X116323952Y-87336380D01*
X116514428Y-87336380D01*
X116609666Y-87384000D01*
X116657285Y-87431619D01*
X116704904Y-87526857D01*
X116704904Y-87574476D01*
X116657285Y-87669714D01*
X116609666Y-87717333D01*
X116514428Y-87764952D01*
X116323952Y-87764952D01*
X116228714Y-87812571D01*
X116181095Y-87860190D01*
X116133476Y-87955428D01*
X116133476Y-88145904D01*
X116181095Y-88241142D01*
X116228714Y-88288761D01*
X116323952Y-88336380D01*
X116514428Y-88336380D01*
X116609666Y-88288761D01*
X116657285Y-88241142D01*
X116704904Y-88145904D01*
X116704904Y-87955428D01*
X116657285Y-87860190D01*
X116609666Y-87812571D01*
X116514428Y-87764952D01*
X131862533Y-66695580D02*
X131529200Y-66219390D01*
X131291104Y-66695580D02*
X131291104Y-65695580D01*
X131672057Y-65695580D01*
X131767295Y-65743200D01*
X131814914Y-65790819D01*
X131862533Y-65886057D01*
X131862533Y-66028914D01*
X131814914Y-66124152D01*
X131767295Y-66171771D01*
X131672057Y-66219390D01*
X131291104Y-66219390D01*
X132195866Y-65695580D02*
X132862533Y-65695580D01*
X132433961Y-66695580D01*
X113302133Y-65649880D02*
X112968800Y-65173690D01*
X112730704Y-65649880D02*
X112730704Y-64649880D01*
X113111657Y-64649880D01*
X113206895Y-64697500D01*
X113254514Y-64745119D01*
X113302133Y-64840357D01*
X113302133Y-64983214D01*
X113254514Y-65078452D01*
X113206895Y-65126071D01*
X113111657Y-65173690D01*
X112730704Y-65173690D01*
X113873561Y-65078452D02*
X113778323Y-65030833D01*
X113730704Y-64983214D01*
X113683085Y-64887976D01*
X113683085Y-64840357D01*
X113730704Y-64745119D01*
X113778323Y-64697500D01*
X113873561Y-64649880D01*
X114064038Y-64649880D01*
X114159276Y-64697500D01*
X114206895Y-64745119D01*
X114254514Y-64840357D01*
X114254514Y-64887976D01*
X114206895Y-64983214D01*
X114159276Y-65030833D01*
X114064038Y-65078452D01*
X113873561Y-65078452D01*
X113778323Y-65126071D01*
X113730704Y-65173690D01*
X113683085Y-65268928D01*
X113683085Y-65459404D01*
X113730704Y-65554642D01*
X113778323Y-65602261D01*
X113873561Y-65649880D01*
X114064038Y-65649880D01*
X114159276Y-65602261D01*
X114206895Y-65554642D01*
X114254514Y-65459404D01*
X114254514Y-65268928D01*
X114206895Y-65173690D01*
X114159276Y-65126071D01*
X114064038Y-65078452D01*
X115166666Y-99928571D02*
X114833333Y-99928571D01*
X114833333Y-100452380D02*
X114833333Y-99452380D01*
X115309523Y-99452380D01*
X116214285Y-100452380D02*
X115642857Y-100452380D01*
X115928571Y-100452380D02*
X115928571Y-99452380D01*
X115833333Y-99595238D01*
X115738095Y-99690476D01*
X115642857Y-99738095D01*
X114800142Y-90717642D02*
X114752523Y-90765261D01*
X114609666Y-90812880D01*
X114514428Y-90812880D01*
X114371571Y-90765261D01*
X114276333Y-90670023D01*
X114228714Y-90574785D01*
X114181095Y-90384309D01*
X114181095Y-90241452D01*
X114228714Y-90050976D01*
X114276333Y-89955738D01*
X114371571Y-89860500D01*
X114514428Y-89812880D01*
X114609666Y-89812880D01*
X114752523Y-89860500D01*
X114800142Y-89908119D01*
X115752523Y-90812880D02*
X115181095Y-90812880D01*
X115466809Y-90812880D02*
X115466809Y-89812880D01*
X115371571Y-89955738D01*
X115276333Y-90050976D01*
X115181095Y-90098595D01*
X116371571Y-89812880D02*
X116466809Y-89812880D01*
X116562047Y-89860500D01*
X116609666Y-89908119D01*
X116657285Y-90003357D01*
X116704904Y-90193833D01*
X116704904Y-90431928D01*
X116657285Y-90622404D01*
X116609666Y-90717642D01*
X116562047Y-90765261D01*
X116466809Y-90812880D01*
X116371571Y-90812880D01*
X116276333Y-90765261D01*
X116228714Y-90717642D01*
X116181095Y-90622404D01*
X116133476Y-90431928D01*
X116133476Y-90193833D01*
X116181095Y-90003357D01*
X116228714Y-89908119D01*
X116276333Y-89860500D01*
X116371571Y-89812880D01*
X153080980Y-93625895D02*
X152080980Y-93625895D01*
X152080980Y-93387800D01*
X152128600Y-93244942D01*
X152223838Y-93149704D01*
X152319076Y-93102085D01*
X152509552Y-93054466D01*
X152652409Y-93054466D01*
X152842885Y-93102085D01*
X152938123Y-93149704D01*
X153033361Y-93244942D01*
X153080980Y-93387800D01*
X153080980Y-93625895D01*
X153080980Y-92102085D02*
X153080980Y-92673514D01*
X153080980Y-92387800D02*
X152080980Y-92387800D01*
X152223838Y-92483038D01*
X152319076Y-92578276D01*
X152366695Y-92673514D01*
X133954780Y-58812038D02*
X133478590Y-59145371D01*
X133954780Y-59383466D02*
X132954780Y-59383466D01*
X132954780Y-59002514D01*
X133002400Y-58907276D01*
X133050019Y-58859657D01*
X133145257Y-58812038D01*
X133288114Y-58812038D01*
X133383352Y-58859657D01*
X133430971Y-58907276D01*
X133478590Y-59002514D01*
X133478590Y-59383466D01*
X132954780Y-58526323D02*
X133954780Y-58192990D01*
X132954780Y-57859657D01*
X133050019Y-57573942D02*
X133002400Y-57526323D01*
X132954780Y-57431085D01*
X132954780Y-57192990D01*
X133002400Y-57097752D01*
X133050019Y-57050133D01*
X133145257Y-57002514D01*
X133240495Y-57002514D01*
X133383352Y-57050133D01*
X133954780Y-57621561D01*
X133954780Y-57002514D01*
X141120833Y-97321642D02*
X141073214Y-97369261D01*
X140930357Y-97416880D01*
X140835119Y-97416880D01*
X140692261Y-97369261D01*
X140597023Y-97274023D01*
X140549404Y-97178785D01*
X140501785Y-96988309D01*
X140501785Y-96845452D01*
X140549404Y-96654976D01*
X140597023Y-96559738D01*
X140692261Y-96464500D01*
X140835119Y-96416880D01*
X140930357Y-96416880D01*
X141073214Y-96464500D01*
X141120833Y-96512119D01*
X141692261Y-96845452D02*
X141597023Y-96797833D01*
X141549404Y-96750214D01*
X141501785Y-96654976D01*
X141501785Y-96607357D01*
X141549404Y-96512119D01*
X141597023Y-96464500D01*
X141692261Y-96416880D01*
X141882738Y-96416880D01*
X141977976Y-96464500D01*
X142025595Y-96512119D01*
X142073214Y-96607357D01*
X142073214Y-96654976D01*
X142025595Y-96750214D01*
X141977976Y-96797833D01*
X141882738Y-96845452D01*
X141692261Y-96845452D01*
X141597023Y-96893071D01*
X141549404Y-96940690D01*
X141501785Y-97035928D01*
X141501785Y-97226404D01*
X141549404Y-97321642D01*
X141597023Y-97369261D01*
X141692261Y-97416880D01*
X141882738Y-97416880D01*
X141977976Y-97369261D01*
X142025595Y-97321642D01*
X142073214Y-97226404D01*
X142073214Y-97035928D01*
X142025595Y-96940690D01*
X141977976Y-96893071D01*
X141882738Y-96845452D01*
X159238095Y-114752380D02*
X159238095Y-113752380D01*
X159238095Y-114228571D02*
X159809523Y-114228571D01*
X159809523Y-114752380D02*
X159809523Y-113752380D01*
X160714285Y-114085714D02*
X160714285Y-114752380D01*
X160476190Y-113704761D02*
X160238095Y-114419047D01*
X160857142Y-114419047D01*
X159238095Y-54752380D02*
X159238095Y-53752380D01*
X159238095Y-54228571D02*
X159809523Y-54228571D01*
X159809523Y-54752380D02*
X159809523Y-53752380D01*
X160809523Y-54752380D02*
X160238095Y-54752380D01*
X160523809Y-54752380D02*
X160523809Y-53752380D01*
X160428571Y-53895238D01*
X160333333Y-53990476D01*
X160238095Y-54038095D01*
X114238095Y-114752380D02*
X114238095Y-113752380D01*
X114238095Y-114228571D02*
X114809523Y-114228571D01*
X114809523Y-114752380D02*
X114809523Y-113752380D01*
X115190476Y-113752380D02*
X115809523Y-113752380D01*
X115476190Y-114133333D01*
X115619047Y-114133333D01*
X115714285Y-114180952D01*
X115761904Y-114228571D01*
X115809523Y-114323809D01*
X115809523Y-114561904D01*
X115761904Y-114657142D01*
X115714285Y-114704761D01*
X115619047Y-114752380D01*
X115333333Y-114752380D01*
X115238095Y-114704761D01*
X115190476Y-114657142D01*
X138072833Y-66587642D02*
X138025214Y-66635261D01*
X137882357Y-66682880D01*
X137787119Y-66682880D01*
X137644261Y-66635261D01*
X137549023Y-66540023D01*
X137501404Y-66444785D01*
X137453785Y-66254309D01*
X137453785Y-66111452D01*
X137501404Y-65920976D01*
X137549023Y-65825738D01*
X137644261Y-65730500D01*
X137787119Y-65682880D01*
X137882357Y-65682880D01*
X138025214Y-65730500D01*
X138072833Y-65778119D01*
X138406166Y-65682880D02*
X139025214Y-65682880D01*
X138691880Y-66063833D01*
X138834738Y-66063833D01*
X138929976Y-66111452D01*
X138977595Y-66159071D01*
X139025214Y-66254309D01*
X139025214Y-66492404D01*
X138977595Y-66587642D01*
X138929976Y-66635261D01*
X138834738Y-66682880D01*
X138549023Y-66682880D01*
X138453785Y-66635261D01*
X138406166Y-66587642D01*
X113320533Y-67463942D02*
X113272914Y-67511561D01*
X113130057Y-67559180D01*
X113034819Y-67559180D01*
X112891961Y-67511561D01*
X112796723Y-67416323D01*
X112749104Y-67321085D01*
X112701485Y-67130609D01*
X112701485Y-66987752D01*
X112749104Y-66797276D01*
X112796723Y-66702038D01*
X112891961Y-66606800D01*
X113034819Y-66559180D01*
X113130057Y-66559180D01*
X113272914Y-66606800D01*
X113320533Y-66654419D01*
X114272914Y-67559180D02*
X113701485Y-67559180D01*
X113987200Y-67559180D02*
X113987200Y-66559180D01*
X113891961Y-66702038D01*
X113796723Y-66797276D01*
X113701485Y-66844895D01*
X144819642Y-105253857D02*
X144867261Y-105301476D01*
X144914880Y-105444333D01*
X144914880Y-105539571D01*
X144867261Y-105682428D01*
X144772023Y-105777666D01*
X144676785Y-105825285D01*
X144486309Y-105872904D01*
X144343452Y-105872904D01*
X144152976Y-105825285D01*
X144057738Y-105777666D01*
X143962500Y-105682428D01*
X143914880Y-105539571D01*
X143914880Y-105444333D01*
X143962500Y-105301476D01*
X144010119Y-105253857D01*
X144914880Y-104301476D02*
X144914880Y-104872904D01*
X144914880Y-104587190D02*
X143914880Y-104587190D01*
X144057738Y-104682428D01*
X144152976Y-104777666D01*
X144200595Y-104872904D01*
X143914880Y-103968142D02*
X143914880Y-103349095D01*
X144295833Y-103682428D01*
X144295833Y-103539571D01*
X144343452Y-103444333D01*
X144391071Y-103396714D01*
X144486309Y-103349095D01*
X144724404Y-103349095D01*
X144819642Y-103396714D01*
X144867261Y-103444333D01*
X144914880Y-103539571D01*
X144914880Y-103825285D01*
X144867261Y-103920523D01*
X144819642Y-103968142D01*
X153097004Y-86545680D02*
X153097004Y-85545680D01*
X153335100Y-85545680D01*
X153477957Y-85593300D01*
X153573195Y-85688538D01*
X153620814Y-85783776D01*
X153668433Y-85974252D01*
X153668433Y-86117109D01*
X153620814Y-86307585D01*
X153573195Y-86402823D01*
X153477957Y-86498061D01*
X153335100Y-86545680D01*
X153097004Y-86545680D01*
X154049385Y-85640919D02*
X154097004Y-85593300D01*
X154192242Y-85545680D01*
X154430338Y-85545680D01*
X154525576Y-85593300D01*
X154573195Y-85640919D01*
X154620814Y-85736157D01*
X154620814Y-85831395D01*
X154573195Y-85974252D01*
X154001766Y-86545680D01*
X154620814Y-86545680D01*
X114238095Y-54752380D02*
X114238095Y-53752380D01*
X114238095Y-54228571D02*
X114809523Y-54228571D01*
X114809523Y-54752380D02*
X114809523Y-53752380D01*
X115238095Y-53847619D02*
X115285714Y-53800000D01*
X115380952Y-53752380D01*
X115619047Y-53752380D01*
X115714285Y-53800000D01*
X115761904Y-53847619D01*
X115809523Y-53942857D01*
X115809523Y-54038095D01*
X115761904Y-54180952D01*
X115190476Y-54752380D01*
X115809523Y-54752380D01*
X114800142Y-93194142D02*
X114752523Y-93241761D01*
X114609666Y-93289380D01*
X114514428Y-93289380D01*
X114371571Y-93241761D01*
X114276333Y-93146523D01*
X114228714Y-93051285D01*
X114181095Y-92860809D01*
X114181095Y-92717952D01*
X114228714Y-92527476D01*
X114276333Y-92432238D01*
X114371571Y-92337000D01*
X114514428Y-92289380D01*
X114609666Y-92289380D01*
X114752523Y-92337000D01*
X114800142Y-92384619D01*
X115752523Y-93289380D02*
X115181095Y-93289380D01*
X115466809Y-93289380D02*
X115466809Y-92289380D01*
X115371571Y-92432238D01*
X115276333Y-92527476D01*
X115181095Y-92575095D01*
X116704904Y-93289380D02*
X116133476Y-93289380D01*
X116419190Y-93289380D02*
X116419190Y-92289380D01*
X116323952Y-92432238D01*
X116228714Y-92527476D01*
X116133476Y-92575095D01*
X143549642Y-83515666D02*
X143597261Y-83563285D01*
X143644880Y-83706142D01*
X143644880Y-83801380D01*
X143597261Y-83944238D01*
X143502023Y-84039476D01*
X143406785Y-84087095D01*
X143216309Y-84134714D01*
X143073452Y-84134714D01*
X142882976Y-84087095D01*
X142787738Y-84039476D01*
X142692500Y-83944238D01*
X142644880Y-83801380D01*
X142644880Y-83706142D01*
X142692500Y-83563285D01*
X142740119Y-83515666D01*
X143644880Y-83039476D02*
X143644880Y-82849000D01*
X143597261Y-82753761D01*
X143549642Y-82706142D01*
X143406785Y-82610904D01*
X143216309Y-82563285D01*
X142835357Y-82563285D01*
X142740119Y-82610904D01*
X142692500Y-82658523D01*
X142644880Y-82753761D01*
X142644880Y-82944238D01*
X142692500Y-83039476D01*
X142740119Y-83087095D01*
X142835357Y-83134714D01*
X143073452Y-83134714D01*
X143168690Y-83087095D01*
X143216309Y-83039476D01*
X143263928Y-82944238D01*
X143263928Y-82753761D01*
X143216309Y-82658523D01*
X143168690Y-82610904D01*
X143073452Y-82563285D01*
X131558333Y-113432142D02*
X131510714Y-113479761D01*
X131367857Y-113527380D01*
X131272619Y-113527380D01*
X131129761Y-113479761D01*
X131034523Y-113384523D01*
X130986904Y-113289285D01*
X130939285Y-113098809D01*
X130939285Y-112955952D01*
X130986904Y-112765476D01*
X131034523Y-112670238D01*
X131129761Y-112575000D01*
X131272619Y-112527380D01*
X131367857Y-112527380D01*
X131510714Y-112575000D01*
X131558333Y-112622619D01*
X132463095Y-112527380D02*
X131986904Y-112527380D01*
X131939285Y-113003571D01*
X131986904Y-112955952D01*
X132082142Y-112908333D01*
X132320238Y-112908333D01*
X132415476Y-112955952D01*
X132463095Y-113003571D01*
X132510714Y-113098809D01*
X132510714Y-113336904D01*
X132463095Y-113432142D01*
X132415476Y-113479761D01*
X132320238Y-113527380D01*
X132082142Y-113527380D01*
X131986904Y-113479761D01*
X131939285Y-113432142D01*
X156094133Y-68733942D02*
X156046514Y-68781561D01*
X155903657Y-68829180D01*
X155808419Y-68829180D01*
X155665561Y-68781561D01*
X155570323Y-68686323D01*
X155522704Y-68591085D01*
X155475085Y-68400609D01*
X155475085Y-68257752D01*
X155522704Y-68067276D01*
X155570323Y-67972038D01*
X155665561Y-67876800D01*
X155808419Y-67829180D01*
X155903657Y-67829180D01*
X156046514Y-67876800D01*
X156094133Y-67924419D01*
X156951276Y-68162514D02*
X156951276Y-68829180D01*
X156713180Y-67781561D02*
X156475085Y-68495847D01*
X157094133Y-68495847D01*
X144727380Y-100542857D02*
X144251190Y-100876190D01*
X144727380Y-101114285D02*
X143727380Y-101114285D01*
X143727380Y-100733333D01*
X143775000Y-100638095D01*
X143822619Y-100590476D01*
X143917857Y-100542857D01*
X144060714Y-100542857D01*
X144155952Y-100590476D01*
X144203571Y-100638095D01*
X144251190Y-100733333D01*
X144251190Y-101114285D01*
X143822619Y-100161904D02*
X143775000Y-100114285D01*
X143727380Y-100019047D01*
X143727380Y-99780952D01*
X143775000Y-99685714D01*
X143822619Y-99638095D01*
X143917857Y-99590476D01*
X144013095Y-99590476D01*
X144155952Y-99638095D01*
X144727380Y-100209523D01*
X144727380Y-99590476D01*
X144727380Y-98638095D02*
X144727380Y-99209523D01*
X144727380Y-98923809D02*
X143727380Y-98923809D01*
X143870238Y-99019047D01*
X143965476Y-99114285D01*
X144013095Y-99209523D01*
X150518880Y-102592023D02*
X151518880Y-102258690D01*
X150518880Y-101925357D01*
X151518880Y-101020595D02*
X151042690Y-101353928D01*
X151518880Y-101592023D02*
X150518880Y-101592023D01*
X150518880Y-101211071D01*
X150566500Y-101115833D01*
X150614119Y-101068214D01*
X150709357Y-101020595D01*
X150852214Y-101020595D01*
X150947452Y-101068214D01*
X150995071Y-101115833D01*
X151042690Y-101211071D01*
X151042690Y-101592023D01*
X151518880Y-100068214D02*
X151518880Y-100639642D01*
X151518880Y-100353928D02*
X150518880Y-100353928D01*
X150661738Y-100449166D01*
X150756976Y-100544404D01*
X150804595Y-100639642D01*
X141628880Y-89534904D02*
X142438404Y-89534904D01*
X142533642Y-89487285D01*
X142581261Y-89439666D01*
X142628880Y-89344428D01*
X142628880Y-89153952D01*
X142581261Y-89058714D01*
X142533642Y-89011095D01*
X142438404Y-88963476D01*
X141628880Y-88963476D01*
X141628880Y-88582523D02*
X141628880Y-87915857D01*
X142628880Y-88344428D01*
X146240595Y-61834780D02*
X146240595Y-62644304D01*
X146288214Y-62739542D01*
X146335833Y-62787161D01*
X146431071Y-62834780D01*
X146621547Y-62834780D01*
X146716785Y-62787161D01*
X146764404Y-62739542D01*
X146812023Y-62644304D01*
X146812023Y-61834780D01*
X147812023Y-62834780D02*
X147240595Y-62834780D01*
X147526309Y-62834780D02*
X147526309Y-61834780D01*
X147431071Y-61977638D01*
X147335833Y-62072876D01*
X147240595Y-62120495D01*
X141702380Y-101488095D02*
X142511904Y-101488095D01*
X142607142Y-101440476D01*
X142654761Y-101392857D01*
X142702380Y-101297619D01*
X142702380Y-101107142D01*
X142654761Y-101011904D01*
X142607142Y-100964285D01*
X142511904Y-100916666D01*
X141702380Y-100916666D01*
X142702380Y-99916666D02*
X142702380Y-100488095D01*
X142702380Y-100202380D02*
X141702380Y-100202380D01*
X141845238Y-100297619D01*
X141940476Y-100392857D01*
X141988095Y-100488095D01*
X141702380Y-99297619D02*
X141702380Y-99202380D01*
X141750000Y-99107142D01*
X141797619Y-99059523D01*
X141892857Y-99011904D01*
X142083333Y-98964285D01*
X142321428Y-98964285D01*
X142511904Y-99011904D01*
X142607142Y-99059523D01*
X142654761Y-99107142D01*
X142702380Y-99202380D01*
X142702380Y-99297619D01*
X142654761Y-99392857D01*
X142607142Y-99440476D01*
X142511904Y-99488095D01*
X142321428Y-99535714D01*
X142083333Y-99535714D01*
X141892857Y-99488095D01*
X141797619Y-99440476D01*
X141750000Y-99392857D01*
X141702380Y-99297619D01*
X143568895Y-72477180D02*
X144140323Y-72477180D01*
X143854609Y-73477180D02*
X143854609Y-72477180D01*
X144473657Y-73477180D02*
X144473657Y-72477180D01*
X144854609Y-72477180D01*
X144949847Y-72524800D01*
X144997466Y-72572419D01*
X145045085Y-72667657D01*
X145045085Y-72810514D01*
X144997466Y-72905752D01*
X144949847Y-72953371D01*
X144854609Y-73000990D01*
X144473657Y-73000990D01*
X145902228Y-72477180D02*
X145711752Y-72477180D01*
X145616514Y-72524800D01*
X145568895Y-72572419D01*
X145473657Y-72715276D01*
X145426038Y-72905752D01*
X145426038Y-73286704D01*
X145473657Y-73381942D01*
X145521276Y-73429561D01*
X145616514Y-73477180D01*
X145806990Y-73477180D01*
X145902228Y-73429561D01*
X145949847Y-73381942D01*
X145997466Y-73286704D01*
X145997466Y-73048609D01*
X145949847Y-72953371D01*
X145902228Y-72905752D01*
X145806990Y-72858133D01*
X145616514Y-72858133D01*
X145521276Y-72905752D01*
X145473657Y-72953371D01*
X145426038Y-73048609D01*
X139238095Y-85652380D02*
X139238095Y-86461904D01*
X139285714Y-86557142D01*
X139333333Y-86604761D01*
X139428571Y-86652380D01*
X139619047Y-86652380D01*
X139714285Y-86604761D01*
X139761904Y-86557142D01*
X139809523Y-86461904D01*
X139809523Y-85652380D01*
X140428571Y-86080952D02*
X140333333Y-86033333D01*
X140285714Y-85985714D01*
X140238095Y-85890476D01*
X140238095Y-85842857D01*
X140285714Y-85747619D01*
X140333333Y-85700000D01*
X140428571Y-85652380D01*
X140619047Y-85652380D01*
X140714285Y-85700000D01*
X140761904Y-85747619D01*
X140809523Y-85842857D01*
X140809523Y-85890476D01*
X140761904Y-85985714D01*
X140714285Y-86033333D01*
X140619047Y-86080952D01*
X140428571Y-86080952D01*
X140333333Y-86128571D01*
X140285714Y-86176190D01*
X140238095Y-86271428D01*
X140238095Y-86461904D01*
X140285714Y-86557142D01*
X140333333Y-86604761D01*
X140428571Y-86652380D01*
X140619047Y-86652380D01*
X140714285Y-86604761D01*
X140761904Y-86557142D01*
X140809523Y-86461904D01*
X140809523Y-86271428D01*
X140761904Y-86176190D01*
X140714285Y-86128571D01*
X140619047Y-86080952D01*
X160753466Y-85158780D02*
X160753466Y-85873066D01*
X160705847Y-86015923D01*
X160610609Y-86111161D01*
X160467752Y-86158780D01*
X160372514Y-86158780D01*
X161182038Y-85254019D02*
X161229657Y-85206400D01*
X161324895Y-85158780D01*
X161562990Y-85158780D01*
X161658228Y-85206400D01*
X161705847Y-85254019D01*
X161753466Y-85349257D01*
X161753466Y-85444495D01*
X161705847Y-85587352D01*
X161134419Y-86158780D01*
X161753466Y-86158780D01*
X137136142Y-87606166D02*
X137183761Y-87653785D01*
X137231380Y-87796642D01*
X137231380Y-87891880D01*
X137183761Y-88034738D01*
X137088523Y-88129976D01*
X136993285Y-88177595D01*
X136802809Y-88225214D01*
X136659952Y-88225214D01*
X136469476Y-88177595D01*
X136374238Y-88129976D01*
X136279000Y-88034738D01*
X136231380Y-87891880D01*
X136231380Y-87796642D01*
X136279000Y-87653785D01*
X136326619Y-87606166D01*
X136231380Y-87272833D02*
X136231380Y-86606166D01*
X137231380Y-87034738D01*
X155892666Y-106389761D02*
X156035523Y-106437380D01*
X156273619Y-106437380D01*
X156368857Y-106389761D01*
X156416476Y-106342142D01*
X156464095Y-106246904D01*
X156464095Y-106151666D01*
X156416476Y-106056428D01*
X156368857Y-106008809D01*
X156273619Y-105961190D01*
X156083142Y-105913571D01*
X155987904Y-105865952D01*
X155940285Y-105818333D01*
X155892666Y-105723095D01*
X155892666Y-105627857D01*
X155940285Y-105532619D01*
X155987904Y-105485000D01*
X156083142Y-105437380D01*
X156321238Y-105437380D01*
X156464095Y-105485000D01*
X156797428Y-105437380D02*
X157035523Y-106437380D01*
X157226000Y-105723095D01*
X157416476Y-106437380D01*
X157654571Y-105437380D01*
X158559333Y-106437380D02*
X157987904Y-106437380D01*
X158273619Y-106437380D02*
X158273619Y-105437380D01*
X158178380Y-105580238D01*
X158083142Y-105675476D01*
X157987904Y-105723095D01*
X136951980Y-71715238D02*
X136475790Y-72048571D01*
X136951980Y-72286666D02*
X135951980Y-72286666D01*
X135951980Y-71905714D01*
X135999600Y-71810476D01*
X136047219Y-71762857D01*
X136142457Y-71715238D01*
X136285314Y-71715238D01*
X136380552Y-71762857D01*
X136428171Y-71810476D01*
X136475790Y-71905714D01*
X136475790Y-72286666D01*
X135951980Y-71429523D02*
X136951980Y-71096190D01*
X135951980Y-70762857D01*
X136285314Y-70000952D02*
X136951980Y-70000952D01*
X135904361Y-70239047D02*
X136618647Y-70477142D01*
X136618647Y-69858095D01*
X131595833Y-114847642D02*
X131548214Y-114895261D01*
X131405357Y-114942880D01*
X131310119Y-114942880D01*
X131167261Y-114895261D01*
X131072023Y-114800023D01*
X131024404Y-114704785D01*
X130976785Y-114514309D01*
X130976785Y-114371452D01*
X131024404Y-114180976D01*
X131072023Y-114085738D01*
X131167261Y-113990500D01*
X131310119Y-113942880D01*
X131405357Y-113942880D01*
X131548214Y-113990500D01*
X131595833Y-114038119D01*
X132452976Y-113942880D02*
X132262500Y-113942880D01*
X132167261Y-113990500D01*
X132119642Y-114038119D01*
X132024404Y-114180976D01*
X131976785Y-114371452D01*
X131976785Y-114752404D01*
X132024404Y-114847642D01*
X132072023Y-114895261D01*
X132167261Y-114942880D01*
X132357738Y-114942880D01*
X132452976Y-114895261D01*
X132500595Y-114847642D01*
X132548214Y-114752404D01*
X132548214Y-114514309D01*
X132500595Y-114419071D01*
X132452976Y-114371452D01*
X132357738Y-114323833D01*
X132167261Y-114323833D01*
X132072023Y-114371452D01*
X132024404Y-114419071D01*
X131976785Y-114514309D01*
X131107142Y-108955380D02*
X130773809Y-108479190D01*
X130535714Y-108955380D02*
X130535714Y-107955380D01*
X130916666Y-107955380D01*
X131011904Y-108003000D01*
X131059523Y-108050619D01*
X131107142Y-108145857D01*
X131107142Y-108288714D01*
X131059523Y-108383952D01*
X131011904Y-108431571D01*
X130916666Y-108479190D01*
X130535714Y-108479190D01*
X132059523Y-108955380D02*
X131488095Y-108955380D01*
X131773809Y-108955380D02*
X131773809Y-107955380D01*
X131678571Y-108098238D01*
X131583333Y-108193476D01*
X131488095Y-108241095D01*
X132964285Y-107955380D02*
X132488095Y-107955380D01*
X132440476Y-108431571D01*
X132488095Y-108383952D01*
X132583333Y-108336333D01*
X132821428Y-108336333D01*
X132916666Y-108383952D01*
X132964285Y-108431571D01*
X133011904Y-108526809D01*
X133011904Y-108764904D01*
X132964285Y-108860142D01*
X132916666Y-108907761D01*
X132821428Y-108955380D01*
X132583333Y-108955380D01*
X132488095Y-108907761D01*
X132440476Y-108860142D01*
X143502142Y-108910380D02*
X143168809Y-108434190D01*
X142930714Y-108910380D02*
X142930714Y-107910380D01*
X143311666Y-107910380D01*
X143406904Y-107958000D01*
X143454523Y-108005619D01*
X143502142Y-108100857D01*
X143502142Y-108243714D01*
X143454523Y-108338952D01*
X143406904Y-108386571D01*
X143311666Y-108434190D01*
X142930714Y-108434190D01*
X144454523Y-108910380D02*
X143883095Y-108910380D01*
X144168809Y-108910380D02*
X144168809Y-107910380D01*
X144073571Y-108053238D01*
X143978333Y-108148476D01*
X143883095Y-108196095D01*
X145311666Y-107910380D02*
X145121190Y-107910380D01*
X145025952Y-107958000D01*
X144978333Y-108005619D01*
X144883095Y-108148476D01*
X144835476Y-108338952D01*
X144835476Y-108719904D01*
X144883095Y-108815142D01*
X144930714Y-108862761D01*
X145025952Y-108910380D01*
X145216428Y-108910380D01*
X145311666Y-108862761D01*
X145359285Y-108815142D01*
X145406904Y-108719904D01*
X145406904Y-108481809D01*
X145359285Y-108386571D01*
X145311666Y-108338952D01*
X145216428Y-108291333D01*
X145025952Y-108291333D01*
X144930714Y-108338952D01*
X144883095Y-108386571D01*
X144835476Y-108481809D01*
X123761880Y-121181738D02*
X123285690Y-121515071D01*
X123761880Y-121753166D02*
X122761880Y-121753166D01*
X122761880Y-121372214D01*
X122809500Y-121276976D01*
X122857119Y-121229357D01*
X122952357Y-121181738D01*
X123095214Y-121181738D01*
X123190452Y-121229357D01*
X123238071Y-121276976D01*
X123285690Y-121372214D01*
X123285690Y-121753166D01*
X122761880Y-120896023D02*
X123761880Y-120562690D01*
X122761880Y-120229357D01*
X123190452Y-119753166D02*
X123142833Y-119848404D01*
X123095214Y-119896023D01*
X122999976Y-119943642D01*
X122952357Y-119943642D01*
X122857119Y-119896023D01*
X122809500Y-119848404D01*
X122761880Y-119753166D01*
X122761880Y-119562690D01*
X122809500Y-119467452D01*
X122857119Y-119419833D01*
X122952357Y-119372214D01*
X122999976Y-119372214D01*
X123095214Y-119419833D01*
X123142833Y-119467452D01*
X123190452Y-119562690D01*
X123190452Y-119753166D01*
X123238071Y-119848404D01*
X123285690Y-119896023D01*
X123380928Y-119943642D01*
X123571404Y-119943642D01*
X123666642Y-119896023D01*
X123714261Y-119848404D01*
X123761880Y-119753166D01*
X123761880Y-119562690D01*
X123714261Y-119467452D01*
X123666642Y-119419833D01*
X123571404Y-119372214D01*
X123380928Y-119372214D01*
X123285690Y-119419833D01*
X123238071Y-119467452D01*
X123190452Y-119562690D01*
X126161904Y-94450380D02*
X126733333Y-94450380D01*
X126447619Y-95450380D02*
X126447619Y-94450380D01*
X127066666Y-95450380D02*
X127066666Y-94450380D01*
X127447619Y-94450380D01*
X127542857Y-94498000D01*
X127590476Y-94545619D01*
X127638095Y-94640857D01*
X127638095Y-94783714D01*
X127590476Y-94878952D01*
X127542857Y-94926571D01*
X127447619Y-94974190D01*
X127066666Y-94974190D01*
X128019047Y-94545619D02*
X128066666Y-94498000D01*
X128161904Y-94450380D01*
X128400000Y-94450380D01*
X128495238Y-94498000D01*
X128542857Y-94545619D01*
X128590476Y-94640857D01*
X128590476Y-94736095D01*
X128542857Y-94878952D01*
X127971428Y-95450380D01*
X128590476Y-95450380D01*
X129209523Y-94450380D02*
X129304761Y-94450380D01*
X129400000Y-94498000D01*
X129447619Y-94545619D01*
X129495238Y-94640857D01*
X129542857Y-94831333D01*
X129542857Y-95069428D01*
X129495238Y-95259904D01*
X129447619Y-95355142D01*
X129400000Y-95402761D01*
X129304761Y-95450380D01*
X129209523Y-95450380D01*
X129114285Y-95402761D01*
X129066666Y-95355142D01*
X129019047Y-95259904D01*
X128971428Y-95069428D01*
X128971428Y-94831333D01*
X129019047Y-94640857D01*
X129066666Y-94545619D01*
X129114285Y-94498000D01*
X129209523Y-94450380D01*
X126111904Y-87154380D02*
X126683333Y-87154380D01*
X126397619Y-88154380D02*
X126397619Y-87154380D01*
X127016666Y-88154380D02*
X127016666Y-87154380D01*
X127397619Y-87154380D01*
X127492857Y-87202000D01*
X127540476Y-87249619D01*
X127588095Y-87344857D01*
X127588095Y-87487714D01*
X127540476Y-87582952D01*
X127492857Y-87630571D01*
X127397619Y-87678190D01*
X127016666Y-87678190D01*
X127969047Y-87249619D02*
X128016666Y-87202000D01*
X128111904Y-87154380D01*
X128350000Y-87154380D01*
X128445238Y-87202000D01*
X128492857Y-87249619D01*
X128540476Y-87344857D01*
X128540476Y-87440095D01*
X128492857Y-87582952D01*
X127921428Y-88154380D01*
X128540476Y-88154380D01*
X129492857Y-88154380D02*
X128921428Y-88154380D01*
X129207142Y-88154380D02*
X129207142Y-87154380D01*
X129111904Y-87297238D01*
X129016666Y-87392476D01*
X128921428Y-87440095D01*
X121689880Y-92392404D02*
X122499404Y-92392404D01*
X122594642Y-92344785D01*
X122642261Y-92297166D01*
X122689880Y-92201928D01*
X122689880Y-92011452D01*
X122642261Y-91916214D01*
X122594642Y-91868595D01*
X122499404Y-91820976D01*
X121689880Y-91820976D01*
X122689880Y-91297166D02*
X122689880Y-91106690D01*
X122642261Y-91011452D01*
X122594642Y-90963833D01*
X122451785Y-90868595D01*
X122261309Y-90820976D01*
X121880357Y-90820976D01*
X121785119Y-90868595D01*
X121737500Y-90916214D01*
X121689880Y-91011452D01*
X121689880Y-91201928D01*
X121737500Y-91297166D01*
X121785119Y-91344785D01*
X121880357Y-91392404D01*
X122118452Y-91392404D01*
X122213690Y-91344785D01*
X122261309Y-91297166D01*
X122308928Y-91201928D01*
X122308928Y-91011452D01*
X122261309Y-90916214D01*
X122213690Y-90868595D01*
X122118452Y-90820976D01*
X131722833Y-68873642D02*
X131675214Y-68921261D01*
X131532357Y-68968880D01*
X131437119Y-68968880D01*
X131294261Y-68921261D01*
X131199023Y-68826023D01*
X131151404Y-68730785D01*
X131103785Y-68540309D01*
X131103785Y-68397452D01*
X131151404Y-68206976D01*
X131199023Y-68111738D01*
X131294261Y-68016500D01*
X131437119Y-67968880D01*
X131532357Y-67968880D01*
X131675214Y-68016500D01*
X131722833Y-68064119D01*
X132103785Y-68064119D02*
X132151404Y-68016500D01*
X132246642Y-67968880D01*
X132484738Y-67968880D01*
X132579976Y-68016500D01*
X132627595Y-68064119D01*
X132675214Y-68159357D01*
X132675214Y-68254595D01*
X132627595Y-68397452D01*
X132056166Y-68968880D01*
X132675214Y-68968880D01*
X110613866Y-83482380D02*
X110613866Y-84196666D01*
X110566247Y-84339523D01*
X110471009Y-84434761D01*
X110328152Y-84482380D01*
X110232914Y-84482380D01*
X111613866Y-84482380D02*
X111042438Y-84482380D01*
X111328152Y-84482380D02*
X111328152Y-83482380D01*
X111232914Y-83625238D01*
X111137676Y-83720476D01*
X111042438Y-83768095D01*
X148859380Y-121657928D02*
X148383190Y-121991261D01*
X148859380Y-122229357D02*
X147859380Y-122229357D01*
X147859380Y-121848404D01*
X147907000Y-121753166D01*
X147954619Y-121705547D01*
X148049857Y-121657928D01*
X148192714Y-121657928D01*
X148287952Y-121705547D01*
X148335571Y-121753166D01*
X148383190Y-121848404D01*
X148383190Y-122229357D01*
X147859380Y-121372214D02*
X148859380Y-121038880D01*
X147859380Y-120705547D01*
X148859380Y-119848404D02*
X148859380Y-120419833D01*
X148859380Y-120134119D02*
X147859380Y-120134119D01*
X148002238Y-120229357D01*
X148097476Y-120324595D01*
X148145095Y-120419833D01*
X147859380Y-119229357D02*
X147859380Y-119134119D01*
X147907000Y-119038880D01*
X147954619Y-118991261D01*
X148049857Y-118943642D01*
X148240333Y-118896023D01*
X148478428Y-118896023D01*
X148668904Y-118943642D01*
X148764142Y-118991261D01*
X148811761Y-119038880D01*
X148859380Y-119134119D01*
X148859380Y-119229357D01*
X148811761Y-119324595D01*
X148764142Y-119372214D01*
X148668904Y-119419833D01*
X148478428Y-119467452D01*
X148240333Y-119467452D01*
X148049857Y-119419833D01*
X147954619Y-119372214D01*
X147907000Y-119324595D01*
X147859380Y-119229357D01*
X150407642Y-105354357D02*
X150455261Y-105401976D01*
X150502880Y-105544833D01*
X150502880Y-105640071D01*
X150455261Y-105782928D01*
X150360023Y-105878166D01*
X150264785Y-105925785D01*
X150074309Y-105973404D01*
X149931452Y-105973404D01*
X149740976Y-105925785D01*
X149645738Y-105878166D01*
X149550500Y-105782928D01*
X149502880Y-105640071D01*
X149502880Y-105544833D01*
X149550500Y-105401976D01*
X149598119Y-105354357D01*
X150502880Y-104401976D02*
X150502880Y-104973404D01*
X150502880Y-104687690D02*
X149502880Y-104687690D01*
X149645738Y-104782928D01*
X149740976Y-104878166D01*
X149788595Y-104973404D01*
X149598119Y-104021023D02*
X149550500Y-103973404D01*
X149502880Y-103878166D01*
X149502880Y-103640071D01*
X149550500Y-103544833D01*
X149598119Y-103497214D01*
X149693357Y-103449595D01*
X149788595Y-103449595D01*
X149931452Y-103497214D01*
X150502880Y-104068642D01*
X150502880Y-103449595D01*
X136993380Y-92011404D02*
X137802904Y-92011404D01*
X137898142Y-91963785D01*
X137945761Y-91916166D01*
X137993380Y-91820928D01*
X137993380Y-91630452D01*
X137945761Y-91535214D01*
X137898142Y-91487595D01*
X137802904Y-91439976D01*
X136993380Y-91439976D01*
X136993380Y-90535214D02*
X136993380Y-90725690D01*
X137041000Y-90820928D01*
X137088619Y-90868547D01*
X137231476Y-90963785D01*
X137421952Y-91011404D01*
X137802904Y-91011404D01*
X137898142Y-90963785D01*
X137945761Y-90916166D01*
X137993380Y-90820928D01*
X137993380Y-90630452D01*
X137945761Y-90535214D01*
X137898142Y-90487595D01*
X137802904Y-90439976D01*
X137564809Y-90439976D01*
X137469571Y-90487595D01*
X137421952Y-90535214D01*
X137374333Y-90630452D01*
X137374333Y-90820928D01*
X137421952Y-90916166D01*
X137469571Y-90963785D01*
X137564809Y-91011404D01*
X137096595Y-117181380D02*
X137096595Y-117990904D01*
X137144214Y-118086142D01*
X137191833Y-118133761D01*
X137287071Y-118181380D01*
X137477547Y-118181380D01*
X137572785Y-118133761D01*
X137620404Y-118086142D01*
X137668023Y-117990904D01*
X137668023Y-117181380D01*
X138620404Y-117181380D02*
X138144214Y-117181380D01*
X138096595Y-117657571D01*
X138144214Y-117609952D01*
X138239452Y-117562333D01*
X138477547Y-117562333D01*
X138572785Y-117609952D01*
X138620404Y-117657571D01*
X138668023Y-117752809D01*
X138668023Y-117990904D01*
X138620404Y-118086142D01*
X138572785Y-118133761D01*
X138477547Y-118181380D01*
X138239452Y-118181380D01*
X138144214Y-118133761D01*
X138096595Y-118086142D01*
X137289942Y-65032780D02*
X136956609Y-64556590D01*
X136718514Y-65032780D02*
X136718514Y-64032780D01*
X137099466Y-64032780D01*
X137194704Y-64080400D01*
X137242323Y-64128019D01*
X137289942Y-64223257D01*
X137289942Y-64366114D01*
X137242323Y-64461352D01*
X137194704Y-64508971D01*
X137099466Y-64556590D01*
X136718514Y-64556590D01*
X138242323Y-65032780D02*
X137670895Y-65032780D01*
X137956609Y-65032780D02*
X137956609Y-64032780D01*
X137861371Y-64175638D01*
X137766133Y-64270876D01*
X137670895Y-64318495D01*
X138575657Y-64032780D02*
X139194704Y-64032780D01*
X138861371Y-64413733D01*
X139004228Y-64413733D01*
X139099466Y-64461352D01*
X139147085Y-64508971D01*
X139194704Y-64604209D01*
X139194704Y-64842304D01*
X139147085Y-64937542D01*
X139099466Y-64985161D01*
X139004228Y-65032780D01*
X138718514Y-65032780D01*
X138623276Y-64985161D01*
X138575657Y-64937542D01*
X121920095Y-61799880D02*
X121920095Y-62609404D01*
X121967714Y-62704642D01*
X122015333Y-62752261D01*
X122110571Y-62799880D01*
X122301047Y-62799880D01*
X122396285Y-62752261D01*
X122443904Y-62704642D01*
X122491523Y-62609404D01*
X122491523Y-61799880D01*
X122920095Y-61895119D02*
X122967714Y-61847500D01*
X123062952Y-61799880D01*
X123301047Y-61799880D01*
X123396285Y-61847500D01*
X123443904Y-61895119D01*
X123491523Y-61990357D01*
X123491523Y-62085595D01*
X123443904Y-62228452D01*
X122872476Y-62799880D01*
X123491523Y-62799880D01*
X131739333Y-64546880D02*
X131406000Y-64070690D01*
X131167904Y-64546880D02*
X131167904Y-63546880D01*
X131548857Y-63546880D01*
X131644095Y-63594500D01*
X131691714Y-63642119D01*
X131739333Y-63737357D01*
X131739333Y-63880214D01*
X131691714Y-63975452D01*
X131644095Y-64023071D01*
X131548857Y-64070690D01*
X131167904Y-64070690D01*
X132215523Y-64546880D02*
X132406000Y-64546880D01*
X132501238Y-64499261D01*
X132548857Y-64451642D01*
X132644095Y-64308785D01*
X132691714Y-64118309D01*
X132691714Y-63737357D01*
X132644095Y-63642119D01*
X132596476Y-63594500D01*
X132501238Y-63546880D01*
X132310761Y-63546880D01*
X132215523Y-63594500D01*
X132167904Y-63642119D01*
X132120285Y-63737357D01*
X132120285Y-63975452D01*
X132167904Y-64070690D01*
X132215523Y-64118309D01*
X132310761Y-64165928D01*
X132501238Y-64165928D01*
X132596476Y-64118309D01*
X132644095Y-64070690D01*
X132691714Y-63975452D01*
X131119642Y-119641880D02*
X130786309Y-119165690D01*
X130548214Y-119641880D02*
X130548214Y-118641880D01*
X130929166Y-118641880D01*
X131024404Y-118689500D01*
X131072023Y-118737119D01*
X131119642Y-118832357D01*
X131119642Y-118975214D01*
X131072023Y-119070452D01*
X131024404Y-119118071D01*
X130929166Y-119165690D01*
X130548214Y-119165690D01*
X132072023Y-119641880D02*
X131500595Y-119641880D01*
X131786309Y-119641880D02*
X131786309Y-118641880D01*
X131691071Y-118784738D01*
X131595833Y-118879976D01*
X131500595Y-118927595D01*
X132929166Y-118975214D02*
X132929166Y-119641880D01*
X132691071Y-118594261D02*
X132452976Y-119308547D01*
X133072023Y-119308547D01*
X154297142Y-83256380D02*
X153963809Y-82780190D01*
X153725714Y-83256380D02*
X153725714Y-82256380D01*
X154106666Y-82256380D01*
X154201904Y-82304000D01*
X154249523Y-82351619D01*
X154297142Y-82446857D01*
X154297142Y-82589714D01*
X154249523Y-82684952D01*
X154201904Y-82732571D01*
X154106666Y-82780190D01*
X153725714Y-82780190D01*
X155249523Y-83256380D02*
X154678095Y-83256380D01*
X154963809Y-83256380D02*
X154963809Y-82256380D01*
X154868571Y-82399238D01*
X154773333Y-82494476D01*
X154678095Y-82542095D01*
X156201904Y-83256380D02*
X155630476Y-83256380D01*
X155916190Y-83256380D02*
X155916190Y-82256380D01*
X155820952Y-82399238D01*
X155725714Y-82494476D01*
X155630476Y-82542095D01*
X131233404Y-96278380D02*
X131804833Y-96278380D01*
X131519119Y-97278380D02*
X131519119Y-96278380D01*
X132138166Y-97278380D02*
X132138166Y-96278380D01*
X132519119Y-96278380D01*
X132614357Y-96326000D01*
X132661976Y-96373619D01*
X132709595Y-96468857D01*
X132709595Y-96611714D01*
X132661976Y-96706952D01*
X132614357Y-96754571D01*
X132519119Y-96802190D01*
X132138166Y-96802190D01*
X133090547Y-96373619D02*
X133138166Y-96326000D01*
X133233404Y-96278380D01*
X133471500Y-96278380D01*
X133566738Y-96326000D01*
X133614357Y-96373619D01*
X133661976Y-96468857D01*
X133661976Y-96564095D01*
X133614357Y-96706952D01*
X133042928Y-97278380D01*
X133661976Y-97278380D01*
X134042928Y-96373619D02*
X134090547Y-96326000D01*
X134185785Y-96278380D01*
X134423880Y-96278380D01*
X134519119Y-96326000D01*
X134566738Y-96373619D01*
X134614357Y-96468857D01*
X134614357Y-96564095D01*
X134566738Y-96706952D01*
X133995309Y-97278380D01*
X134614357Y-97278380D01*
X155663057Y-80462380D02*
X155329724Y-79986190D01*
X155091628Y-80462380D02*
X155091628Y-79462380D01*
X155472581Y-79462380D01*
X155567819Y-79510000D01*
X155615438Y-79557619D01*
X155663057Y-79652857D01*
X155663057Y-79795714D01*
X155615438Y-79890952D01*
X155567819Y-79938571D01*
X155472581Y-79986190D01*
X155091628Y-79986190D01*
X156615438Y-80462380D02*
X156044009Y-80462380D01*
X156329724Y-80462380D02*
X156329724Y-79462380D01*
X156234485Y-79605238D01*
X156139247Y-79700476D01*
X156044009Y-79748095D01*
D12*
X156925000Y-85475000D02*
G75*
G03*
X156925000Y-85475000I-700000J0D01*
G01*
X145135800Y-60900000D02*
G75*
G03*
X145135800Y-60900000I-700000J0D01*
G01*
X121700000Y-96750000D02*
G75*
G03*
X121700000Y-96750000I-700000J0D01*
G01*
X120300000Y-86050000D02*
G75*
G03*
X120300000Y-86050000I-700000J0D01*
G01*
X132025000Y-120700000D02*
G75*
G03*
X132025000Y-120700000I-700000J0D01*
G01*
X125858500Y-74549000D02*
G75*
G03*
X125858500Y-74549000I-700000J0D01*
G01*
X141050000Y-118900000D02*
G75*
G03*
X141050000Y-118900000I-700000J0D01*
G01*
X149225000Y-60900000D02*
G75*
G03*
X149225000Y-60900000I-700000J0D01*
G01*
X150153600Y-74472800D02*
G75*
G03*
X150153600Y-74472800I-700000J0D01*
G01*
X150075000Y-97200000D02*
G75*
G03*
X150075000Y-97200000I-700000J0D01*
G01*
X131950000Y-86500000D02*
G75*
G03*
X131950000Y-86500000I-700000J0D01*
G01*
X120778500Y-74549000D02*
G75*
G03*
X120778500Y-74549000I-700000J0D01*
G01*
X152875000Y-88250000D02*
G75*
G03*
X152875000Y-88250000I-700000J0D01*
G01*
X129700000Y-81000000D02*
G75*
G03*
X129700000Y-81000000I-700000J0D01*
G01*
X125825000Y-61275000D02*
G75*
G03*
X125825000Y-61275000I-700000J0D01*
G01*
X137875000Y-96475000D02*
G75*
G03*
X137875000Y-96475000I-700000J0D01*
G01*
X127573000Y-116078000D02*
G75*
G03*
X127573000Y-116078000I-700000J0D01*
G01*
X129822500Y-100170276D02*
X129822500Y-100679724D01*
X128777500Y-100170276D02*
X128777500Y-100679724D01*
X131981500Y-74720500D02*
X131981500Y-75100500D01*
X131981500Y-75100500D02*
X128241500Y-75100500D01*
X128241500Y-73820500D02*
X128241500Y-75100500D01*
X131981500Y-70060500D02*
X128241500Y-70060500D01*
X131981500Y-70060500D02*
X131981500Y-70440500D01*
X128241500Y-70060500D02*
X128241500Y-71340500D01*
X131981500Y-72220500D02*
X131981500Y-72940500D01*
X153262876Y-64378100D02*
X153772324Y-64378100D01*
X153262876Y-63333100D02*
X153772324Y-63333100D01*
X124876000Y-113137000D02*
X128616000Y-113137000D01*
X124876000Y-113137000D02*
X124876000Y-112757000D01*
X124876000Y-108097000D02*
X128616000Y-108097000D01*
X124876000Y-108477000D02*
X124876000Y-108097000D01*
X128616000Y-109377000D02*
X128616000Y-108097000D01*
X128616000Y-113137000D02*
X128616000Y-111857000D01*
X124876000Y-110977000D02*
X124876000Y-110257000D01*
X155400000Y-95800000D02*
G75*
G03*
X155400000Y-95800000I-700000J0D01*
G01*
X125895000Y-103395000D02*
X122155000Y-103395000D01*
X125895000Y-98355000D02*
X125895000Y-98735000D01*
X122155000Y-102115000D02*
X122155000Y-103395000D01*
X125895000Y-103015000D02*
X125895000Y-103395000D01*
X125895000Y-100515000D02*
X125895000Y-101235000D01*
X125895000Y-98355000D02*
X122155000Y-98355000D01*
X122155000Y-98355000D02*
X122155000Y-99635000D01*
X124552000Y-78633000D02*
X120812000Y-78633000D01*
X124552000Y-78633000D02*
X124552000Y-79013000D01*
X124552000Y-80793000D02*
X124552000Y-81513000D01*
X120812000Y-78633000D02*
X120812000Y-79913000D01*
X120812000Y-82393000D02*
X120812000Y-83673000D01*
X124552000Y-83673000D02*
X120812000Y-83673000D01*
X124552000Y-83293000D02*
X124552000Y-83673000D01*
X141273000Y-79183776D02*
X141273000Y-79693224D01*
X142318000Y-79183776D02*
X142318000Y-79693224D01*
X152409600Y-73731600D02*
X152409600Y-75011600D01*
X156149600Y-75011600D02*
X152409600Y-75011600D01*
X156149600Y-72131600D02*
X156149600Y-72851600D01*
X152409600Y-69971600D02*
X152409600Y-71251600D01*
X156149600Y-69971600D02*
X156149600Y-70351600D01*
X156149600Y-69971600D02*
X152409600Y-69971600D01*
X156149600Y-74631600D02*
X156149600Y-75011600D01*
X138084000Y-62159200D02*
X138084000Y-61779200D01*
X138084000Y-57499200D02*
X138084000Y-57119200D01*
X138084000Y-59999200D02*
X138084000Y-59279200D01*
X138084000Y-62159200D02*
X141824000Y-62159200D01*
X141824000Y-62159200D02*
X141824000Y-60879200D01*
X138084000Y-57119200D02*
X141824000Y-57119200D01*
X141824000Y-58399200D02*
X141824000Y-57119200D01*
X154981200Y-62159200D02*
X151241200Y-62159200D01*
X154981200Y-59279200D02*
X154981200Y-59999200D01*
X154981200Y-61779200D02*
X154981200Y-62159200D01*
X154981200Y-57119200D02*
X151241200Y-57119200D01*
X154981200Y-57119200D02*
X154981200Y-57499200D01*
X151241200Y-57119200D02*
X151241200Y-58399200D01*
X151241200Y-60879200D02*
X151241200Y-62159200D01*
X117440000Y-74973500D02*
X117440000Y-73693500D01*
X113700000Y-69933500D02*
X117440000Y-69933500D01*
X113700000Y-74973500D02*
X113700000Y-74593500D01*
X113700000Y-74973500D02*
X117440000Y-74973500D01*
X113700000Y-72813500D02*
X113700000Y-72093500D01*
X113700000Y-70313500D02*
X113700000Y-69933500D01*
X117440000Y-71213500D02*
X117440000Y-69933500D01*
X153772324Y-65517500D02*
X153262876Y-65517500D01*
X153772324Y-66562500D02*
X153262876Y-66562500D01*
X118872724Y-94664000D02*
X118363276Y-94664000D01*
X118872724Y-95709000D02*
X118363276Y-95709000D01*
X118872724Y-87361500D02*
X118363276Y-87361500D01*
X118872724Y-88406500D02*
X118363276Y-88406500D01*
X129540724Y-66714900D02*
X129031276Y-66714900D01*
X129540724Y-65669900D02*
X129031276Y-65669900D01*
X116383524Y-64565000D02*
X115874076Y-64565000D01*
X116383524Y-65610000D02*
X115874076Y-65610000D01*
X116102064Y-98910000D02*
X114897936Y-98910000D01*
X116102064Y-97090000D02*
X114897936Y-97090000D01*
X118764267Y-90870500D02*
X118471733Y-90870500D01*
X118764267Y-89850500D02*
X118471733Y-89850500D01*
X154535600Y-91434800D02*
X155995600Y-91434800D01*
X154535600Y-94594800D02*
X156695600Y-94594800D01*
X154535600Y-94594800D02*
X154535600Y-93664800D01*
X154535600Y-91434800D02*
X154535600Y-92364800D01*
X128330400Y-60828400D02*
X128330400Y-62108400D01*
X132070400Y-59228400D02*
X132070400Y-59948400D01*
X132070400Y-57068400D02*
X132070400Y-57448400D01*
X132070400Y-62108400D02*
X128330400Y-62108400D01*
X128330400Y-57068400D02*
X128330400Y-58348400D01*
X132070400Y-61728400D02*
X132070400Y-62108400D01*
X132070400Y-57068400D02*
X128330400Y-57068400D01*
X140841000Y-94634267D02*
X140841000Y-94341733D01*
X141861000Y-94634267D02*
X141861000Y-94341733D01*
X141116267Y-65784000D02*
X140823733Y-65784000D01*
X141116267Y-66804000D02*
X140823733Y-66804000D01*
X116224267Y-67667600D02*
X115931733Y-67667600D01*
X116224267Y-66647600D02*
X115931733Y-66647600D01*
X142492000Y-104286267D02*
X142492000Y-103993733D01*
X143512000Y-104286267D02*
X143512000Y-103993733D01*
X153715600Y-89202800D02*
X153715600Y-87742800D01*
X153715600Y-89202800D02*
X154645600Y-89202800D01*
X156875600Y-89202800D02*
X155945600Y-89202800D01*
X156875600Y-89202800D02*
X156875600Y-87042800D01*
X118764267Y-92327000D02*
X118471733Y-92327000D01*
X118764267Y-93347000D02*
X118471733Y-93347000D01*
X142305500Y-83521767D02*
X142305500Y-83229233D01*
X141285500Y-83521767D02*
X141285500Y-83229233D01*
X131871267Y-111140000D02*
X131578733Y-111140000D01*
X131871267Y-112160000D02*
X131578733Y-112160000D01*
X153320533Y-68836000D02*
X153613067Y-68836000D01*
X153320533Y-67816000D02*
X153613067Y-67816000D01*
X145479224Y-98376000D02*
X144969776Y-98376000D01*
X145479224Y-97331000D02*
X144969776Y-97331000D01*
X146814000Y-99766000D02*
X146814000Y-100696000D01*
X146814000Y-99766000D02*
X148274000Y-99766000D01*
X146814000Y-102926000D02*
X146814000Y-101996000D01*
X146814000Y-102926000D02*
X149974000Y-102926000D01*
X146621500Y-95748000D02*
X144671500Y-95748000D01*
X146621500Y-86878000D02*
X148571500Y-86878000D01*
X146621500Y-95748000D02*
X150071500Y-95748000D01*
X146621500Y-86878000D02*
X144671500Y-86878000D01*
X147015200Y-72049800D02*
X148965200Y-72049800D01*
X147015200Y-63179800D02*
X148965200Y-63179800D01*
X147015200Y-63179800D02*
X143565200Y-63179800D01*
X147015200Y-72049800D02*
X145065200Y-72049800D01*
X131274500Y-102489000D02*
X131274500Y-104439000D01*
X131274500Y-102489000D02*
X131274500Y-100539000D01*
X141394500Y-102489000D02*
X141394500Y-99039000D01*
X141394500Y-102489000D02*
X141394500Y-104439000D01*
X145530800Y-74472800D02*
G75*
G03*
X145530800Y-74472800I-700000J0D01*
G01*
X131328000Y-81788000D02*
X131328000Y-83738000D01*
X140198000Y-81788000D02*
X140198000Y-78338000D01*
X140198000Y-81788000D02*
X140198000Y-83738000D01*
X131328000Y-81788000D02*
X131328000Y-79838000D01*
X159756800Y-88036400D02*
X159756800Y-86706400D01*
X159756800Y-89306400D02*
X162416800Y-89306400D01*
X159756800Y-94446400D02*
X162416800Y-94446400D01*
X159756800Y-89306400D02*
X159756800Y-94446400D01*
X159756800Y-86706400D02*
X161086800Y-86706400D01*
X162416800Y-89306400D02*
X162416800Y-94446400D01*
X137729500Y-88538267D02*
X137729500Y-88245733D01*
X138749500Y-88538267D02*
X138749500Y-88245733D01*
X158476000Y-99485000D02*
X155976000Y-99485000D01*
X155526000Y-104535000D02*
X155976000Y-104985000D01*
X154476000Y-103235000D02*
X154476000Y-101235000D01*
X158926000Y-104535000D02*
X158476000Y-104985000D01*
X158926000Y-99935000D02*
X158476000Y-99485000D01*
X158476000Y-104985000D02*
X155976000Y-104985000D01*
X159976000Y-103235000D02*
X159976000Y-101235000D01*
X155526000Y-99935000D02*
X155976000Y-99485000D01*
X141570000Y-71302400D02*
X141570000Y-70022400D01*
X137830000Y-70402400D02*
X137830000Y-70022400D01*
X137830000Y-72902400D02*
X137830000Y-72182400D01*
X137830000Y-70022400D02*
X141570000Y-70022400D01*
X137830000Y-75062400D02*
X141570000Y-75062400D01*
X137830000Y-75062400D02*
X137830000Y-74682400D01*
X141570000Y-75062400D02*
X141570000Y-73782400D01*
X131908767Y-115250500D02*
X131616233Y-115250500D01*
X131908767Y-116270500D02*
X131616233Y-116270500D01*
X131495276Y-109377500D02*
X132004724Y-109377500D01*
X131495276Y-110422500D02*
X132004724Y-110422500D01*
X144399724Y-110504500D02*
X143890276Y-110504500D01*
X144399724Y-109459500D02*
X143890276Y-109459500D01*
X124939500Y-118066500D02*
X128679500Y-118066500D01*
X128679500Y-123106500D02*
X128679500Y-121826500D01*
X128679500Y-119346500D02*
X128679500Y-118066500D01*
X124939500Y-123106500D02*
X128679500Y-123106500D01*
X124939500Y-123106500D02*
X124939500Y-122726500D01*
X124939500Y-118446500D02*
X124939500Y-118066500D01*
X124939500Y-120946500D02*
X124939500Y-120226500D01*
X128600000Y-93550000D02*
G75*
G03*
X128600000Y-93550000I-700000J0D01*
G01*
X128550000Y-89150000D02*
G75*
G03*
X128550000Y-89150000I-700000J0D01*
G01*
X129076233Y-68006500D02*
X129368767Y-68006500D01*
X129076233Y-69026500D02*
X129368767Y-69026500D01*
X109617200Y-85030000D02*
X110947200Y-85030000D01*
X109617200Y-87630000D02*
X112277200Y-87630000D01*
X112277200Y-87630000D02*
X112277200Y-97850000D01*
X109617200Y-87630000D02*
X109617200Y-97850000D01*
X109617200Y-86360000D02*
X109617200Y-85030000D01*
X109617200Y-97850000D02*
X112277200Y-97850000D01*
X146777000Y-120226500D02*
X146777000Y-120946500D01*
X146777000Y-118066500D02*
X143037000Y-118066500D01*
X143037000Y-118066500D02*
X143037000Y-119346500D01*
X143037000Y-121826500D02*
X143037000Y-123106500D01*
X146777000Y-118066500D02*
X146777000Y-118446500D01*
X146777000Y-122726500D02*
X146777000Y-123106500D01*
X146777000Y-123106500D02*
X143037000Y-123106500D01*
X147427733Y-104011000D02*
X147720267Y-104011000D01*
X147427733Y-105031000D02*
X147720267Y-105031000D01*
X132969000Y-88703000D02*
X135169000Y-88703000D01*
X132969000Y-93923000D02*
X135169000Y-93923000D01*
X132969000Y-88703000D02*
X129369000Y-88703000D01*
X132969000Y-93923000D02*
X130769000Y-93923000D01*
X137858500Y-116957000D02*
X135908500Y-116957000D01*
X137858500Y-116957000D02*
X139808500Y-116957000D01*
X137858500Y-108087000D02*
X139808500Y-108087000D01*
X137858500Y-108087000D02*
X134408500Y-108087000D01*
X140766076Y-64936900D02*
X141275524Y-64936900D01*
X140766076Y-63891900D02*
X141275524Y-63891900D01*
X122682000Y-72062500D02*
X124632000Y-72062500D01*
X122682000Y-63192500D02*
X119232000Y-63192500D01*
X122682000Y-72062500D02*
X120732000Y-72062500D01*
X122682000Y-63192500D02*
X124632000Y-63192500D01*
X129540724Y-64467000D02*
X129031276Y-64467000D01*
X129540724Y-63422000D02*
X129031276Y-63422000D01*
X131507776Y-117206500D02*
X132017224Y-117206500D01*
X131507776Y-118251500D02*
X132017224Y-118251500D01*
X155320276Y-81802500D02*
X155829724Y-81802500D01*
X155320276Y-80757500D02*
X155829724Y-80757500D01*
X133100000Y-95175000D02*
G75*
G03*
X133100000Y-95175000I-700000J0D01*
G01*
X155320276Y-78217500D02*
X155829724Y-78217500D01*
X155320276Y-79262500D02*
X155829724Y-79262500D01*
%LPC*%
D13*
X156225000Y-85475000D03*
X144435800Y-60900000D03*
X121000000Y-96750000D03*
X119600000Y-86050000D03*
X131325000Y-120700000D03*
X125158500Y-74549000D03*
X140350000Y-118900000D03*
X148525000Y-60900000D03*
X149453600Y-74472800D03*
X149375000Y-97200000D03*
X131250000Y-86500000D03*
X120078500Y-74549000D03*
X152175000Y-88250000D03*
X129000000Y-81000000D03*
X125125000Y-61275000D03*
X137175000Y-96475000D03*
X126873000Y-116078000D03*
D14*
X129300000Y-99512500D03*
X129300000Y-101337500D03*
D15*
X131561500Y-73830500D03*
D16*
X128661500Y-72580500D03*
D15*
X131561500Y-71330500D03*
D17*
X152605100Y-63855600D03*
X154430100Y-63855600D03*
D18*
X125296000Y-109367000D03*
D19*
X128196000Y-110617000D03*
D18*
X125296000Y-111867000D03*
D13*
X154700000Y-95800000D03*
D15*
X125475000Y-102125000D03*
D16*
X122575000Y-100875000D03*
D15*
X125475000Y-99625000D03*
X124132000Y-82403000D03*
D16*
X121232000Y-81153000D03*
D15*
X124132000Y-79903000D03*
D14*
X141795500Y-78526000D03*
X141795500Y-80351000D03*
D15*
X155729600Y-73741600D03*
D16*
X152829600Y-72491600D03*
D15*
X155729600Y-71241600D03*
D18*
X138504000Y-58389200D03*
D19*
X141404000Y-59639200D03*
D18*
X138504000Y-60889200D03*
D15*
X154561200Y-60889200D03*
D16*
X151661200Y-59639200D03*
D15*
X154561200Y-58389200D03*
D18*
X114120000Y-71203500D03*
D19*
X117020000Y-72453500D03*
D18*
X114120000Y-73703500D03*
D20*
X154430100Y-66040000D03*
X152605100Y-66040000D03*
X119530500Y-95186500D03*
X117705500Y-95186500D03*
X119530500Y-87884000D03*
X117705500Y-87884000D03*
X130198500Y-66192400D03*
X128373500Y-66192400D03*
X117041300Y-65087500D03*
X115216300Y-65087500D03*
D21*
X116987500Y-98000000D03*
X114012500Y-98000000D03*
D22*
X119480500Y-90360500D03*
X117755500Y-90360500D03*
D23*
X156295600Y-93964800D03*
X156295600Y-92064800D03*
X154295600Y-93014800D03*
D15*
X131650400Y-60838400D03*
D16*
X128750400Y-59588400D03*
D15*
X131650400Y-58338400D03*
D24*
X141351000Y-95350500D03*
X141351000Y-93625500D03*
D25*
X160000000Y-119000000D03*
D26*
X160000000Y-119000000D03*
D25*
X160000000Y-59000000D03*
D26*
X160000000Y-59000000D03*
X115000000Y-119000000D03*
D25*
X115000000Y-119000000D03*
D22*
X141832500Y-66294000D03*
X140107500Y-66294000D03*
X116940500Y-67157600D03*
X115215500Y-67157600D03*
D24*
X143002000Y-105002500D03*
X143002000Y-103277500D03*
D27*
X156245600Y-87442800D03*
X154345600Y-87442800D03*
X155295600Y-89442800D03*
D26*
X115000000Y-59000000D03*
D25*
X115000000Y-59000000D03*
D22*
X119480500Y-92837000D03*
X117755500Y-92837000D03*
D24*
X141795500Y-84238000D03*
X141795500Y-82513000D03*
D22*
X132587500Y-111650000D03*
X130862500Y-111650000D03*
D28*
X152604300Y-68326000D03*
X154329300Y-68326000D03*
D20*
X146137000Y-97853500D03*
X144312000Y-97853500D03*
D29*
X149074000Y-102296000D03*
X149074000Y-100396000D03*
X146074000Y-101346000D03*
D30*
X149096500Y-95123000D03*
X149096500Y-93853000D03*
X149096500Y-92583000D03*
X149096500Y-91313000D03*
X149096500Y-90043000D03*
X149096500Y-88773000D03*
X149096500Y-87503000D03*
X144146500Y-87503000D03*
X144146500Y-88773000D03*
X144146500Y-90043000D03*
X144146500Y-91313000D03*
X144146500Y-92583000D03*
X144146500Y-93853000D03*
X144146500Y-95123000D03*
D31*
X144540200Y-63804800D03*
X144540200Y-65074800D03*
X144540200Y-66344800D03*
X144540200Y-67614800D03*
X144540200Y-68884800D03*
X144540200Y-70154800D03*
X144540200Y-71424800D03*
X149490200Y-71424800D03*
X149490200Y-70154800D03*
X149490200Y-68884800D03*
X149490200Y-67614800D03*
X149490200Y-66344800D03*
X149490200Y-65074800D03*
X149490200Y-63804800D03*
D32*
X140779500Y-100014000D03*
X139509500Y-100014000D03*
X138239500Y-100014000D03*
X136969500Y-100014000D03*
X135699500Y-100014000D03*
X134429500Y-100014000D03*
X133159500Y-100014000D03*
X131889500Y-100014000D03*
X131889500Y-104964000D03*
X133159500Y-104964000D03*
X134429500Y-104964000D03*
X135699500Y-104964000D03*
X136969500Y-104964000D03*
X138239500Y-104964000D03*
X139509500Y-104964000D03*
X140779500Y-104964000D03*
D13*
X144830800Y-74472800D03*
D32*
X139573000Y-79313000D03*
X138303000Y-79313000D03*
X137033000Y-79313000D03*
X135763000Y-79313000D03*
X134493000Y-79313000D03*
X133223000Y-79313000D03*
X131953000Y-79313000D03*
X131953000Y-84263000D03*
X133223000Y-84263000D03*
X134493000Y-84263000D03*
X135763000Y-84263000D03*
X137033000Y-84263000D03*
X138303000Y-84263000D03*
X139573000Y-84263000D03*
D33*
X161086800Y-88036400D03*
D34*
X161086800Y-90576400D03*
X161086800Y-93116400D03*
D24*
X138239500Y-89254500D03*
X138239500Y-87529500D03*
D35*
X154076000Y-104135000D03*
X160376000Y-104135000D03*
X160376000Y-100335000D03*
X154076000Y-100335000D03*
D18*
X138250000Y-71292400D03*
D19*
X141150000Y-72542400D03*
D18*
X138250000Y-73792400D03*
D22*
X132625000Y-115760500D03*
X130900000Y-115760500D03*
D17*
X130837500Y-109900000D03*
X132662500Y-109900000D03*
D20*
X145057500Y-109982000D03*
X143232500Y-109982000D03*
D18*
X125359500Y-119336500D03*
D19*
X128259500Y-120586500D03*
D18*
X125359500Y-121836500D03*
D13*
X127900000Y-93550000D03*
X127850000Y-89150000D03*
D36*
X123571000Y-90678000D03*
X123571000Y-91567000D03*
D37*
X123571000Y-92583000D03*
D36*
X125887000Y-92583000D03*
X125884000Y-91567000D03*
X125884000Y-90678000D03*
D28*
X128360000Y-68516500D03*
X130085000Y-68516500D03*
D33*
X110947200Y-86360000D03*
D34*
X110947200Y-88900000D03*
X110947200Y-91440000D03*
X110947200Y-93980000D03*
X110947200Y-96520000D03*
D15*
X146357000Y-121836500D03*
D16*
X143457000Y-120586500D03*
D15*
X146357000Y-119336500D03*
D28*
X146711500Y-104521000D03*
X148436500Y-104521000D03*
D38*
X130106500Y-89363000D03*
X130106500Y-90013000D03*
X130106500Y-90663000D03*
X130106500Y-91313000D03*
X130106500Y-91963000D03*
X130106500Y-92613000D03*
X130106500Y-93263000D03*
X135831500Y-93263000D03*
X135831500Y-92613000D03*
X135831500Y-91963000D03*
X135831500Y-91313000D03*
X135831500Y-90663000D03*
X135831500Y-90013000D03*
X135831500Y-89363000D03*
D31*
X135383500Y-108712000D03*
X135383500Y-109982000D03*
X135383500Y-111252000D03*
X135383500Y-112522000D03*
X135383500Y-113792000D03*
X135383500Y-115062000D03*
X135383500Y-116332000D03*
X140333500Y-116332000D03*
X140333500Y-115062000D03*
X140333500Y-113792000D03*
X140333500Y-112522000D03*
X140333500Y-111252000D03*
X140333500Y-109982000D03*
X140333500Y-108712000D03*
D17*
X140108300Y-64414400D03*
X141933300Y-64414400D03*
D31*
X120207000Y-63817500D03*
X120207000Y-65087500D03*
X120207000Y-66357500D03*
X120207000Y-67627500D03*
X120207000Y-68897500D03*
X120207000Y-70167500D03*
X120207000Y-71437500D03*
X125157000Y-71437500D03*
X125157000Y-70167500D03*
X125157000Y-68897500D03*
X125157000Y-67627500D03*
X125157000Y-66357500D03*
X125157000Y-65087500D03*
X125157000Y-63817500D03*
D20*
X130198500Y-63944500D03*
X128373500Y-63944500D03*
D17*
X130850000Y-117729000D03*
X132675000Y-117729000D03*
X154662500Y-81280000D03*
X156487500Y-81280000D03*
D13*
X132400000Y-95175000D03*
D17*
X154662500Y-78740000D03*
X156487500Y-78740000D03*
M02*
