M48
; DRILL file {KiCad (6.0.2)} date Mon Feb 21 10:36:51 2022
; FORMAT={-:-/ absolute / metric / decimal}
; #@! TF.CreationDate,2022-02-21T10:36:51-06:00
; #@! TF.GenerationSoftware,Kicad,Pcbnew,(6.0.2)
; #@! TF.FileFunction,Plated,1,2,PTH
FMAT,2
METRIC
; #@! TA.AperFunction,Plated,PTH,ViaDrill
T1C0.400
; #@! TA.AperFunction,Plated,PTH,ComponentDrill
T2C0.500
; #@! TA.AperFunction,Plated,PTH,ComponentDrill
T3C1.000
; #@! TA.AperFunction,Plated,PTH,ComponentDrill
T4C3.700
%
G90
G05
T1
X115.2Y-68.25
X115.5Y-74.95
X117.706Y-93.93
X117.755Y-89.069
X121.0Y-99.25
X122.0Y-91.858
X126.125Y-113.575
X127.0Y-65.5
X127.35Y-102.8
X128.25Y-90.575
X129.25Y-122.8
X129.8Y-111.45
X130.0Y-88.25
X130.085Y-67.315
X130.15Y-94.375
X130.375Y-70.325
X130.556Y-97.536
X130.65Y-79.325
X130.85Y-116.725
X132.2Y-66.3
X132.588Y-88.9
X132.588Y-91.948
X132.975Y-57.175
X133.2Y-98.3
X134.475Y-86.0
X134.525Y-77.25
X135.0Y-106.4
X136.25Y-69.425
X137.25Y-98.25
X137.275Y-62.025
X137.75Y-108.75
X138.239Y-86.039
X138.5Y-91.213
X138.575Y-66.275
X138.7Y-106.5
X139.5Y-75.0
X140.208Y-97.79
X141.8Y-81.4
X142.012Y-108.712
X142.025Y-102.25
X142.1Y-111.35
X142.447Y-93.853
X142.6Y-90.525
X143.0Y-65.5
X143.0Y-97.75
X143.001Y-73.253
X144.475Y-117.45
X145.0Y-81.0
X147.0Y-79.0
X147.652Y-94.425
X147.955Y-103.25
X148.012Y-107.012
X149.0Y-86.0
X151.0Y-93.75
X151.13Y-70.485
X151.25Y-65.0
X151.25Y-66.25
X151.25Y-75.0
X153.035Y-69.215
X153.035Y-78.74
X153.45Y-92.15
X154.5Y-56.5
X155.5Y-65.0
X155.5Y-69.5
X156.236Y-90.511
X157.48Y-78.74
X158.115Y-81.28
T2
X119.6Y-86.05
X120.078Y-74.549
X121.0Y-96.75
X125.125Y-61.275
X125.158Y-74.549
X126.873Y-116.078
X127.85Y-89.15
X127.9Y-93.55
X129.0Y-81.0
X131.25Y-86.5
X131.325Y-120.7
X132.4Y-95.175
X137.175Y-96.475
X140.35Y-118.9
X144.436Y-60.9
X144.831Y-74.473
X148.525Y-60.9
X149.375Y-97.2
X149.454Y-74.473
X152.175Y-88.25
X154.7Y-95.8
X156.225Y-85.475
T3
X110.947Y-86.36
X110.947Y-88.9
X110.947Y-91.44
X110.947Y-93.98
X110.947Y-96.52
X161.087Y-88.036
X161.087Y-90.576
X161.087Y-93.116
T4
X115.0Y-59.0
X115.0Y-119.0
X160.0Y-59.0
X160.0Y-119.0
T0
M30
