G04 #@! TF.GenerationSoftware,KiCad,Pcbnew,(6.0.2)*
G04 #@! TF.CreationDate,2022-02-21T10:35:24-06:00*
G04 #@! TF.ProjectId,20-ELC-2-01-R2(Appetizer),32302d45-4c43-42d3-922d-30312d523228,v1*
G04 #@! TF.SameCoordinates,Original*
G04 #@! TF.FileFunction,Copper,L1,Top*
G04 #@! TF.FilePolarity,Positive*
%FSLAX46Y46*%
G04 Gerber Fmt 4.6, Leading zero omitted, Abs format (unit mm)*
G04 Created by KiCad (PCBNEW (6.0.2)) date 2022-02-21 10:35:24*
%MOMM*%
%LPD*%
G01*
G04 APERTURE LIST*
G04 Aperture macros list*
%AMRoundRect*
0 Rectangle with rounded corners*
0 $1 Rounding radius*
0 $2 $3 $4 $5 $6 $7 $8 $9 X,Y pos of 4 corners*
0 Add a 4 corners polygon primitive as box body*
4,1,4,$2,$3,$4,$5,$6,$7,$8,$9,$2,$3,0*
0 Add four circle primitives for the rounded corners*
1,1,$1+$1,$2,$3*
1,1,$1+$1,$4,$5*
1,1,$1+$1,$6,$7*
1,1,$1+$1,$8,$9*
0 Add four rect primitives between the rounded corners*
20,1,$1+$1,$2,$3,$4,$5,0*
20,1,$1+$1,$4,$5,$6,$7,0*
20,1,$1+$1,$6,$7,$8,$9,0*
20,1,$1+$1,$8,$9,$2,$3,0*%
G04 Aperture macros list end*
G04 #@! TA.AperFunction,ComponentPad*
%ADD10C,1.000000*%
G04 #@! TD*
G04 #@! TA.AperFunction,SMDPad,CuDef*
%ADD11RoundRect,0.237500X-0.237500X0.250000X-0.237500X-0.250000X0.237500X-0.250000X0.237500X0.250000X0*%
G04 #@! TD*
G04 #@! TA.AperFunction,SMDPad,CuDef*
%ADD12R,1.600000X1.300000*%
G04 #@! TD*
G04 #@! TA.AperFunction,SMDPad,CuDef*
%ADD13R,1.600000X2.000000*%
G04 #@! TD*
G04 #@! TA.AperFunction,SMDPad,CuDef*
%ADD14RoundRect,0.237500X-0.250000X-0.237500X0.250000X-0.237500X0.250000X0.237500X-0.250000X0.237500X0*%
G04 #@! TD*
G04 #@! TA.AperFunction,SMDPad,CuDef*
%ADD15RoundRect,0.237500X0.250000X0.237500X-0.250000X0.237500X-0.250000X-0.237500X0.250000X-0.237500X0*%
G04 #@! TD*
G04 #@! TA.AperFunction,SMDPad,CuDef*
%ADD16RoundRect,0.250000X0.462500X0.625000X-0.462500X0.625000X-0.462500X-0.625000X0.462500X-0.625000X0*%
G04 #@! TD*
G04 #@! TA.AperFunction,SMDPad,CuDef*
%ADD17RoundRect,0.237500X0.300000X0.237500X-0.300000X0.237500X-0.300000X-0.237500X0.300000X-0.237500X0*%
G04 #@! TD*
G04 #@! TA.AperFunction,SMDPad,CuDef*
%ADD18R,0.900000X0.800000*%
G04 #@! TD*
G04 #@! TA.AperFunction,SMDPad,CuDef*
%ADD19RoundRect,0.237500X0.237500X-0.300000X0.237500X0.300000X-0.237500X0.300000X-0.237500X-0.300000X0*%
G04 #@! TD*
G04 #@! TA.AperFunction,ComponentPad*
%ADD20C,4.100000*%
G04 #@! TD*
G04 #@! TA.AperFunction,ConnectorPad*
%ADD21C,7.400000*%
G04 #@! TD*
G04 #@! TA.AperFunction,SMDPad,CuDef*
%ADD22R,0.800000X0.900000*%
G04 #@! TD*
G04 #@! TA.AperFunction,SMDPad,CuDef*
%ADD23RoundRect,0.237500X-0.300000X-0.237500X0.300000X-0.237500X0.300000X0.237500X-0.300000X0.237500X0*%
G04 #@! TD*
G04 #@! TA.AperFunction,SMDPad,CuDef*
%ADD24R,1.900000X0.800000*%
G04 #@! TD*
G04 #@! TA.AperFunction,SMDPad,CuDef*
%ADD25RoundRect,0.150000X0.825000X0.150000X-0.825000X0.150000X-0.825000X-0.150000X0.825000X-0.150000X0*%
G04 #@! TD*
G04 #@! TA.AperFunction,SMDPad,CuDef*
%ADD26RoundRect,0.150000X-0.825000X-0.150000X0.825000X-0.150000X0.825000X0.150000X-0.825000X0.150000X0*%
G04 #@! TD*
G04 #@! TA.AperFunction,SMDPad,CuDef*
%ADD27RoundRect,0.150000X-0.150000X0.825000X-0.150000X-0.825000X0.150000X-0.825000X0.150000X0.825000X0*%
G04 #@! TD*
G04 #@! TA.AperFunction,ComponentPad*
%ADD28R,1.700000X1.700000*%
G04 #@! TD*
G04 #@! TA.AperFunction,ComponentPad*
%ADD29O,1.700000X1.700000*%
G04 #@! TD*
G04 #@! TA.AperFunction,SMDPad,CuDef*
%ADD30R,1.700000X1.000000*%
G04 #@! TD*
G04 #@! TA.AperFunction,SMDPad,CuDef*
%ADD31R,0.700000X0.500000*%
G04 #@! TD*
G04 #@! TA.AperFunction,SMDPad,CuDef*
%ADD32RoundRect,0.100000X-0.637500X-0.100000X0.637500X-0.100000X0.637500X0.100000X-0.637500X0.100000X0*%
G04 #@! TD*
G04 #@! TA.AperFunction,ViaPad*
%ADD33C,0.800000*%
G04 #@! TD*
G04 #@! TA.AperFunction,Conductor*
%ADD34C,0.250000*%
G04 #@! TD*
G04 #@! TA.AperFunction,Conductor*
%ADD35C,0.800000*%
G04 #@! TD*
G04 APERTURE END LIST*
D10*
X156225000Y-85475000D03*
X144435800Y-60900000D03*
X121000000Y-96750000D03*
X119600000Y-86050000D03*
X131325000Y-120700000D03*
X125158500Y-74549000D03*
X140350000Y-118900000D03*
X148525000Y-60900000D03*
X149453600Y-74472800D03*
X149375000Y-97200000D03*
X131250000Y-86500000D03*
X120078500Y-74549000D03*
X152175000Y-88250000D03*
X129000000Y-81000000D03*
X125125000Y-61275000D03*
X137175000Y-96475000D03*
X126873000Y-116078000D03*
D11*
X129300000Y-99512500D03*
X129300000Y-101337500D03*
D12*
X131561500Y-73830500D03*
D13*
X128661500Y-72580500D03*
D12*
X131561500Y-71330500D03*
D14*
X152605100Y-63855600D03*
X154430100Y-63855600D03*
D12*
X125296000Y-109367000D03*
D13*
X128196000Y-110617000D03*
D12*
X125296000Y-111867000D03*
D10*
X154700000Y-95800000D03*
D12*
X125475000Y-102125000D03*
D13*
X122575000Y-100875000D03*
D12*
X125475000Y-99625000D03*
X124132000Y-82403000D03*
D13*
X121232000Y-81153000D03*
D12*
X124132000Y-79903000D03*
D11*
X141795500Y-78526000D03*
X141795500Y-80351000D03*
D12*
X155729600Y-73741600D03*
D13*
X152829600Y-72491600D03*
D12*
X155729600Y-71241600D03*
X138504000Y-58389200D03*
D13*
X141404000Y-59639200D03*
D12*
X138504000Y-60889200D03*
X154561200Y-60889200D03*
D13*
X151661200Y-59639200D03*
D12*
X154561200Y-58389200D03*
X114120000Y-71203500D03*
D13*
X117020000Y-72453500D03*
D12*
X114120000Y-73703500D03*
D15*
X154430100Y-66040000D03*
X152605100Y-66040000D03*
X119530500Y-95186500D03*
X117705500Y-95186500D03*
X119530500Y-87884000D03*
X117705500Y-87884000D03*
X130198500Y-66192400D03*
X128373500Y-66192400D03*
X117041300Y-65087500D03*
X115216300Y-65087500D03*
D16*
X116987500Y-98000000D03*
X114012500Y-98000000D03*
D17*
X119480500Y-90360500D03*
X117755500Y-90360500D03*
D18*
X156295600Y-93964800D03*
X156295600Y-92064800D03*
X154295600Y-93014800D03*
D12*
X131650400Y-60838400D03*
D13*
X128750400Y-59588400D03*
D12*
X131650400Y-58338400D03*
D19*
X141351000Y-95350500D03*
X141351000Y-93625500D03*
D20*
X160000000Y-119000000D03*
D21*
X160000000Y-119000000D03*
D20*
X160000000Y-59000000D03*
D21*
X160000000Y-59000000D03*
X115000000Y-119000000D03*
D20*
X115000000Y-119000000D03*
D17*
X141832500Y-66294000D03*
X140107500Y-66294000D03*
X116940500Y-67157600D03*
X115215500Y-67157600D03*
D19*
X143002000Y-105002500D03*
X143002000Y-103277500D03*
D22*
X156245600Y-87442800D03*
X154345600Y-87442800D03*
X155295600Y-89442800D03*
D21*
X115000000Y-59000000D03*
D20*
X115000000Y-59000000D03*
D17*
X119480500Y-92837000D03*
X117755500Y-92837000D03*
D19*
X141795500Y-84238000D03*
X141795500Y-82513000D03*
D17*
X132587500Y-111650000D03*
X130862500Y-111650000D03*
D23*
X152604300Y-68326000D03*
X154329300Y-68326000D03*
D15*
X146137000Y-97853500D03*
X144312000Y-97853500D03*
D24*
X149074000Y-102296000D03*
X149074000Y-100396000D03*
X146074000Y-101346000D03*
D25*
X149096500Y-95123000D03*
X149096500Y-93853000D03*
X149096500Y-92583000D03*
X149096500Y-91313000D03*
X149096500Y-90043000D03*
X149096500Y-88773000D03*
X149096500Y-87503000D03*
X144146500Y-87503000D03*
X144146500Y-88773000D03*
X144146500Y-90043000D03*
X144146500Y-91313000D03*
X144146500Y-92583000D03*
X144146500Y-93853000D03*
X144146500Y-95123000D03*
D26*
X144540200Y-63804800D03*
X144540200Y-65074800D03*
X144540200Y-66344800D03*
X144540200Y-67614800D03*
X144540200Y-68884800D03*
X144540200Y-70154800D03*
X144540200Y-71424800D03*
X149490200Y-71424800D03*
X149490200Y-70154800D03*
X149490200Y-68884800D03*
X149490200Y-67614800D03*
X149490200Y-66344800D03*
X149490200Y-65074800D03*
X149490200Y-63804800D03*
D27*
X140779500Y-100014000D03*
X139509500Y-100014000D03*
X138239500Y-100014000D03*
X136969500Y-100014000D03*
X135699500Y-100014000D03*
X134429500Y-100014000D03*
X133159500Y-100014000D03*
X131889500Y-100014000D03*
X131889500Y-104964000D03*
X133159500Y-104964000D03*
X134429500Y-104964000D03*
X135699500Y-104964000D03*
X136969500Y-104964000D03*
X138239500Y-104964000D03*
X139509500Y-104964000D03*
X140779500Y-104964000D03*
D10*
X144830800Y-74472800D03*
D27*
X139573000Y-79313000D03*
X138303000Y-79313000D03*
X137033000Y-79313000D03*
X135763000Y-79313000D03*
X134493000Y-79313000D03*
X133223000Y-79313000D03*
X131953000Y-79313000D03*
X131953000Y-84263000D03*
X133223000Y-84263000D03*
X134493000Y-84263000D03*
X135763000Y-84263000D03*
X137033000Y-84263000D03*
X138303000Y-84263000D03*
X139573000Y-84263000D03*
D28*
X161086800Y-88036400D03*
D29*
X161086800Y-90576400D03*
X161086800Y-93116400D03*
D19*
X138239500Y-89254500D03*
X138239500Y-87529500D03*
D30*
X154076000Y-104135000D03*
X160376000Y-104135000D03*
X160376000Y-100335000D03*
X154076000Y-100335000D03*
D12*
X138250000Y-71292400D03*
D13*
X141150000Y-72542400D03*
D12*
X138250000Y-73792400D03*
D17*
X132625000Y-115760500D03*
X130900000Y-115760500D03*
D14*
X130837500Y-109900000D03*
X132662500Y-109900000D03*
D15*
X145057500Y-109982000D03*
X143232500Y-109982000D03*
D12*
X125359500Y-119336500D03*
D13*
X128259500Y-120586500D03*
D12*
X125359500Y-121836500D03*
D10*
X127900000Y-93550000D03*
X127850000Y-89150000D03*
D31*
X123571000Y-90678000D03*
X123571000Y-91567000D03*
X123571000Y-92583000D03*
X125887000Y-92583000D03*
X125884000Y-91567000D03*
X125884000Y-90678000D03*
D23*
X128360000Y-68516500D03*
X130085000Y-68516500D03*
D28*
X110947200Y-86360000D03*
D29*
X110947200Y-88900000D03*
X110947200Y-91440000D03*
X110947200Y-93980000D03*
X110947200Y-96520000D03*
D12*
X146357000Y-121836500D03*
D13*
X143457000Y-120586500D03*
D12*
X146357000Y-119336500D03*
D23*
X146711500Y-104521000D03*
X148436500Y-104521000D03*
D32*
X130106500Y-89363000D03*
X130106500Y-90013000D03*
X130106500Y-90663000D03*
X130106500Y-91313000D03*
X130106500Y-91963000D03*
X130106500Y-92613000D03*
X130106500Y-93263000D03*
X135831500Y-93263000D03*
X135831500Y-92613000D03*
X135831500Y-91963000D03*
X135831500Y-91313000D03*
X135831500Y-90663000D03*
X135831500Y-90013000D03*
X135831500Y-89363000D03*
D26*
X135383500Y-108712000D03*
X135383500Y-109982000D03*
X135383500Y-111252000D03*
X135383500Y-112522000D03*
X135383500Y-113792000D03*
X135383500Y-115062000D03*
X135383500Y-116332000D03*
X140333500Y-116332000D03*
X140333500Y-115062000D03*
X140333500Y-113792000D03*
X140333500Y-112522000D03*
X140333500Y-111252000D03*
X140333500Y-109982000D03*
X140333500Y-108712000D03*
D14*
X140108300Y-64414400D03*
X141933300Y-64414400D03*
D26*
X120207000Y-63817500D03*
X120207000Y-65087500D03*
X120207000Y-66357500D03*
X120207000Y-67627500D03*
X120207000Y-68897500D03*
X120207000Y-70167500D03*
X120207000Y-71437500D03*
X125157000Y-71437500D03*
X125157000Y-70167500D03*
X125157000Y-68897500D03*
X125157000Y-67627500D03*
X125157000Y-66357500D03*
X125157000Y-65087500D03*
X125157000Y-63817500D03*
D15*
X130198500Y-63944500D03*
X128373500Y-63944500D03*
D14*
X130850000Y-117729000D03*
X132675000Y-117729000D03*
X154662500Y-81280000D03*
X156487500Y-81280000D03*
D10*
X132400000Y-95175000D03*
D14*
X154662500Y-78740000D03*
X156487500Y-78740000D03*
D33*
X117755500Y-89069500D03*
X151250000Y-66250000D03*
X115200000Y-68250000D03*
X145000000Y-81000000D03*
X156236351Y-90510950D03*
X122000000Y-91858500D03*
X157480000Y-78740000D03*
X132588000Y-91948000D03*
X154500000Y-56500000D03*
X142100000Y-111350000D03*
X115500000Y-74950000D03*
X137275000Y-62025000D03*
X129250000Y-122800000D03*
X134475000Y-86000000D03*
X133200000Y-98300000D03*
X132588000Y-88900000D03*
X126125000Y-113575000D03*
X127000000Y-65500000D03*
X153450000Y-92150000D03*
X132975000Y-57175000D03*
X134525000Y-77250000D03*
X142025000Y-102250000D03*
X117705500Y-93930500D03*
X130375000Y-70325000D03*
X143000000Y-97750000D03*
X135000000Y-106400000D03*
X149000000Y-86000000D03*
X138239500Y-86039500D03*
X129799799Y-111450201D03*
X138700000Y-106500000D03*
X147000000Y-79000000D03*
X155500000Y-65000000D03*
X141800000Y-81400000D03*
X130085000Y-67315000D03*
X142600000Y-90525000D03*
X138575000Y-66275000D03*
X130650000Y-79325000D03*
X155500000Y-69500000D03*
X140208000Y-97790000D03*
X130150000Y-94375000D03*
X142447000Y-93853000D03*
X144475000Y-117450000D03*
X139500000Y-75000000D03*
X147955000Y-103250000D03*
X130850000Y-116725000D03*
X148012299Y-107012299D03*
X136250000Y-69425000D03*
X138500000Y-91213020D03*
X127350000Y-102800000D03*
X130556000Y-97536000D03*
X130000000Y-88250000D03*
X147651918Y-94424746D03*
X132200000Y-66300000D03*
X137750000Y-108750000D03*
X128250000Y-90575000D03*
X142012000Y-108712000D03*
X151000000Y-93750000D03*
X137250000Y-98250000D03*
X158115000Y-81280000D03*
X153035000Y-69215000D03*
X143000000Y-65500000D03*
X143000535Y-73252661D03*
X151250000Y-65000000D03*
X151250000Y-75000000D03*
X121000000Y-99250000D03*
X151130000Y-70485000D03*
X153035000Y-78740000D03*
D34*
X151155200Y-66344800D02*
X151250000Y-66250000D01*
X143002000Y-103277500D02*
X143002000Y-103227000D01*
X146357000Y-119332000D02*
X144475000Y-117450000D01*
X125157000Y-66357500D02*
X125892500Y-66357500D01*
X149000000Y-87406500D02*
X149096500Y-87503000D01*
X143002000Y-103227000D02*
X142025000Y-102250000D01*
X115500000Y-74950000D02*
X114253500Y-73703500D01*
X142960000Y-97790000D02*
X143000000Y-97750000D01*
X140333500Y-111252000D02*
X142002000Y-111252000D01*
X134493000Y-85982000D02*
X134475000Y-86000000D01*
X125892500Y-66357500D02*
X126750000Y-65500000D01*
X153450000Y-92150000D02*
X154295600Y-92995600D01*
X149074000Y-102296000D02*
X148909000Y-102296000D01*
X147955000Y-104039500D02*
X148436500Y-104521000D01*
X125832107Y-112403107D02*
X125296000Y-111867000D01*
X135699500Y-105029000D02*
X134429500Y-105029000D01*
X138504000Y-60889200D02*
X138410800Y-60889200D01*
X141795500Y-81404500D02*
X141795500Y-82513000D01*
X129250000Y-122800000D02*
X126737214Y-122800000D01*
X131953000Y-79313000D02*
X130662000Y-79313000D01*
X129999598Y-111650000D02*
X130862500Y-111650000D01*
X144146500Y-93853000D02*
X142447000Y-93853000D01*
X122291500Y-91567000D02*
X123571000Y-91567000D01*
X115215500Y-67157600D02*
X115215500Y-68234500D01*
X154430100Y-66040000D02*
X154460000Y-66040000D01*
X144146500Y-88773000D02*
X144798000Y-88773000D01*
X155500000Y-69496700D02*
X154329300Y-68326000D01*
X129799799Y-111450201D02*
X129999598Y-111650000D01*
X130106500Y-93263000D02*
X130106500Y-94331500D01*
X156236351Y-90510950D02*
X155295600Y-89570199D01*
X155295600Y-89570199D02*
X155295600Y-89442800D01*
X138292400Y-73792400D02*
X139500000Y-75000000D01*
X130850000Y-116725000D02*
X130900000Y-116675000D01*
X117705500Y-95186500D02*
X117705500Y-92887000D01*
X132588000Y-88900000D02*
X132588000Y-91948000D01*
X141800000Y-81400000D02*
X141795500Y-81404500D01*
X155500000Y-69500000D02*
X155500000Y-69496700D01*
X133159500Y-98340500D02*
X133159500Y-99949000D01*
X114253500Y-73703500D02*
X114120000Y-73703500D01*
X131561500Y-71330500D02*
X131380500Y-71330500D01*
X149000000Y-86000000D02*
X149000000Y-87406500D01*
X138239500Y-86039500D02*
X138239500Y-84326500D01*
X131380500Y-71330500D02*
X130375000Y-70325000D01*
X154295600Y-92995600D02*
X154295600Y-93014800D01*
X143103500Y-97853500D02*
X143000000Y-97750000D01*
X148909000Y-102296000D02*
X147955000Y-103250000D01*
X138239500Y-84326500D02*
X138303000Y-84263000D01*
X138594000Y-66294000D02*
X138575000Y-66275000D01*
X145000000Y-81000000D02*
X147000000Y-79000000D01*
X144862000Y-91313000D02*
X144146500Y-91313000D01*
X149490200Y-66344800D02*
X151155200Y-66344800D01*
X138700000Y-106500000D02*
X139509500Y-105690500D01*
X141800000Y-81400000D02*
X141795500Y-81395500D01*
X145153127Y-91021873D02*
X144862000Y-91313000D01*
X134493000Y-79313000D02*
X135763000Y-79313000D01*
X154460000Y-66040000D02*
X155500000Y-65000000D01*
X147955000Y-103250000D02*
X147955000Y-104039500D01*
X138303000Y-84263000D02*
X137033000Y-84263000D01*
X130662000Y-79313000D02*
X130650000Y-79325000D01*
X131889500Y-99949000D02*
X134429500Y-99949000D01*
X126750000Y-65500000D02*
X127000000Y-65500000D01*
X141578500Y-93853000D02*
X142447000Y-93853000D01*
X131811600Y-58338400D02*
X132975000Y-57175000D01*
X145446020Y-89835234D02*
X145446020Y-90314766D01*
X122000000Y-91858500D02*
X122291500Y-91567000D01*
X130900000Y-116675000D02*
X130900000Y-115760500D01*
X134493000Y-77282000D02*
X134525000Y-77250000D01*
X142002000Y-111252000D02*
X142100000Y-111350000D01*
X117755500Y-90360500D02*
X117755500Y-87934000D01*
X138250000Y-73792400D02*
X138292400Y-73792400D01*
X130106500Y-94331500D02*
X130150000Y-94375000D01*
X117755500Y-87934000D02*
X117705500Y-87884000D01*
X131650400Y-58338400D02*
X131811600Y-58338400D01*
X142600000Y-90525000D02*
X143388000Y-91313000D01*
X140208000Y-97790000D02*
X142960000Y-97790000D01*
X126030107Y-122507107D02*
X125359500Y-121836500D01*
X138410800Y-60889200D02*
X137275000Y-62025000D01*
X134493000Y-84263000D02*
X133223000Y-84263000D01*
X126125000Y-113575000D02*
X126125000Y-113110214D01*
X135000000Y-106400000D02*
X135699500Y-105700500D01*
X133200000Y-98300000D02*
X133159500Y-98340500D01*
X130085000Y-66305900D02*
X130198500Y-66192400D01*
X139509500Y-105029000D02*
X138239500Y-105029000D01*
X130850000Y-116725000D02*
X130850000Y-117729000D01*
X141351000Y-93625500D02*
X141578500Y-93853000D01*
X144312000Y-97853500D02*
X143103500Y-97853500D01*
X135699500Y-105700500D02*
X135699500Y-105029000D01*
X139509500Y-105690500D02*
X139509500Y-105029000D01*
X115215500Y-68234500D02*
X115200000Y-68250000D01*
X130085000Y-68516500D02*
X130085000Y-66305900D01*
X156487500Y-78740000D02*
X157480000Y-78740000D01*
X140107500Y-66294000D02*
X138594000Y-66294000D01*
X134493000Y-79313000D02*
X134493000Y-77282000D01*
X117705500Y-92887000D02*
X117755500Y-92837000D01*
X134493000Y-84263000D02*
X134493000Y-85982000D01*
X154500000Y-56500000D02*
X154500000Y-58328000D01*
X143388000Y-91313000D02*
X144146500Y-91313000D01*
X138239500Y-87529500D02*
X138239500Y-86039500D01*
X155729600Y-69729600D02*
X155729600Y-71241600D01*
X155500000Y-69500000D02*
X155729600Y-69729600D01*
X146357000Y-119336500D02*
X146357000Y-119332000D01*
X144798000Y-88773000D02*
X145153127Y-89128127D01*
X141795500Y-81395500D02*
X141795500Y-80351000D01*
X154500000Y-58328000D02*
X154561200Y-58389200D01*
X145446019Y-89835234D02*
G75*
G03*
X145153126Y-89128128I-999993J3D01*
G01*
X126124999Y-113110214D02*
G75*
G03*
X125832106Y-112403108I-999993J3D01*
G01*
X145153127Y-91021873D02*
G75*
G03*
X145446020Y-90314766I-707106J707106D01*
G01*
X126030107Y-122507107D02*
G75*
G03*
X126737214Y-122800000I707106J707106D01*
G01*
X153865000Y-104135000D02*
X152972373Y-105027627D01*
X146711500Y-104521000D02*
X146711500Y-107913786D01*
X139118093Y-64707293D02*
X137406000Y-66419386D01*
X141000500Y-95000000D02*
X141351000Y-95350500D01*
X142999500Y-105000000D02*
X140808500Y-105000000D01*
X132587500Y-111650000D02*
X132080873Y-111143373D01*
D35*
X125088192Y-123800000D02*
X143979286Y-123800000D01*
X125296000Y-109367000D02*
X125433000Y-109367000D01*
D34*
X140108300Y-64414400D02*
X139825200Y-64414400D01*
X129750000Y-107650000D02*
X129900000Y-107500000D01*
X131373766Y-110850480D02*
X130764694Y-110850480D01*
D35*
X153161689Y-57911689D02*
X152400000Y-57150000D01*
D34*
X152265266Y-105320520D02*
X147925234Y-105320520D01*
D35*
X123959989Y-121150225D02*
X123959989Y-122671797D01*
X138504000Y-58346000D02*
X139700000Y-57150000D01*
X137406000Y-66594000D02*
X131650400Y-60838400D01*
D34*
X129750000Y-109350000D02*
X129750000Y-107650000D01*
X116940500Y-67157600D02*
X117447707Y-66650393D01*
D35*
X124252882Y-123378904D02*
X124381085Y-123507107D01*
D34*
X138239500Y-89254500D02*
X135940000Y-89254500D01*
D35*
X132629944Y-96500000D02*
X134129944Y-95000000D01*
D34*
X144146500Y-95123000D02*
X141578500Y-95123000D01*
D35*
X144686393Y-123507107D02*
X146357000Y-121836500D01*
D34*
X132587500Y-109975000D02*
X132662500Y-109900000D01*
X143483500Y-104521000D02*
X143002000Y-105002500D01*
X135301214Y-89363000D02*
X135831500Y-89363000D01*
D35*
X133806707Y-58682093D02*
X131650400Y-60838400D01*
D34*
X160376000Y-104135000D02*
X154076000Y-104135000D01*
X144489400Y-66294000D02*
X144540200Y-66344800D01*
D35*
X112720489Y-76306275D02*
X112720489Y-73017225D01*
D34*
X135940000Y-89254500D02*
X135831500Y-89363000D01*
D35*
X125457107Y-96792893D02*
X125025000Y-97225000D01*
D34*
X134250000Y-95000000D02*
X141000500Y-95000000D01*
D35*
X122800000Y-116610786D02*
X122800000Y-112114214D01*
X125359500Y-119336500D02*
X125111500Y-119336500D01*
D34*
X154266500Y-104135000D02*
X153865000Y-104135000D01*
X115216300Y-65291300D02*
X116940500Y-67015500D01*
D35*
X154561200Y-60889200D02*
X153353604Y-59681604D01*
X137957107Y-67145107D02*
X137406000Y-66594000D01*
D34*
X140108300Y-64433300D02*
X141832500Y-66157500D01*
X154100000Y-63525500D02*
X154100000Y-61350400D01*
X129750000Y-109835786D02*
X129750000Y-109350000D01*
X141832500Y-66157500D02*
X141832500Y-66294000D01*
D35*
X116987500Y-98000000D02*
X116987500Y-97487500D01*
D34*
X141578500Y-95123000D02*
X141351000Y-95350500D01*
D35*
X116987500Y-98000000D02*
X116987500Y-100644286D01*
X155729600Y-73741600D02*
X157707107Y-71764093D01*
D34*
X124542893Y-96742893D02*
X125025000Y-97225000D01*
X140108300Y-64414400D02*
X140108300Y-64433300D01*
X139573000Y-84263000D02*
X139573000Y-87506786D01*
D35*
X128977786Y-76000000D02*
X122500000Y-76000000D01*
X116987500Y-98000000D02*
X123835786Y-98000000D01*
D34*
X137406000Y-66419386D02*
X137406000Y-66594000D01*
D35*
X143002000Y-105298000D02*
X143002000Y-105002500D01*
D34*
X147218127Y-105027627D02*
X146711500Y-104521000D01*
D35*
X134129944Y-95000000D02*
X134250000Y-95000000D01*
X136004793Y-73537607D02*
X138250000Y-71292400D01*
X128200000Y-96500000D02*
X132629944Y-96500000D01*
X127714214Y-107500000D02*
X129900000Y-107500000D01*
D34*
X154100000Y-61350400D02*
X154561200Y-60889200D01*
X128200000Y-99823286D02*
X128200000Y-96500000D01*
D35*
X138504000Y-58389200D02*
X138504000Y-58346000D01*
X115707107Y-76292893D02*
X114000000Y-78000000D01*
X125025000Y-97225000D02*
X124542893Y-97707107D01*
D34*
X146074000Y-103469286D02*
X146074000Y-101346000D01*
X130500000Y-63643000D02*
X130500000Y-62403014D01*
X129300000Y-101337500D02*
X128492893Y-100530393D01*
X134250000Y-90414214D02*
X134250000Y-95000000D01*
D35*
X158000000Y-71056986D02*
X158000000Y-64742214D01*
D34*
X139598000Y-84238000D02*
X139573000Y-84263000D01*
X141795500Y-84238000D02*
X139598000Y-84238000D01*
D35*
X116987500Y-97487500D02*
X114292893Y-94792893D01*
D34*
X132985500Y-111252000D02*
X135383500Y-111252000D01*
X134542893Y-89707107D02*
X134594107Y-89655893D01*
X115216300Y-65087500D02*
X115216300Y-65291300D01*
D35*
X138250000Y-71292400D02*
X138250000Y-67852214D01*
D34*
X130792893Y-61695907D02*
X131650400Y-60838400D01*
X116940500Y-67157600D02*
X116950000Y-67167100D01*
X132587500Y-111650000D02*
X132985500Y-111252000D01*
D35*
X157707107Y-64035107D02*
X154561200Y-60889200D01*
D34*
X124250000Y-93385192D02*
X124250000Y-96035786D01*
X114271500Y-71203500D02*
X114120000Y-71203500D01*
X125884000Y-91567000D02*
X125653978Y-91567000D01*
D35*
X129900000Y-107500000D02*
X140385786Y-107500000D01*
X153161689Y-59489689D02*
X153161689Y-57911689D01*
X125133000Y-109367000D02*
X125296000Y-109367000D01*
X114000000Y-78000000D02*
X113013382Y-77013382D01*
D34*
X141832500Y-66294000D02*
X144489400Y-66294000D01*
D35*
X152400000Y-57150000D02*
X139700000Y-57150000D01*
X117280393Y-101351393D02*
X125296000Y-109367000D01*
X126164214Y-96500000D02*
X128200000Y-96500000D01*
D34*
X116940500Y-67015500D02*
X116940500Y-67157600D01*
X146711500Y-104521000D02*
X146366893Y-104176393D01*
D35*
X114000000Y-94085786D02*
X114000000Y-78000000D01*
D34*
X146711500Y-104521000D02*
X143483500Y-104521000D01*
X118154814Y-66357500D02*
X120207000Y-66357500D01*
D35*
X125111500Y-119336500D02*
X123092893Y-117317893D01*
D34*
X130198500Y-63944500D02*
X130500000Y-63643000D01*
X146418607Y-108620893D02*
X145057500Y-109982000D01*
D35*
X138504000Y-58389200D02*
X134513814Y-58389200D01*
D34*
X154076000Y-104135000D02*
X153865000Y-104135000D01*
D35*
X125433000Y-109367000D02*
X127007107Y-107792893D01*
D34*
X143002000Y-105002500D02*
X142999500Y-105000000D01*
D35*
X131561500Y-73830500D02*
X135297686Y-73830500D01*
X123092893Y-111407107D02*
X125133000Y-109367000D01*
X141092893Y-107207107D02*
X143002000Y-105298000D01*
X153353604Y-59681604D02*
X153161689Y-59489689D01*
X113013382Y-72310118D02*
X114120000Y-71203500D01*
D34*
X154430100Y-63855600D02*
X154100000Y-63525500D01*
X116950000Y-67167100D02*
X116950000Y-68110786D01*
X116657107Y-68817893D02*
X114271500Y-71203500D01*
X139280107Y-88213893D02*
X138239500Y-89254500D01*
X130057587Y-110557587D02*
X130042893Y-110542893D01*
D35*
X131561500Y-73830500D02*
X129684893Y-75707107D01*
D34*
X132587500Y-111650000D02*
X132587500Y-109975000D01*
D35*
X125359500Y-119336500D02*
X124252882Y-120443118D01*
X122500000Y-76000000D02*
X116414214Y-76000000D01*
D34*
X125653978Y-91567000D02*
X124542893Y-92678085D01*
D35*
X157999999Y-71056986D02*
G75*
G02*
X157707106Y-71764092I-999993J-3D01*
G01*
X134513814Y-58389201D02*
G75*
G03*
X133806708Y-58682094I-3J-999993D01*
G01*
X125457107Y-96792893D02*
G75*
G02*
X126164214Y-96500000I707106J-707106D01*
G01*
X157999999Y-64742214D02*
G75*
G03*
X157707106Y-64035108I-999993J3D01*
G01*
X117280393Y-101351393D02*
G75*
G02*
X116987500Y-100644286I707106J707106D01*
G01*
D34*
X152265266Y-105320519D02*
G75*
G03*
X152972372Y-105027626I3J999993D01*
G01*
X139280107Y-88213893D02*
G75*
G03*
X139573000Y-87506786I-707106J707106D01*
G01*
X124542893Y-96742893D02*
G75*
G02*
X124250000Y-96035786I707106J707106D01*
G01*
D35*
X129684893Y-75707107D02*
G75*
G02*
X128977786Y-76000000I-707106J707106D01*
G01*
D34*
X134542893Y-89707107D02*
G75*
G03*
X134250000Y-90414214I707106J-707106D01*
G01*
D35*
X114292893Y-94792893D02*
G75*
G02*
X114000000Y-94085786I707106J707106D01*
G01*
D34*
X146418607Y-108620893D02*
G75*
G03*
X146711500Y-107913786I-707106J707106D01*
G01*
D35*
X144686393Y-123507107D02*
G75*
G02*
X143979286Y-123800000I-707106J707106D01*
G01*
D34*
X124542893Y-92678085D02*
G75*
G03*
X124250000Y-93385192I707106J-707106D01*
G01*
X118154814Y-66357501D02*
G75*
G03*
X117447708Y-66650394I-3J-999993D01*
G01*
X130057587Y-110557587D02*
G75*
G03*
X130764694Y-110850480I707106J707106D01*
G01*
D35*
X135297686Y-73830499D02*
G75*
G03*
X136004792Y-73537606I3J999993D01*
G01*
D34*
X139118093Y-64707293D02*
G75*
G02*
X139825200Y-64414400I707106J-707106D01*
G01*
D35*
X127007107Y-107792893D02*
G75*
G02*
X127714214Y-107500000I707106J-707106D01*
G01*
D34*
X128492893Y-100530393D02*
G75*
G02*
X128200000Y-99823286I707106J707106D01*
G01*
D35*
X123835786Y-97999999D02*
G75*
G03*
X124542892Y-97707106I3J999993D01*
G01*
X113013382Y-72310118D02*
G75*
G03*
X112720489Y-73017225I707106J-707106D01*
G01*
X122800001Y-112114214D02*
G75*
G02*
X123092894Y-111407108I999993J3D01*
G01*
X138249999Y-67852214D02*
G75*
G03*
X137957106Y-67145108I-999993J3D01*
G01*
D34*
X147218127Y-105027627D02*
G75*
G03*
X147925234Y-105320520I707106J707106D01*
G01*
D35*
X122800001Y-116610786D02*
G75*
G03*
X123092894Y-117317892I999993J-3D01*
G01*
X113013382Y-77013382D02*
G75*
G02*
X112720489Y-76306275I707106J707106D01*
G01*
D34*
X116949999Y-68110786D02*
G75*
G02*
X116657106Y-68817892I-999993J-3D01*
G01*
D35*
X124252882Y-120443118D02*
G75*
G03*
X123959989Y-121150225I707106J-707106D01*
G01*
D34*
X134594107Y-89655893D02*
G75*
G02*
X135301214Y-89363000I707106J-707106D01*
G01*
D35*
X140385786Y-107499999D02*
G75*
G03*
X141092892Y-107207106I3J999993D01*
G01*
D34*
X146074001Y-103469286D02*
G75*
G03*
X146366894Y-104176392I999993J-3D01*
G01*
D35*
X124381085Y-123507107D02*
G75*
G03*
X125088192Y-123800000I707106J707106D01*
G01*
X116414214Y-76000001D02*
G75*
G03*
X115707108Y-76292894I-3J-999993D01*
G01*
D34*
X130042893Y-110542893D02*
G75*
G02*
X129750000Y-109835786I707106J707106D01*
G01*
X131373766Y-110850481D02*
G75*
G02*
X132080872Y-111143374I3J-999993D01*
G01*
D35*
X123959990Y-122671797D02*
G75*
G03*
X124252883Y-123378903I999993J-3D01*
G01*
D34*
X130792893Y-61695907D02*
G75*
G03*
X130500000Y-62403014I707106J-707106D01*
G01*
X142543786Y-113792000D02*
X140333500Y-113792000D01*
X156295600Y-93964800D02*
X156295600Y-93979400D01*
X132675000Y-115810500D02*
X132625000Y-115760500D01*
X148012299Y-107012299D02*
X148012299Y-108323487D01*
X154700000Y-95575000D02*
X154700000Y-95800000D01*
X136329040Y-115062000D02*
X137036147Y-115769107D01*
X147719406Y-109030594D02*
X143250893Y-113499107D01*
X137036147Y-115769107D02*
X137450361Y-115354893D01*
X135383500Y-113792000D02*
X135383500Y-115062000D01*
X136563893Y-117436107D02*
X136743254Y-117256746D01*
X132675000Y-117729000D02*
X135856786Y-117729000D01*
X156295600Y-93979400D02*
X154700000Y-95575000D01*
X140333500Y-115062000D02*
X140333500Y-113792000D01*
X135383500Y-115062000D02*
X136329040Y-115062000D01*
X132675000Y-117729000D02*
X132675000Y-115810500D01*
X140333500Y-115062000D02*
X138157468Y-115062000D01*
X157558214Y-93116400D02*
X161086800Y-93116400D01*
X137036147Y-116549639D02*
X137036147Y-115769107D01*
X156295600Y-93964800D02*
X156851107Y-93409293D01*
X157558214Y-93116401D02*
G75*
G03*
X156851108Y-93409294I-3J-999993D01*
G01*
X143250893Y-113499107D02*
G75*
G02*
X142543786Y-113792000I-707106J707106D01*
G01*
X147719406Y-109030594D02*
G75*
G03*
X148012299Y-108323487I-707106J707106D01*
G01*
X136743254Y-117256746D02*
G75*
G03*
X137036147Y-116549639I-707106J707106D01*
G01*
X137450361Y-115354893D02*
G75*
G02*
X138157468Y-115062000I707106J-707106D01*
G01*
X136563893Y-117436107D02*
G75*
G02*
X135856786Y-117729000I-707106J707106D01*
G01*
X128373500Y-68503000D02*
X128360000Y-68516500D01*
X125902500Y-68897500D02*
X125990607Y-68809393D01*
X125157000Y-70167500D02*
X125157000Y-68897500D01*
X128373500Y-66192400D02*
X128373500Y-68503000D01*
X128975607Y-69132107D02*
X128360000Y-68516500D01*
X136250000Y-69425000D02*
X129682714Y-69425000D01*
X152480800Y-88250000D02*
X156295600Y-92064800D01*
X158198214Y-90576400D02*
X161086800Y-90576400D01*
X120207000Y-68897500D02*
X125157000Y-68897500D01*
X120207000Y-70167500D02*
X120207000Y-68897500D01*
X126697714Y-68516500D02*
X128360000Y-68516500D01*
X152175000Y-88250000D02*
X152480800Y-88250000D01*
X156295600Y-92064800D02*
X157491107Y-90869293D01*
X125157000Y-68897500D02*
X125902500Y-68897500D01*
X157491107Y-90869293D02*
G75*
G02*
X158198214Y-90576400I707106J-707106D01*
G01*
X128975607Y-69132107D02*
G75*
G03*
X129682714Y-69425000I707106J707106D01*
G01*
X126697714Y-68516501D02*
G75*
G03*
X125990608Y-68809394I-3J-999993D01*
G01*
X127350000Y-102800000D02*
X126150000Y-102800000D01*
X126150000Y-102800000D02*
X125475000Y-102125000D01*
X138500000Y-91213020D02*
X138400020Y-91313000D01*
X138400020Y-91313000D02*
X135831500Y-91313000D01*
X125987000Y-92583000D02*
X125887000Y-92583000D01*
X130106500Y-91963000D02*
X127021214Y-91963000D01*
X126314107Y-92255893D02*
X125987000Y-92583000D01*
X126561107Y-93257107D02*
X125887000Y-92583000D01*
X127900000Y-93550000D02*
X127268214Y-93550000D01*
X126561107Y-93257107D02*
G75*
G03*
X127268214Y-93550000I707106J707106D01*
G01*
X127021214Y-91963001D02*
G75*
G03*
X126314108Y-92255894I-3J-999993D01*
G01*
X135079214Y-96475000D02*
X137175000Y-96475000D01*
X137175000Y-96950000D02*
X137175000Y-96475000D01*
X130556000Y-97536000D02*
X133189786Y-97536000D01*
X139509500Y-100014000D02*
X139509500Y-99284500D01*
X133896893Y-97243107D02*
X134372107Y-96767893D01*
X139509500Y-99284500D02*
X137175000Y-96950000D01*
X133189786Y-97535999D02*
G75*
G03*
X133896892Y-97243106I3J999993D01*
G01*
X135079214Y-96475001D02*
G75*
G03*
X134372108Y-96767894I-3J-999993D01*
G01*
X160376000Y-100335000D02*
X154076000Y-100335000D01*
X146497607Y-97492893D02*
X146137000Y-97853500D01*
X148571000Y-100396000D02*
X146137000Y-97962000D01*
X149135000Y-100335000D02*
X149074000Y-100396000D01*
X137977734Y-101313520D02*
X142262766Y-101313520D01*
X149074000Y-100396000D02*
X148571000Y-100396000D01*
X154076000Y-100335000D02*
X149135000Y-100335000D01*
X136969500Y-100719500D02*
X137270627Y-101020627D01*
X149375000Y-97200000D02*
X147204714Y-97200000D01*
X146137000Y-97962000D02*
X146137000Y-97853500D01*
X142969873Y-101020627D02*
X146137000Y-97853500D01*
X136969500Y-100014000D02*
X136969500Y-100719500D01*
X142969873Y-101020627D02*
G75*
G02*
X142262766Y-101313520I-707106J707106D01*
G01*
X137270627Y-101020627D02*
G75*
G03*
X137977734Y-101313520I707106J707106D01*
G01*
X146497607Y-97492893D02*
G75*
G02*
X147204714Y-97200000I707106J-707106D01*
G01*
X118145087Y-68544913D02*
X117312893Y-69377107D01*
X124547500Y-67627500D02*
X124215873Y-67959127D01*
X117619607Y-71730393D02*
X117020000Y-72330000D01*
X117020000Y-70084214D02*
X117020000Y-72453500D01*
X125157000Y-67627500D02*
X124547500Y-67627500D01*
X120078500Y-74549000D02*
X120078500Y-71566000D01*
X120207000Y-71437500D02*
X118326714Y-71437500D01*
X120078500Y-71566000D02*
X120207000Y-71437500D01*
X123508766Y-68252020D02*
X118852194Y-68252020D01*
X117020000Y-72330000D02*
X117020000Y-72453500D01*
X117619607Y-71730393D02*
G75*
G02*
X118326714Y-71437500I707106J-707106D01*
G01*
X118145087Y-68544913D02*
G75*
G02*
X118852194Y-68252020I707106J-707106D01*
G01*
X123508766Y-68252019D02*
G75*
G03*
X124215872Y-67959126I3J999993D01*
G01*
X117312893Y-69377107D02*
G75*
G03*
X117020000Y-70084214I707106J-707106D01*
G01*
X117041300Y-65087500D02*
X116534673Y-64580873D01*
X112042893Y-77542893D02*
X112707107Y-78207107D01*
X111750000Y-67685698D02*
X111750000Y-76835786D01*
X111750000Y-67099214D02*
X111750000Y-67685698D01*
X120207000Y-65087500D02*
X120207000Y-63817500D01*
X113854127Y-64580873D02*
X112042893Y-66392107D01*
X117041300Y-65087500D02*
X120207000Y-65087500D01*
X112707107Y-89680093D02*
X110947200Y-91440000D01*
X130000000Y-88250000D02*
X130106500Y-88356500D01*
X115827566Y-64287980D02*
X114561234Y-64287980D01*
X113000000Y-78914214D02*
X113000000Y-88972986D01*
X130106500Y-88356500D02*
X130106500Y-89363000D01*
X111750001Y-67099214D02*
G75*
G02*
X112042894Y-66392108I999993J3D01*
G01*
X114561234Y-64287981D02*
G75*
G03*
X113854128Y-64580874I-3J-999993D01*
G01*
X115827566Y-64287981D02*
G75*
G02*
X116534672Y-64580874I3J-999993D01*
G01*
X112999999Y-88972986D02*
G75*
G02*
X112707106Y-89680092I-999993J-3D01*
G01*
X111750001Y-76835786D02*
G75*
G03*
X112042894Y-77542892I999993J-3D01*
G01*
X112999999Y-78914214D02*
G75*
G03*
X112707106Y-78207108I-999993J3D01*
G01*
X129079467Y-64650467D02*
X128373500Y-63944500D01*
X125164500Y-63825000D02*
X125157000Y-63817500D01*
X148350172Y-95123000D02*
X149096500Y-95123000D01*
X128254000Y-63825000D02*
X125164500Y-63825000D01*
X147651918Y-94424746D02*
X148350172Y-95123000D01*
X132200000Y-66300000D02*
X131136253Y-65236253D01*
X130429146Y-64943360D02*
X129786574Y-64943360D01*
X128373500Y-63944500D02*
X128254000Y-63825000D01*
X125157000Y-65087500D02*
X125157000Y-63817500D01*
X130429146Y-64943361D02*
G75*
G02*
X131136252Y-65236254I3J-999993D01*
G01*
X129079467Y-64650467D02*
G75*
G03*
X129786574Y-64943360I707104J707101D01*
G01*
X128259500Y-120586500D02*
X131211500Y-120586500D01*
X133500000Y-115000000D02*
X133500000Y-113763528D01*
X133646447Y-113409974D02*
X133761903Y-113294518D01*
X139853875Y-113001625D02*
X140333500Y-112522000D01*
X131211500Y-120586500D02*
X131325000Y-120700000D01*
X135383500Y-116332000D02*
X134832000Y-116332000D01*
X134832000Y-116332000D02*
X133460980Y-114960980D01*
X134115456Y-113148072D02*
X139500321Y-113148072D01*
X128259500Y-117429714D02*
X128259500Y-120586500D01*
X130167573Y-115107427D02*
X128552393Y-116722607D01*
X133157796Y-114960980D02*
X133439020Y-114960980D01*
X133157796Y-114960980D02*
X130521127Y-114960980D01*
X133460980Y-114960980D02*
X133157796Y-114960980D01*
X135383500Y-116332000D02*
X134707000Y-116332000D01*
X128259501Y-117429714D02*
G75*
G02*
X128552394Y-116722608I999993J3D01*
G01*
X139500321Y-113148072D02*
G75*
G03*
X139853875Y-113001625I1J499997D01*
G01*
X134115456Y-113148073D02*
G75*
G03*
X133761903Y-113294518I0J-500001D01*
G01*
X130167573Y-115107427D02*
G75*
G02*
X130521127Y-114960980I353553J-353550D01*
G01*
X133646447Y-113409974D02*
G75*
G03*
X133500000Y-113763528I353550J-353553D01*
G01*
X130837500Y-109900000D02*
X131744607Y-108992893D01*
X137712000Y-108712000D02*
X137750000Y-108750000D01*
X135383500Y-109982000D02*
X135383500Y-108712000D01*
X132451714Y-108700000D02*
X135371500Y-108700000D01*
X135383500Y-108712000D02*
X137712000Y-108712000D01*
X128519107Y-90305893D02*
X128250000Y-90575000D01*
X130106500Y-90013000D02*
X129226214Y-90013000D01*
X135371500Y-108700000D02*
X135383500Y-108712000D01*
X128519107Y-90305893D02*
G75*
G02*
X129226214Y-90013000I707106J-707106D01*
G01*
X132451714Y-108700001D02*
G75*
G03*
X131744608Y-108992894I-3J-999993D01*
G01*
X142012000Y-108712000D02*
X140333500Y-108712000D01*
X143232500Y-109982000D02*
X140333500Y-109982000D01*
X151000000Y-93750000D02*
X149833000Y-92583000D01*
X149833000Y-92583000D02*
X149096500Y-92583000D01*
X140333500Y-108712000D02*
X140333500Y-109982000D01*
X135635786Y-81000000D02*
X129000000Y-81000000D01*
X137033000Y-80017000D02*
X136342893Y-80707107D01*
X125242107Y-81292893D02*
X124132000Y-82403000D01*
X129000000Y-81000000D02*
X125949214Y-81000000D01*
X137033000Y-79313000D02*
X137033000Y-80017000D01*
X125242107Y-81292893D02*
G75*
G02*
X125949214Y-81000000I707106J-707106D01*
G01*
X136342893Y-80707107D02*
G75*
G02*
X135635786Y-81000000I-707106J707106D01*
G01*
X130106500Y-92613000D02*
X130448786Y-92613000D01*
X137250000Y-98500000D02*
X138239500Y-99489500D01*
X138239500Y-99489500D02*
X138239500Y-100014000D01*
X137250000Y-98250000D02*
X137250000Y-98500000D01*
X132400000Y-94564214D02*
X132400000Y-95175000D01*
X138239500Y-99481464D02*
X138239500Y-100014000D01*
X131155893Y-92905893D02*
X132107107Y-93857107D01*
X130448786Y-92613001D02*
G75*
G02*
X131155892Y-92905894I3J-999993D01*
G01*
X132399999Y-94564214D02*
G75*
G03*
X132107106Y-93857108I-999993J3D01*
G01*
X134857348Y-92976709D02*
X135143639Y-93263000D01*
X134769480Y-91161423D02*
X134769480Y-92764577D01*
X135831500Y-90663000D02*
X135143639Y-90663000D01*
X135143639Y-90663000D02*
X134857348Y-90949291D01*
X134769481Y-92764577D02*
G75*
G03*
X134857349Y-92976708I299997J-1D01*
G01*
X134857348Y-90949291D02*
G75*
G03*
X134769480Y-91161423I212130J-212131D01*
G01*
X149096500Y-91313000D02*
X148387000Y-91313000D01*
X147348266Y-91937520D02*
X136544841Y-91937520D01*
X136544841Y-91937520D02*
X136519361Y-91963000D01*
X136519361Y-91963000D02*
X135831500Y-91963000D01*
X148387000Y-91313000D02*
X148055373Y-91644627D01*
X148055373Y-91644627D02*
G75*
G02*
X147348266Y-91937520I-707106J707106D01*
G01*
X149096500Y-93853000D02*
X148403000Y-93853000D01*
X147364266Y-93228480D02*
X143261308Y-93228480D01*
X148403000Y-93853000D02*
X148071373Y-93521373D01*
X141817400Y-92613000D02*
X135831500Y-92613000D01*
X142554201Y-92935587D02*
X142524507Y-92905893D01*
X148071373Y-93521373D02*
G75*
G03*
X147364266Y-93228480I-707106J-707106D01*
G01*
X142524507Y-92905893D02*
G75*
G03*
X141817400Y-92613000I-707106J-707106D01*
G01*
X142554201Y-92935587D02*
G75*
G03*
X143261308Y-93228480I707106J707106D01*
G01*
X156245600Y-85495600D02*
X156225000Y-85475000D01*
X157242014Y-88025000D02*
X161075400Y-88025000D01*
X152605100Y-66040000D02*
X152605100Y-68325200D01*
X153035000Y-69215000D02*
X153035000Y-68756700D01*
X156225000Y-81542500D02*
X156487500Y-81280000D01*
X153035000Y-68756700D02*
X152604300Y-68326000D01*
X156245600Y-87442800D02*
X156245600Y-85495600D01*
X156487500Y-81280000D02*
X158115000Y-81280000D01*
X156225000Y-85475000D02*
X156225000Y-81542500D01*
X156245600Y-87442800D02*
X156534907Y-87732107D01*
X152605100Y-68325200D02*
X152604300Y-68326000D01*
X161075400Y-88025000D02*
X161086800Y-88036400D01*
X157242014Y-88024999D02*
G75*
G02*
X156534908Y-87732106I-3J999993D01*
G01*
X144540200Y-63804800D02*
X142957114Y-63804800D01*
X143425200Y-65074800D02*
X143000000Y-65500000D01*
X143000535Y-73252661D02*
X143000000Y-73253196D01*
X144540200Y-65074800D02*
X143425200Y-65074800D01*
X139573000Y-79313000D02*
X140594286Y-79313000D01*
X143000000Y-77321500D02*
X141795500Y-78526000D01*
X142250007Y-64097693D02*
X141933300Y-64414400D01*
X144540200Y-63804800D02*
X144540200Y-65074800D01*
X141301393Y-79020107D02*
X141795500Y-78526000D01*
X143000000Y-73253196D02*
X143000000Y-77321500D01*
X141301393Y-79020107D02*
G75*
G02*
X140594286Y-79313000I-707106J707106D01*
G01*
X142957114Y-63804801D02*
G75*
G03*
X142250008Y-64097694I-3J-999993D01*
G01*
X149490200Y-65074800D02*
X151175200Y-65074800D01*
X149490200Y-63804800D02*
X149490200Y-65074800D01*
X149987000Y-90043000D02*
X149096500Y-90043000D01*
X152554300Y-63804800D02*
X152605100Y-63855600D01*
X150500000Y-76164214D02*
X150500000Y-89115786D01*
X151175200Y-65074800D02*
X151250000Y-65000000D01*
X149490200Y-63804800D02*
X152554300Y-63804800D01*
X151250000Y-75000000D02*
X150792893Y-75457107D01*
X150207107Y-89822893D02*
X149987000Y-90043000D01*
X150207107Y-89822893D02*
G75*
G03*
X150500000Y-89115786I-707106J707106D01*
G01*
X150500001Y-76164214D02*
G75*
G02*
X150792894Y-75457108I999993J3D01*
G01*
X146100000Y-66285786D02*
X146100000Y-63089214D01*
X144540200Y-67614800D02*
X145185200Y-67614800D01*
X142649986Y-59639200D02*
X141404000Y-59639200D01*
X145807107Y-62382107D02*
X143357093Y-59932093D01*
X145185200Y-67614800D02*
X145807107Y-66992893D01*
X143357093Y-59932093D02*
G75*
G03*
X142649986Y-59639200I-707106J-707106D01*
G01*
X145807107Y-62382107D02*
G75*
G02*
X146100000Y-63089214I-707106J-707106D01*
G01*
X145807107Y-66992893D02*
G75*
G03*
X146100000Y-66285786I-707106J707106D01*
G01*
X148814800Y-67614800D02*
X148192893Y-66992893D01*
X149490200Y-67614800D02*
X148814800Y-67614800D01*
X149512700Y-61787700D02*
X151661200Y-59639200D01*
X148525000Y-60900000D02*
X149412700Y-61787700D01*
X148192893Y-63107507D02*
X149512700Y-61787700D01*
X149412700Y-61787700D02*
X149512700Y-61787700D01*
X147900000Y-66285786D02*
X147900000Y-63814614D01*
X148192893Y-63107507D02*
G75*
G03*
X147900000Y-63814614I707106J-707106D01*
G01*
X148192893Y-66992893D02*
G75*
G02*
X147900000Y-66285786I707106J707106D01*
G01*
X125884000Y-90678000D02*
X126078000Y-90678000D01*
X125884000Y-90678000D02*
X125997000Y-90678000D01*
X125997000Y-90678000D02*
X127525000Y-89150000D01*
X127127214Y-91313000D02*
X130106500Y-91313000D01*
X126078000Y-90678000D02*
X126420107Y-91020107D01*
X127525000Y-89150000D02*
X127850000Y-89150000D01*
X126420107Y-91020107D02*
G75*
G03*
X127127214Y-91313000I707106J707106D01*
G01*
X135935020Y-90116520D02*
X140069266Y-90116520D01*
X148473000Y-88773000D02*
X149096500Y-88773000D01*
X135831500Y-90013000D02*
X135935020Y-90116520D01*
X148141373Y-88441373D02*
X148473000Y-88773000D01*
X142865734Y-88148480D02*
X147434266Y-88148480D01*
X140776373Y-89823627D02*
X142158627Y-88441373D01*
X140776373Y-89823627D02*
G75*
G02*
X140069266Y-90116520I-707106J707106D01*
G01*
X142865734Y-88148481D02*
G75*
G03*
X142158628Y-88441374I-3J-999993D01*
G01*
X147434266Y-88148481D02*
G75*
G02*
X148141372Y-88441374I3J-999993D01*
G01*
X119480500Y-87934000D02*
X119530500Y-87884000D01*
X119942893Y-82442107D02*
X121232000Y-81153000D01*
X119480500Y-90360500D02*
X119480500Y-87934000D01*
X119651928Y-87762572D02*
X119651928Y-83050912D01*
X119650000Y-87764500D02*
X119530500Y-87884000D01*
X119530500Y-87884000D02*
X119651928Y-87762572D01*
X123571000Y-90678000D02*
X119798000Y-90678000D01*
X119798000Y-90678000D02*
X119480500Y-90360500D01*
X119942893Y-82442107D02*
G75*
G03*
X119651928Y-83050912I728177J-721949D01*
G01*
X121000000Y-99250000D02*
X122575000Y-100825000D01*
X121000000Y-96656000D02*
X119530500Y-95186500D01*
X119530500Y-92887000D02*
X119480500Y-92837000D01*
X121000000Y-96750000D02*
X121000000Y-96656000D01*
X119734500Y-92583000D02*
X119480500Y-92837000D01*
X123571000Y-92583000D02*
X119734500Y-92583000D01*
X122575000Y-100825000D02*
X122575000Y-100875000D01*
X119530500Y-95186500D02*
X119530500Y-92887000D01*
D35*
X113714500Y-98298000D02*
X114012500Y-98000000D01*
X110947200Y-88900000D02*
X109790582Y-90056618D01*
X109790582Y-97413301D02*
X110382388Y-98005107D01*
X109497689Y-90763725D02*
X109497689Y-96706194D01*
X111089495Y-98298000D02*
X113714500Y-98298000D01*
X110382388Y-98005107D02*
G75*
G03*
X111089495Y-98298000I707106J707106D01*
G01*
X109497690Y-96706194D02*
G75*
G03*
X109790583Y-97413300I999993J-3D01*
G01*
X109497690Y-90763725D02*
G75*
G02*
X109790583Y-90056619I999993J3D01*
G01*
D34*
X134610786Y-101325000D02*
X131526714Y-101325000D01*
X130819607Y-101032107D02*
X129300000Y-99512500D01*
X135699500Y-100650500D02*
X135317893Y-101032107D01*
X135699500Y-100014000D02*
X135699500Y-100650500D01*
X130819607Y-101032107D02*
G75*
G03*
X131526714Y-101325000I707106J707106D01*
G01*
X134610786Y-101324999D02*
G75*
G03*
X135317892Y-101032106I3J999993D01*
G01*
X128750400Y-59588400D02*
X128750400Y-59731500D01*
X122600000Y-64114214D02*
X122600000Y-65485786D01*
X128750400Y-59731500D02*
X127474793Y-61007107D01*
X120872500Y-67627500D02*
X120207000Y-67627500D01*
X126767686Y-61300000D02*
X125000000Y-61300000D01*
X125000000Y-61300000D02*
X122892893Y-63407107D01*
X122307107Y-66192893D02*
X120872500Y-67627500D01*
X122892893Y-63407107D02*
G75*
G03*
X122600000Y-64114214I707106J-707106D01*
G01*
X127474793Y-61007107D02*
G75*
G02*
X126767686Y-61300000I-707106J707106D01*
G01*
X122307107Y-66192893D02*
G75*
G03*
X122600000Y-65485786I-707106J707106D01*
G01*
X127273286Y-71437500D02*
X125157000Y-71437500D01*
X125158500Y-74549000D02*
X125158500Y-71439000D01*
X128661500Y-72580500D02*
X128661500Y-72411500D01*
X128661500Y-72411500D02*
X127980393Y-71730393D01*
X125158500Y-71439000D02*
X125157000Y-71437500D01*
X127980393Y-71730393D02*
G75*
G03*
X127273286Y-71437500I-707106J-707106D01*
G01*
X143975200Y-71424800D02*
X144540200Y-71424800D01*
X141150000Y-72542400D02*
X142443386Y-72542400D01*
X144830800Y-74472800D02*
X144830800Y-71715400D01*
X143150493Y-72249507D02*
X143975200Y-71424800D01*
X144830800Y-71715400D02*
X144540200Y-71424800D01*
X143150493Y-72249507D02*
G75*
G02*
X142443386Y-72542400I-707106J707106D01*
G01*
X152829600Y-72329600D02*
X152829600Y-72491600D01*
X149490200Y-71424800D02*
X151510586Y-71424800D01*
X149453600Y-71461400D02*
X149490200Y-71424800D01*
X149453600Y-74472800D02*
X149453600Y-71461400D01*
X152217693Y-71717693D02*
X152829600Y-72329600D01*
X152217693Y-71717693D02*
G75*
G03*
X151510586Y-71424800I-707106J-707106D01*
G01*
X128196000Y-110617000D02*
X127167893Y-111645107D01*
X128196000Y-110617000D02*
X128196000Y-110871000D01*
X126875000Y-112352214D02*
X126875000Y-116076000D01*
X128196000Y-110871000D02*
X129554107Y-112229107D01*
X126875000Y-116076000D02*
X126873000Y-116078000D01*
X130261214Y-112522000D02*
X135383500Y-112522000D01*
X130261214Y-112521999D02*
G75*
G02*
X129554108Y-112229106I-3J999993D01*
G01*
X127167893Y-111645107D02*
G75*
G03*
X126875000Y-112352214I707106J-707106D01*
G01*
X143457000Y-120432000D02*
X143457000Y-120586500D01*
X140333500Y-116332000D02*
X140333500Y-116894286D01*
X141112500Y-118087500D02*
X143457000Y-120432000D01*
X140626393Y-117601393D02*
X141112500Y-118087500D01*
X140350000Y-118900000D02*
X141112500Y-118137500D01*
X141112500Y-118137500D02*
X141112500Y-118087500D01*
X140626393Y-117601393D02*
G75*
G02*
X140333500Y-116894286I707106J707106D01*
G01*
X132677035Y-81892893D02*
X131250000Y-83319928D01*
X136231822Y-81600000D02*
X133384142Y-81600000D01*
X131250000Y-83319928D02*
X131250000Y-90157893D01*
X131103553Y-90511447D02*
X130952000Y-90663000D01*
X130952000Y-90663000D02*
X130106500Y-90663000D01*
X138303000Y-79943036D02*
X136938929Y-81307107D01*
X138303000Y-79313000D02*
X138303000Y-79943036D01*
X132677035Y-81892893D02*
G75*
G02*
X133384142Y-81600000I707106J-707106D01*
G01*
X136231822Y-81599999D02*
G75*
G03*
X136938928Y-81307106I1J999998D01*
G01*
X131250000Y-90157893D02*
G75*
G02*
X131103553Y-90511447I-499997J-1D01*
G01*
X154662500Y-78740000D02*
X153035000Y-78740000D01*
X154662500Y-78740000D02*
X154662500Y-81280000D01*
X149490200Y-70154800D02*
X149490200Y-68884800D01*
X144540200Y-68884800D02*
X149490200Y-68884800D01*
X149490200Y-70154800D02*
X150799800Y-70154800D01*
X150799800Y-70154800D02*
X151130000Y-70485000D01*
X144540200Y-70154800D02*
X144540200Y-68884800D01*
M02*
